<svg width="185" height="92" viewBox="0 0 185 92" fill="none" xmlns="http://www.w3.org/2000/svg">
<rect x="14" y="28" width="159" height="36" rx="18" fill="#90E4FF"/>
<g filter="url(#filter0_d_234_67)">
<mask id="path-2-outside-1_234_67" maskUnits="userSpaceOnUse" x="40.5" y="34" width="103" height="23" fill="black">
<rect fill="white" x="40.5" y="34" width="103" height="23"/>
<path d="M52.2715 56.48C45.8215 56.48 41.2915 51.14 41.2915 45.5C41.2915 39.14 46.5415 34.52 52.3015 34.52C55.4215 34.52 58.1815 35.6 60.2215 37.13V42.95H60.1315C59.2615 38.45 55.3015 34.97 51.2515 34.97C46.8715 34.97 43.9615 38.72 43.9615 43.61C43.9615 49.13 47.8315 55.4 53.8315 55.4C56.9815 55.4 60.1615 53.51 61.6615 49.73H61.8115C60.0715 54.62 56.1115 56.48 52.2715 56.48ZM74.2205 56.48C67.5305 56.48 63.0005 51.14 63.0005 45.5C63.0005 39.02 68.4005 34.52 74.0105 34.52C80.5205 34.52 84.9605 39.95 84.9605 45.53C84.9605 51.98 79.7705 56.48 74.2205 56.48ZM65.6705 43.52C65.6705 49.01 69.6905 56 75.3305 56C79.5305 56 82.3205 52.37 82.3205 47.48C82.3205 42.02 78.3905 35 72.6305 35C68.6705 35 65.6705 38.66 65.6705 43.52ZM100.409 56.48L87.8391 38.3V50.12C87.8391 52.64 88.1691 54.35 89.2491 56H86.1291C87.2391 54.32 87.5391 52.64 87.5391 50.12V37.85L85.5591 35H88.7691L100.259 51.62L100.289 40.85C100.289 38.33 99.9891 36.68 98.8791 35H101.999C100.919 36.65 100.589 38.33 100.589 40.85L100.559 56.48H100.409ZM117.899 56.48L105.329 38.3V50.12C105.329 52.64 105.659 54.35 106.739 56H103.619C104.729 54.32 105.029 52.64 105.029 50.12V37.85L103.049 35H106.259L117.749 51.62L117.779 40.85C117.779 38.33 117.479 36.68 116.369 35H119.489C118.409 36.65 118.079 38.33 118.079 40.85L118.049 56.48H117.899ZM121.44 56C122.55 54.32 122.7 52.73 122.7 50.21V40.79C122.7 38.27 122.55 36.68 121.44 35H126.57C125.49 36.62 125.31 38.18 125.31 40.79V50.21C125.31 52.73 125.46 54.32 126.57 56H121.44ZM128.519 56C129.629 54.32 129.779 52.73 129.779 50.21V40.79C129.779 38.27 129.629 36.68 128.519 35H142.379V39.17H142.289C141.749 37.88 140.309 35.24 137.219 35.24C133.349 35.24 132.389 37.73 132.389 39.56C132.389 43.16 135.179 44.72 138.059 44.72C138.779 44.72 139.499 44.63 140.189 44.42V46.94C136.499 46.55 133.289 44.57 132.389 41.33V55.7H132.449C139.949 55.7 142.349 53.48 143.129 51.47H143.219V56H128.519Z"/>
</mask>
<path d="M52.2715 56.48C45.8215 56.48 41.2915 51.14 41.2915 45.5C41.2915 39.14 46.5415 34.52 52.3015 34.52C55.4215 34.52 58.1815 35.6 60.2215 37.13V42.95H60.1315C59.2615 38.45 55.3015 34.97 51.2515 34.97C46.8715 34.97 43.9615 38.72 43.9615 43.61C43.9615 49.13 47.8315 55.4 53.8315 55.4C56.9815 55.4 60.1615 53.51 61.6615 49.73H61.8115C60.0715 54.62 56.1115 56.48 52.2715 56.48ZM74.2205 56.48C67.5305 56.48 63.0005 51.14 63.0005 45.5C63.0005 39.02 68.4005 34.52 74.0105 34.52C80.5205 34.52 84.9605 39.95 84.9605 45.53C84.9605 51.98 79.7705 56.48 74.2205 56.48ZM65.6705 43.52C65.6705 49.01 69.6905 56 75.3305 56C79.5305 56 82.3205 52.37 82.3205 47.48C82.3205 42.02 78.3905 35 72.6305 35C68.6705 35 65.6705 38.66 65.6705 43.52ZM100.409 56.48L87.8391 38.3V50.12C87.8391 52.64 88.1691 54.35 89.2491 56H86.1291C87.2391 54.32 87.5391 52.64 87.5391 50.12V37.85L85.5591 35H88.7691L100.259 51.62L100.289 40.85C100.289 38.33 99.9891 36.68 98.8791 35H101.999C100.919 36.65 100.589 38.33 100.589 40.85L100.559 56.48H100.409ZM117.899 56.48L105.329 38.3V50.12C105.329 52.64 105.659 54.35 106.739 56H103.619C104.729 54.32 105.029 52.64 105.029 50.12V37.85L103.049 35H106.259L117.749 51.62L117.779 40.85C117.779 38.33 117.479 36.68 116.369 35H119.489C118.409 36.65 118.079 38.33 118.079 40.85L118.049 56.48H117.899ZM121.44 56C122.55 54.32 122.7 52.73 122.7 50.21V40.79C122.7 38.27 122.55 36.68 121.44 35H126.57C125.49 36.62 125.31 38.18 125.31 40.79V50.21C125.31 52.73 125.46 54.32 126.57 56H121.44ZM128.519 56C129.629 54.32 129.779 52.73 129.779 50.21V40.79C129.779 38.27 129.629 36.68 128.519 35H142.379V39.17H142.289C141.749 37.88 140.309 35.24 137.219 35.24C133.349 35.24 132.389 37.73 132.389 39.56C132.389 43.16 135.179 44.72 138.059 44.72C138.779 44.72 139.499 44.63 140.189 44.42V46.94C136.499 46.55 133.289 44.57 132.389 41.33V55.7H132.449C139.949 55.7 142.349 53.48 143.129 51.47H143.219V56H128.519Z" fill="black"/>
<path d="M60.2215 37.13H60.3215V37.08L60.2815 37.05L60.2215 37.13ZM60.2215 42.95V43.05H60.3215V42.95H60.2215ZM60.1315 42.95L60.0333 42.969L60.049 43.05H60.1315V42.95ZM61.6615 49.73V49.63H61.5936L61.5686 49.6931L61.6615 49.73ZM61.8115 49.73L61.9057 49.7635L61.9532 49.63H61.8115V49.73ZM52.2715 56.38C45.8815 56.38 41.3915 51.0896 41.3915 45.5H41.1915C41.1915 51.1904 45.7615 56.58 52.2715 56.58V56.38ZM41.3915 45.5C41.3915 39.1991 46.5928 34.62 52.3015 34.62V34.42C46.4902 34.42 41.1915 39.0809 41.1915 45.5H41.3915ZM52.3015 34.62C55.3984 34.62 58.1376 35.692 60.1615 37.21L60.2815 37.05C58.2254 35.508 55.4447 34.42 52.3015 34.42V34.62ZM60.1215 37.13V42.95H60.3215V37.13H60.1215ZM60.2215 42.85H60.1315V43.05H60.2215V42.85ZM60.2297 42.931C59.3519 38.3907 55.356 34.87 51.2515 34.87V35.07C55.2471 35.07 59.1711 38.5093 60.0333 42.969L60.2297 42.931ZM51.2515 34.87C46.799 34.87 43.8615 38.6838 43.8615 43.61H44.0615C44.0615 38.7562 46.9441 35.07 51.2515 35.07V34.87ZM43.8615 43.61C43.8615 46.3916 44.836 49.3604 46.5669 51.6355C48.2987 53.9118 50.7933 55.5 53.8315 55.5V55.3C50.8697 55.3 48.4293 53.7532 46.7261 51.5145C45.022 49.2746 44.0615 46.3484 44.0615 43.61H43.8615ZM53.8315 55.5C57.0233 55.5 60.2397 53.5842 61.7545 49.7669L61.5686 49.6931C60.0834 53.4358 56.9397 55.3 53.8315 55.3V55.5ZM61.6615 49.83H61.8115V49.63H61.6615V49.83ZM61.7173 49.6965C59.9939 54.5397 56.0771 56.38 52.2715 56.38V56.58C56.1459 56.58 60.1491 54.7003 61.9057 49.7635L61.7173 49.6965ZM74.2205 56.38C67.589 56.38 63.1005 51.0882 63.1005 45.5H62.9005C62.9005 51.1918 67.4719 56.58 74.2205 56.58V56.38ZM63.1005 45.5C63.1005 39.0806 68.4501 34.62 74.0105 34.62V34.42C68.3508 34.42 62.9005 38.9594 62.9005 45.5H63.1005ZM74.0105 34.62C80.4592 34.62 84.8605 39.9989 84.8605 45.53H85.0605C85.0605 39.9011 80.5818 34.42 74.0105 34.42V34.62ZM84.8605 45.53C84.8605 51.9219 79.7182 56.38 74.2205 56.38V56.58C79.8228 56.58 85.0605 52.0381 85.0605 45.53H84.8605ZM65.5705 43.52C65.5705 46.2868 66.5825 49.4267 68.3037 51.8762C70.0244 54.3253 72.4662 56.1 75.3305 56.1V55.9C72.5548 55.9 70.1666 54.1797 68.4673 51.7613C66.7684 49.3433 65.7705 46.2432 65.7705 43.52H65.5705ZM75.3305 56.1C77.462 56.1 79.2377 55.1778 80.4784 53.6365C81.7178 52.0967 82.4205 49.9433 82.4205 47.48H82.2205C82.2205 49.9067 81.5282 52.0133 80.3226 53.511C79.1183 55.0072 77.399 55.9 75.3305 55.9V56.1ZM82.4205 47.48C82.4205 44.7287 81.4312 41.5888 79.7175 39.1352C78.0039 36.6819 75.5545 34.9 72.6305 34.9V35.1C75.4664 35.1 77.8621 36.8281 79.5535 39.2498C81.2448 41.6712 82.2205 44.7713 82.2205 47.48H82.4205ZM72.6305 34.9C68.5974 34.9 65.5705 38.6245 65.5705 43.52H65.7705C65.7705 38.6955 68.7436 35.1 72.6305 35.1V34.9ZM100.409 56.48L100.327 56.5369L100.357 56.58H100.409V56.48ZM87.8391 38.3L87.9213 38.2431L87.7391 37.9795V38.3H87.8391ZM89.2491 56V56.1H89.4341L89.3328 55.9452L89.2491 56ZM86.1291 56L86.0457 55.9449L85.9432 56.1H86.1291V56ZM87.5391 37.85H87.6391V37.8187L87.6212 37.7929L87.5391 37.85ZM85.5591 35V34.9H85.3678L85.477 35.0571L85.5591 35ZM88.7691 35L88.8513 34.9431L88.8215 34.9H88.7691V35ZM100.259 51.62L100.177 51.6769L100.358 51.9392L100.359 51.6203L100.259 51.62ZM100.289 40.85L100.389 40.8503V40.85H100.289ZM98.8791 35V34.9H98.6932L98.7957 35.0551L98.8791 35ZM101.999 35L102.083 35.0548L102.184 34.9H101.999V35ZM100.589 40.85L100.689 40.8502V40.85H100.589ZM100.559 56.48V56.58H100.659L100.659 56.4802L100.559 56.48ZM100.491 56.4231L87.9213 38.2431L87.7568 38.3569L100.327 56.5369L100.491 56.4231ZM87.7391 38.3V50.12H87.9391V38.3H87.7391ZM87.7391 50.12C87.7391 52.6495 88.0704 54.3818 89.1654 56.0548L89.3328 55.9452C88.2678 54.3182 87.9391 52.6305 87.9391 50.12H87.7391ZM89.2491 55.9H86.1291V56.1H89.2491V55.9ZM86.2125 56.0551C87.338 54.3516 87.6391 52.6488 87.6391 50.12H87.4391C87.4391 52.6312 87.1401 54.2884 86.0457 55.9449L86.2125 56.0551ZM87.6391 50.12V37.85H87.4391V50.12H87.6391ZM87.6212 37.7929L85.6412 34.9429L85.477 35.0571L87.457 37.9071L87.6212 37.7929ZM85.5591 35.1H88.7691V34.9H85.5591V35.1ZM88.6868 35.0569L100.177 51.6769L100.341 51.5631L88.8513 34.9431L88.6868 35.0569ZM100.359 51.6203L100.389 40.8503L100.189 40.8497L100.159 51.6197L100.359 51.6203ZM100.389 40.85C100.389 38.3209 100.088 36.6482 98.9625 34.9449L98.7957 35.0551C99.8902 36.7118 100.189 38.3391 100.189 40.85H100.389ZM98.8791 35.1H101.999V34.9H98.8791V35.1ZM101.915 34.9452C100.82 36.618 100.489 38.3202 100.489 40.85H100.689C100.689 38.3398 101.018 36.682 102.083 35.0548L101.915 34.9452ZM100.489 40.8498L100.459 56.4798L100.659 56.4802L100.689 40.8502L100.489 40.8498ZM100.559 56.38H100.409V56.58H100.559V56.38ZM117.899 56.48L117.817 56.5369L117.847 56.58H117.899V56.48ZM105.329 38.3L105.412 38.2431L105.229 37.9795V38.3H105.329ZM106.739 56V56.1H106.924L106.823 55.9452L106.739 56ZM103.619 56L103.536 55.9449L103.433 56.1H103.619V56ZM105.029 37.85H105.129V37.8187L105.111 37.7929L105.029 37.85ZM103.049 35V34.9H102.858L102.967 35.0571L103.049 35ZM106.259 35L106.342 34.9431L106.312 34.9H106.259V35ZM117.749 51.62L117.667 51.6769L117.848 51.9392L117.849 51.6203L117.749 51.62ZM117.779 40.85L117.879 40.8503V40.85H117.779ZM116.369 35V34.9H116.183L116.286 35.0551L116.369 35ZM119.489 35L119.573 35.0548L119.674 34.9H119.489V35ZM118.079 40.85L118.179 40.8502V40.85H118.079ZM118.049 56.48V56.58H118.149L118.149 56.4802L118.049 56.48ZM117.982 56.4231L105.412 38.2431L105.247 38.3569L117.817 56.5369L117.982 56.4231ZM105.229 38.3V50.12H105.429V38.3H105.229ZM105.229 50.12C105.229 52.6495 105.561 54.3818 106.656 56.0548L106.823 55.9452C105.758 54.3182 105.429 52.6305 105.429 50.12H105.229ZM106.739 55.9H103.619V56.1H106.739V55.9ZM103.703 56.0551C104.828 54.3516 105.129 52.6488 105.129 50.12H104.929C104.929 52.6312 104.63 54.2884 103.536 55.9449L103.703 56.0551ZM105.129 50.12V37.85H104.929V50.12H105.129ZM105.111 37.7929L103.131 34.9429L102.967 35.0571L104.947 37.9071L105.111 37.7929ZM103.049 35.1H106.259V34.9H103.049V35.1ZM106.177 35.0569L117.667 51.6769L117.832 51.5631L106.342 34.9431L106.177 35.0569ZM117.849 51.6203L117.879 40.8503L117.679 40.8497L117.649 51.6197L117.849 51.6203ZM117.879 40.85C117.879 38.3209 117.578 36.6482 116.453 34.9449L116.286 35.0551C117.38 36.7118 117.679 38.3391 117.679 40.85H117.879ZM116.369 35.1H119.489V34.9H116.369V35.1ZM119.406 34.9452C118.311 36.618 117.979 38.3202 117.979 40.85H118.179C118.179 38.3398 118.508 36.682 119.573 35.0548L119.406 34.9452ZM117.979 40.8498L117.949 56.4798L118.149 56.4802L118.179 40.8502L117.979 40.8498ZM118.049 56.38H117.899V56.58H118.049V56.38ZM121.44 56L121.356 55.9449L121.254 56.1H121.44V56ZM121.44 35V34.9H121.254L121.356 35.0551L121.44 35ZM126.57 35L126.653 35.0555L126.756 34.9H126.57V35ZM126.57 56V56.1H126.755L126.653 55.9449L126.57 56ZM121.523 56.0551C122.65 54.3489 122.8 52.7328 122.8 50.21H122.6C122.6 52.7272 122.449 54.2911 121.356 55.9449L121.523 56.0551ZM122.8 50.21V40.79H122.6V50.21H122.8ZM122.8 40.79C122.8 38.2672 122.65 36.6511 121.523 34.9449L121.356 35.0551C122.449 36.7089 122.6 38.2728 122.6 40.79H122.8ZM121.44 35.1H126.57V34.9H121.44V35.1ZM126.486 34.9445C125.389 36.5907 125.21 38.1766 125.21 40.79H125.41C125.41 38.1834 125.59 36.6493 126.653 35.0555L126.486 34.9445ZM125.21 40.79V50.21H125.41V40.79H125.21ZM125.21 50.21C125.21 52.7328 125.359 54.3489 126.486 56.0551L126.653 55.9449C125.56 54.2911 125.41 52.7272 125.41 50.21H125.21ZM126.57 55.9H121.44V56.1H126.57V55.9ZM128.519 56L128.435 55.9449L128.333 56.1H128.519V56ZM128.519 35V34.9H128.333L128.435 35.0551L128.519 35ZM142.379 35H142.479V34.9H142.379V35ZM142.379 39.17V39.27H142.479V39.17H142.379ZM142.289 39.17L142.197 39.2086L142.222 39.27H142.289V39.17ZM140.189 44.42H140.289V44.285L140.16 44.3243L140.189 44.42ZM140.189 46.94L140.178 47.0394L140.289 47.0511V46.94H140.189ZM132.389 41.33L132.485 41.3032L132.289 41.33H132.389ZM132.389 55.7H132.289V55.8H132.389V55.7ZM143.129 51.47V51.37H143.06L143.036 51.4338L143.129 51.47ZM143.219 51.47H143.319V51.37H143.219V51.47ZM143.219 56V56.1H143.319V56H143.219ZM128.602 56.0551C129.73 54.3489 129.879 52.7328 129.879 50.21H129.679C129.679 52.7272 129.528 54.2911 128.435 55.9449L128.602 56.0551ZM129.879 50.21V40.79H129.679V50.21H129.879ZM129.879 40.79C129.879 38.2672 129.73 36.6511 128.602 34.9449L128.435 35.0551C129.528 36.7089 129.679 38.2728 129.679 40.79H129.879ZM128.519 35.1H142.379V34.9H128.519V35.1ZM142.279 35V39.17H142.479V35H142.279ZM142.379 39.07H142.289V39.27H142.379V39.07ZM142.381 39.1314C141.84 37.8385 140.376 35.14 137.219 35.14V35.34C140.241 35.34 141.658 37.9215 142.197 39.2086L142.381 39.1314ZM137.219 35.14C135.261 35.14 134.023 35.771 133.276 36.649C132.533 37.5238 132.289 38.6296 132.289 39.56H132.489C132.489 38.6604 132.725 37.6062 133.429 36.7785C134.13 35.954 135.307 35.34 137.219 35.34V35.14ZM132.289 39.56C132.289 41.3889 132.999 42.7084 134.082 43.5683C135.161 44.4257 136.602 44.82 138.059 44.82V44.62C136.635 44.62 135.242 44.2343 134.206 43.4117C133.174 42.5916 132.489 41.3311 132.489 39.56H132.289ZM138.059 44.82C138.787 44.82 139.517 44.729 140.218 44.5157L140.16 44.3243C139.481 44.531 138.771 44.62 138.059 44.62V44.82ZM140.089 44.42V46.94H140.289V44.42H140.089ZM140.199 46.8406C136.533 46.4531 133.37 44.4894 132.485 41.3032L132.293 41.3568C133.207 44.6506 136.465 46.6469 140.178 47.0394L140.199 46.8406ZM132.289 41.33V55.7H132.489V41.33H132.289ZM132.389 55.8H132.449V55.6H132.389V55.8ZM132.449 55.8C136.207 55.8 138.699 55.244 140.353 54.4284C142.01 53.6113 142.823 52.5349 143.222 51.5062L143.036 51.4338C142.655 52.4151 141.878 53.4537 140.265 54.2491C138.648 55.046 136.19 55.6 132.449 55.6V55.8ZM143.129 51.57H143.219V51.37H143.129V51.57ZM143.119 51.47V56H143.319V51.47H143.119ZM143.219 55.9H128.519V56.1H143.219V55.9Z" fill="black" mask="url(#path-2-outside-1_234_67)"/>
</g>
<defs>
<filter id="filter0_d_234_67" x="0.291504" y="-2.47998" width="183.927" height="103.96" filterUnits="userSpaceOnUse" color-interpolation-filters="sRGB">
<feFlood flood-opacity="0" result="BackgroundImageFix"/>
<feColorMatrix in="SourceAlpha" type="matrix" values="0 0 0 0 0 0 0 0 0 0 0 0 0 0 0 0 0 0 127 0" result="hardAlpha"/>
<feOffset dy="4"/>
<feGaussianBlur stdDeviation="20.5"/>
<feComposite in2="hardAlpha" operator="out"/>
<feColorMatrix type="matrix" values="0 0 0 0 0 0 0 0 0 0 0 0 0 0 0 0 0 0 0.34 0"/>
<feBlend mode="normal" in2="BackgroundImageFix" result="effect1_dropShadow_234_67"/>
<feBlend mode="normal" in="SourceGraphic" in2="effect1_dropShadow_234_67" result="shape"/>
</filter>
</defs>
</svg>
