<svg width="286" height="123" viewBox="0 0 286 123" fill="none" xmlns="http://www.w3.org/2000/svg">
<g filter="url(#filter0_d_494_436)">
<path d="M77.9548 77.3C76.0348 77.3 74.1348 76.78 72.2548 75.74C70.3748 74.66 68.8748 72.58 67.7548 69.5L66.2548 65.6H49.4548L44.6548 77H41.9548L58.7548 37.4H60.5548L73.7548 69.5C74.7548 71.82 75.6948 73.42 76.5748 74.3C77.4548 75.14 78.7148 75.64 80.3548 75.8V77C79.6348 77.2 78.8348 77.3 77.9548 77.3ZM65.0548 63.2L57.8548 45.8L50.3548 63.2H65.0548ZM96.5407 77.6C94.5007 77.6 92.8207 77.28 91.5007 76.64C90.1807 76 89.1607 75.22 88.4407 74.3H88.1407L86.0407 77H83.0407V44.6C83.0407 42.56 82.7607 41.06 82.2007 40.1C81.6407 39.1 80.5207 38.6 78.8407 38.6H77.6407V37.4H83.0407C84.5207 37.4 85.6207 37.6 86.3407 38C87.1007 38.36 87.6407 39.04 87.9607 40.04C88.2807 41.04 88.4407 42.56 88.4407 44.6V50C89.6007 49.44 90.7607 49 91.9207 48.68C93.0807 48.36 94.4207 48.2 95.9407 48.2C99.6607 48.2 102.481 49.58 104.401 52.34C106.361 55.1 107.341 58.62 107.341 62.9C107.341 67.14 106.401 70.66 104.521 73.46C102.641 76.22 99.9807 77.6 96.5407 77.6ZM94.7407 75.2C97.0207 75.2 98.7407 74.08 99.9007 71.84C101.061 69.56 101.641 66.58 101.641 62.9C101.641 59.18 101.021 56.2 99.7807 53.96C98.5807 51.72 96.7007 50.6 94.1407 50.6C93.3007 50.6 92.4407 50.76 91.5607 51.08C90.6807 51.4 89.6407 51.84 88.4407 52.4V71.6C89.1607 72.68 90.0007 73.56 90.9607 74.24C91.9607 74.88 93.2207 75.2 94.7407 75.2ZM126.027 77.6C123.307 77.6 120.947 76.96 118.947 75.68C116.947 74.36 115.427 72.58 114.387 70.34C113.347 68.1 112.827 65.62 112.827 62.9C112.827 60.18 113.347 57.7 114.387 55.46C115.427 53.22 116.947 51.46 118.947 50.18C120.947 48.86 123.307 48.2 126.027 48.2C128.747 48.2 131.107 48.86 133.107 50.18C135.107 51.46 136.627 53.22 137.667 55.46C138.707 57.7 139.227 60.18 139.227 62.9C139.227 65.62 138.707 68.1 137.667 70.34C136.627 72.58 135.107 74.36 133.107 75.68C131.107 76.96 128.747 77.6 126.027 77.6ZM126.027 75.2C127.507 75.2 128.807 74.66 129.927 73.58C131.087 72.5 131.967 71.02 132.567 69.14C133.207 67.26 133.527 65.18 133.527 62.9C133.527 60.62 133.207 58.54 132.567 56.66C131.967 54.78 131.087 53.3 129.927 52.22C128.807 51.14 127.507 50.6 126.027 50.6C124.547 50.6 123.227 51.14 122.067 52.22C120.947 53.3 120.067 54.78 119.427 56.66C118.827 58.54 118.527 60.62 118.527 62.9C118.527 65.18 118.827 67.26 119.427 69.14C120.067 71.02 120.947 72.5 122.067 73.58C123.227 74.66 124.547 75.2 126.027 75.2ZM156.523 77.6C153.523 77.6 151.063 76.8 149.143 75.2C147.263 73.6 146.323 70.8 146.323 66.8V56C146.323 53.96 146.043 52.46 145.483 51.5C144.923 50.5 143.803 50 142.123 50H141.523V48.8H146.323C147.803 48.8 148.903 49 149.623 49.4C150.383 49.76 150.923 50.44 151.243 51.44C151.563 52.44 151.723 53.96 151.723 56V66.8C151.723 69.6 152.343 71.66 153.583 72.98C154.863 74.26 156.443 74.9 158.323 74.9C160.443 74.9 162.443 73.84 164.323 71.72V48.8H169.723V77H166.723L164.623 74.6H164.323C163.483 75.44 162.383 76.16 161.023 76.76C159.703 77.32 158.203 77.6 156.523 77.6ZM186.713 77.6C184.473 77.6 182.713 76.96 181.433 75.68C180.153 74.4 179.513 72.44 179.513 69.8V51.2H175.313V48.8H179.513V43.4L182.513 39.8H184.913V48.8H192.113V51.2H184.913V69.8C184.913 73.4 186.313 75.2 189.113 75.2C190.073 75.2 190.873 75.1 191.513 74.9C192.193 74.7 192.893 74.4 193.613 74L194.213 75.2C193.293 75.88 192.273 76.46 191.153 76.94C190.033 77.38 188.553 77.6 186.713 77.6ZM216.826 45.2C215.906 45.2 215.106 44.82 214.426 44.06C213.786 43.3 213.466 42.4 213.466 41.36C213.466 40.52 213.706 39.86 214.186 39.38C214.706 38.9 215.386 38.66 216.226 38.66C217.146 38.66 217.926 39.04 218.566 39.8C219.246 40.56 219.586 41.46 219.586 42.5C219.586 43.34 219.326 44 218.806 44.48C218.326 44.96 217.666 45.2 216.826 45.2ZM214.546 56C214.546 53.96 214.266 52.46 213.706 51.5C213.146 50.5 212.026 50 210.346 50H209.146V48.8H214.546C216.026 48.8 217.126 49 217.846 49.4C218.606 49.76 219.146 50.44 219.466 51.44C219.786 52.44 219.946 53.96 219.946 56V77H214.546V56ZM236.752 77.6C234.512 77.6 232.752 76.96 231.472 75.68C230.192 74.4 229.552 72.44 229.552 69.8V51.2H225.352V48.8H229.552V43.4L232.552 39.8H234.952V48.8H242.152V51.2H234.952V69.8C234.952 73.4 236.352 75.2 239.152 75.2C240.112 75.2 240.912 75.1 241.552 74.9C242.232 74.7 242.932 74.4 243.652 74L244.252 75.2C243.332 75.88 242.312 76.46 241.192 76.94C240.072 77.38 238.592 77.6 236.752 77.6Z" fill="#CCF3FF"/>
</g>
<defs>
<filter id="filter0_d_494_436" x="0.953125" y="0.400391" width="284.297" height="122.199" filterUnits="userSpaceOnUse" color-interpolation-filters="sRGB">
<feFlood flood-opacity="0" result="BackgroundImageFix"/>
<feColorMatrix in="SourceAlpha" type="matrix" values="0 0 0 0 0 0 0 0 0 0 0 0 0 0 0 0 0 0 127 0" result="hardAlpha"/>
<feOffset dy="4"/>
<feGaussianBlur stdDeviation="20.5"/>
<feComposite in2="hardAlpha" operator="out"/>
<feColorMatrix type="matrix" values="0 0 0 0 0 0 0 0 0 0 0 0 0 0 0 0 0 0 0.34 0"/>
<feBlend mode="normal" in2="BackgroundImageFix" result="effect1_dropShadow_494_436"/>
<feBlend mode="normal" in="SourceGraphic" in2="effect1_dropShadow_494_436" result="shape"/>
</filter>
</defs>
</svg>
