<svg width="1740" height="9228" viewBox="0 0 1740 9228" fill="none" xmlns="http://www.w3.org/2000/svg">
<path d="M-6.21094 1H1735.36" stroke="white" stroke-opacity="0.2" stroke-width="2"/>
<path d="M-6.21094 4627H1735.36" stroke="white" stroke-opacity="0.2" stroke-width="2"/>
<path d="M-6.21094 4742H1735.36" stroke="white" stroke-opacity="0.2" stroke-width="2"/>
<path d="M-6.21094 4833H1735.36" stroke="white" stroke-opacity="0.2" stroke-width="2"/>
<path d="M-6.21094 4929H1735.36" stroke="white" stroke-opacity="0.2" stroke-width="2"/>
<path d="M-0.839844 2493H1740.73" stroke="white" stroke-opacity="0.2" stroke-width="2"/>
<path d="M-0.839844 2574H1740.73" stroke="white" stroke-opacity="0.2" stroke-width="2"/>
<path d="M-0.839844 2684H1740.73" stroke="white" stroke-opacity="0.2" stroke-width="2"/>
<path d="M-0.839844 3160H1740.73" stroke="white" stroke-opacity="0.2" stroke-width="2"/>
<path d="M-0.839844 3508H1740.73" stroke="white" stroke-opacity="0.2" stroke-width="2"/>
<path d="M0.0585938 3616H1741.62" stroke="white" stroke-opacity="0.2" stroke-width="2"/>
<path d="M0.0585938 3951H1741.62" stroke="white" stroke-opacity="0.2" stroke-width="2"/>
<path d="M-5.31641 9227H1736.25" stroke="white" stroke-opacity="0.2" stroke-width="2"/>
<path d="M-5.31641 8805H1736.25" stroke="white" stroke-opacity="0.2" stroke-width="2"/>
<path d="M-8 8560H1733.57" stroke="white" stroke-opacity="0.2" stroke-width="2"/>
<path d="M-8 8123H1733.57" stroke="white" stroke-opacity="0.2" stroke-width="2"/>
<path d="M-5.31641 7627H1736.25" stroke="white" stroke-opacity="0.2" stroke-width="2"/>
<path d="M-5.31641 7455H1736.25" stroke="white" stroke-opacity="0.2" stroke-width="2"/>
<path d="M2.74609 7003H1744.31" stroke="white" stroke-opacity="0.2" stroke-width="2"/>
<path d="M5.43359 6456H1747" stroke="white" stroke-opacity="0.2" stroke-width="2"/>
<path d="M5.43359 6239H1747" stroke="white" stroke-opacity="0.2" stroke-width="2"/>
<path d="M5.43359 6068H1747" stroke="white" stroke-opacity="0.2" stroke-width="2"/>
<path d="M5.43359 5810H1747" stroke="white" stroke-opacity="0.2" stroke-width="2"/>
<path d="M-6.21094 90H1735.36" stroke="white" stroke-opacity="0.2" stroke-width="2"/>
<path d="M-6.21094 564H1735.36" stroke="white" stroke-opacity="0.2" stroke-width="2"/>
<path d="M-6.21094 659H1735.36" stroke="white" stroke-opacity="0.2" stroke-width="2"/>
<path d="M-6.21094 766H1735.36" stroke="white" stroke-opacity="0.2" stroke-width="2"/>
<path d="M-6.21094 1003H1735.36" stroke="white" stroke-opacity="0.2" stroke-width="2"/>
<path d="M-6.21094 1295H1735.36" stroke="white" stroke-opacity="0.2" stroke-width="2"/>
<path d="M-6.21094 1395H1735.36" stroke="white" stroke-opacity="0.2" stroke-width="2"/>
<path d="M-6.21094 1578H1735.36" stroke="white" stroke-opacity="0.2" stroke-width="2"/>
<path d="M0.0585938 1882H1741.62" stroke="white" stroke-opacity="0.2" stroke-width="2"/>
<path d="M0.0585938 1963H1741.62" stroke="white" stroke-opacity="0.2" stroke-width="2"/>
<path d="M-0.839844 2076H1740.73" stroke="white" stroke-opacity="0.2" stroke-width="2"/>
<path d="M-0.839844 2383H1740.73" stroke="white" stroke-opacity="0.2" stroke-width="2"/>
<path d="M-6.21094 1H1735.36" stroke="white" stroke-opacity="0.2" stroke-width="2"/>
</svg>
