<svg width="1863" height="9858" viewBox="0 0 1863 9858" fill="none" xmlns="http://www.w3.org/2000/svg">
<g id="medusa">
<g id="LINEE SCENE">
<path id="Vector 279" d="M2 596H1850" stroke="white" stroke-opacity="0.2" stroke-width="2"/>
<path id="Vector 296" d="M2 5222H1850" stroke="white" stroke-opacity="0.2" stroke-width="2"/>
<path id="Vector 306" d="M2 5337H1850" stroke="white" stroke-opacity="0.2" stroke-width="2"/>
<path id="Vector 309" d="M2 5428H1850" stroke="white" stroke-opacity="0.2" stroke-width="2"/>
<path id="Vector 312" d="M2 5524H1850" stroke="white" stroke-opacity="0.2" stroke-width="2"/>
<path id="Vector 297" d="M8 3088H1856" stroke="white" stroke-opacity="0.2" stroke-width="2"/>
<path id="Vector 298" d="M8 3169H1856" stroke="white" stroke-opacity="0.2" stroke-width="2"/>
<path id="Vector 300" d="M8 3279H1856" stroke="white" stroke-opacity="0.2" stroke-width="2"/>
<path id="Vector 301" d="M8 3755H1856" stroke="white" stroke-opacity="0.2" stroke-width="2"/>
<path id="Vector 303" d="M8 4103H1856" stroke="white" stroke-opacity="0.2" stroke-width="2"/>
<path id="Vector 305" d="M9 4211H1857" stroke="white" stroke-opacity="0.2" stroke-width="2"/>
<path id="Vector 308" d="M9 4546H1857" stroke="white" stroke-opacity="0.2" stroke-width="2"/>
<path id="Vector 285" d="M3 9822H1851" stroke="white" stroke-opacity="0.2" stroke-width="2"/>
<path id="Vector 288" d="M3 9400H1851" stroke="white" stroke-opacity="0.2" stroke-width="2"/>
<path id="Vector 294" d="M0 9155H1848" stroke="white" stroke-opacity="0.2" stroke-width="2"/>
<path id="Vector 299" d="M0 8718H1848" stroke="white" stroke-opacity="0.2" stroke-width="2"/>
<path id="Vector 302" d="M3 8222H1851" stroke="white" stroke-opacity="0.2" stroke-width="2"/>
<path id="Vector 304" d="M3 8050H1851" stroke="white" stroke-opacity="0.2" stroke-width="2"/>
<path id="Vector 307" d="M12 7598H1860" stroke="white" stroke-opacity="0.2" stroke-width="2"/>
<path id="Vector 310" d="M15 7051H1863" stroke="white" stroke-opacity="0.2" stroke-width="2"/>
<path id="Vector 311" d="M15 6834H1863" stroke="white" stroke-opacity="0.2" stroke-width="2"/>
<path id="Vector 313" d="M15 6663H1863" stroke="white" stroke-opacity="0.2" stroke-width="2"/>
<path id="Vector 314" d="M15 6405H1863" stroke="white" stroke-opacity="0.2" stroke-width="2"/>
<path id="Vector 281" d="M2 685H1850" stroke="white" stroke-opacity="0.2" stroke-width="2"/>
<path id="Vector 282" d="M2 1159H1850" stroke="white" stroke-opacity="0.2" stroke-width="2"/>
<path id="Vector 283" d="M2 1254H1850" stroke="white" stroke-opacity="0.2" stroke-width="2"/>
<path id="Vector 284" d="M2 1361H1850" stroke="white" stroke-opacity="0.2" stroke-width="2"/>
<path id="Vector 286" d="M2 1598H1850" stroke="white" stroke-opacity="0.2" stroke-width="2"/>
<path id="Vector 287" d="M2 1890H1850" stroke="white" stroke-opacity="0.2" stroke-width="2"/>
<path id="Vector 289" d="M2 1990H1850" stroke="white" stroke-opacity="0.2" stroke-width="2"/>
<path id="Vector 290" d="M2 2173H1850" stroke="white" stroke-opacity="0.2" stroke-width="2"/>
<path id="Vector 291" d="M9 2477H1857" stroke="white" stroke-opacity="0.2" stroke-width="2"/>
<path id="Vector 292" d="M9 2558H1857" stroke="white" stroke-opacity="0.2" stroke-width="2"/>
<path id="Vector 293" d="M8 2671H1856" stroke="white" stroke-opacity="0.2" stroke-width="2"/>
<path id="Vector 295" d="M8 2978H1856" stroke="white" stroke-opacity="0.2" stroke-width="2"/>
<path id="Vector 280" d="M2 596H1850" stroke="white" stroke-opacity="0.2" stroke-width="2"/>
</g>
<g id="MAIN">
<g id="Vector 80">
<path d="M810.034 1088.31C811.86 709.399 780.055 120 780.055 120H1095.34C1095.34 120 1105.02 405.396 1107.83 588.572C1114.49 1021.39 1112.83 1395.84 1095.34 1697.14C1077.85 1998.44 1071.36 1944.42 1067.86 2321.56C1064.36 2698.7 1083.83 3067.57 1095.34 3545.46C1106.51 4008.89 1128.19 4267.96 1125.82 4731.95C1123.84 5118.98 1111.49 5335.44 1095.34 5721.04C1072.55 6265.33 988.414 7114.29 988.414 7114.29C988.414 7114.29 948.868 7605.46 932.951 7922.6C924.496 8091.07 918.376 8185.53 915.463 8354.81C913.3 8480.51 911.224 8551.42 915.463 8676.89C919.132 8785.48 930.071 8844.56 932.951 8953.25C935.045 9032.25 937.485 9077.29 932.951 9155.85C925.723 9281.08 909.484 9347.54 885.483 9463.38C853.533 9617.59 786.55 9848.84 780.055 9833.25C773.559 9817.67 815.031 9463.38 815.031 9463.38C815.031 9463.38 838.22 9325.74 842.512 9233.77C845.168 9176.88 844.258 9142.98 842.801 9088.72L842.512 9077.93C839.074 8948.38 827.746 8877.67 815.031 8750.65C807.854 8678.96 801.595 8639.75 795.045 8567.8C787.525 8485.2 785.245 8438.18 780.055 8354.81C756.918 7983.15 756.267 7767.11 755.162 7400.61L755.072 7370.91C753.734 6933.47 771.436 6689.04 780.055 6251.95C789.118 5792.35 797.539 5534.77 800.041 5074.81C803.725 4397.88 813.053 4015.3 780.055 3341.82C772.565 3188.96 757.57 2951.17 757.57 2951.17V2525.2C757.57 2418.18 780.055 1925.72 780.055 1925.72C780.055 1925.72 808.455 1416.23 810.034 1088.31Z" fill="url(#paint0_linear_615_419)" fill-opacity="0.8"/>
<path d="M810.034 1088.31C811.86 709.399 780.055 120 780.055 120H1095.34C1095.34 120 1105.02 405.396 1107.83 588.572C1114.49 1021.39 1112.83 1395.84 1095.34 1697.14C1077.85 1998.44 1071.36 1944.42 1067.86 2321.56C1064.36 2698.7 1083.83 3067.57 1095.34 3545.46C1106.51 4008.89 1128.19 4267.96 1125.82 4731.95C1123.84 5118.98 1111.49 5335.44 1095.34 5721.04C1072.55 6265.33 988.414 7114.29 988.414 7114.29C988.414 7114.29 948.868 7605.46 932.951 7922.6C924.496 8091.07 918.376 8185.53 915.463 8354.81C913.3 8480.51 911.224 8551.42 915.463 8676.89C919.132 8785.48 930.071 8844.56 932.951 8953.25C935.045 9032.25 937.485 9077.29 932.951 9155.85C925.723 9281.08 909.484 9347.54 885.483 9463.38C853.533 9617.59 786.55 9848.84 780.055 9833.25C773.559 9817.67 815.031 9463.38 815.031 9463.38C815.031 9463.38 838.22 9325.74 842.512 9233.77C845.168 9176.88 844.258 9142.98 842.801 9088.72L842.512 9077.93C839.074 8948.38 827.746 8877.67 815.031 8750.65C807.854 8678.96 801.595 8639.75 795.045 8567.8C787.525 8485.2 785.245 8438.18 780.055 8354.81C756.918 7983.15 756.267 7767.11 755.162 7400.61L755.072 7370.91C753.734 6933.47 771.436 6689.04 780.055 6251.95C789.118 5792.35 797.539 5534.77 800.041 5074.81C803.725 4397.88 813.053 4015.3 780.055 3341.82C772.565 3188.96 757.57 2951.17 757.57 2951.17V2525.2C757.57 2418.18 780.055 1925.72 780.055 1925.72C780.055 1925.72 808.455 1416.23 810.034 1088.31Z" fill="black" fill-opacity="0.2"/>
</g>
</g>
<g id="Vector 317" filter="url(#filter0_f_615_419)">
<path d="M645.57 135.244C691.989 85.9818 768.953 82.5506 801.633 86.9928C864.056 82.8364 935.02 76.3769 962.699 73.6667C1027.93 63.0059 1100.92 78.1088 1129.27 86.9928C1191.69 97.6537 1222.97 130.343 1230.81 145.355C1300.43 192.044 1247.81 229.144 1212.8 241.858C1175.18 251.049 1129.43 276.63 1111.26 288.271C1034.43 304.08 898.174 294.858 839.65 288.271C752.816 272.096 703.094 242.93 689.088 230.37C629.464 198.386 635.233 153.626 645.57 135.244Z" fill="white"/>
</g>
<g id="TIM">
<circle id="Ellipse 28" cx="1024" cy="8698" r="16" fill="white"/>
<path id="Tim" d="M900 180C900 202.059 900 281.591 889.438 368C879.171 451.99 858.925 542.478 819 593C692.387 753.22 613.872 828 583 1082.5C563.632 1242.16 536 1758 1005.5 1873C1154 1909.37 1181 1881.11 1326 1951C1471 2020.89 1580 2239.5 1380.5 2657.5C1318 2799 1304.1 2865.4 1336.5 3045C1345.34 3094 1395 3213 1261 3278.5C989.001 3433 450.999 3516.5 1047 3901L1406.5 4140C1492.5 4203 1500.5 4373.3 1162.5 4406.5C1109.5 4411.71 1040 4445.66 1040 4529C1040 4571.5 1046.5 4630.5 1261 4746C1370.5 4804.96 1366 4823 1136 4903C1088 4923.5 998.501 4968.5 1162.5 5020.5C1214.67 5043.5 1454 5128.5 1226 5525.5C1210.33 5573.33 1162.5 5626 1300.5 5691C1339.5 5709.37 1474.5 5758 1300.5 5849.5C1229.67 5875.67 1142.5 5987 1280 6029C1417.5 6071 1544 6201 1226 6398C1185.67 6432 998.201 6517.5 1195 6635.5C1257.5 6672.97 1348 6723 1020.5 6820C968 6832 888.2 6867.2 989 6912C1055.5 6937.33 1145.2 6995.2 972 7024C651 7136 863.5 7370.5 989 7588C1057.38 7706.5 972 7676.5 849.5 7694C731.62 7710.84 712 7775.35 832 7796.5C1101.5 7844 1174.4 7977.7 896 8036.5C739 8069.66 716.4 8154.9 972 8214.5C1028.83 8234.33 1086.7 8274.5 863.5 8276.5C786.667 8285.17 694.9 8318.3 942.5 8381.5C1032.83 8399.33 1153.7 8446.8 914.5 8494C743.5 8527.74 653.6 8620.5 1022 8698.5" stroke="white" stroke-width="30"/>
</g>
<path id="tentacolobianco" d="M1022 8698.5C653.6 8620.5 743.5 8527.74 914.5 8494C1153.7 8446.8 1032.83 8399.33 942.5 8381.5C694.9 8318.3 786.667 8285.17 863.5 8276.5C1086.7 8274.5 1028.83 8234.33 972 8214.5C716.4 8154.9 739 8069.66 896 8036.5C1174.4 7977.7 1101.5 7844 832 7796.5C712 7775.35 731.62 7710.84 849.5 7694C972 7676.5 1057.38 7706.5 989 7588C863.5 7370.5 651 7136 972 7024C1145.2 6995.2 1055.5 6937.33 989 6912C888.2 6867.2 968 6832 1020.5 6820C1348 6723 1257.5 6672.97 1195 6635.5C998.201 6517.5 1185.67 6432 1226 6398C1544 6201 1417.5 6071 1280 6029C1142.5 5987 1229.67 5875.67 1300.5 5849.5C1474.5 5758 1339.5 5709.37 1300.5 5691C1162.5 5626 1210.33 5573.33 1226 5525.5C1454 5128.5 1214.67 5043.5 1162.5 5020.5C998.501 4968.5 1088 4923.5 1136 4903C1366 4823 1370.5 4804.96 1261 4746C1046.5 4630.5 1040 4571.5 1040 4529C1040 4445.66 1109.5 4411.71 1162.5 4406.5C1500.5 4373.3 1492.5 4203 1406.5 4140L1047 3901C450.999 3516.5 989.001 3433 1261 3278.5C1395 3213 1345.34 3094 1336.5 3045C1304.1 2865.4 1318 2799 1380.5 2657.5C1580 2239.5 1471 2020.89 1326 1951C1181 1881.11 1154 1909.37 1005.5 1873C536 1758 563.632 1242.16 583 1082.5C613.872 828 692.387 753.22 819 593C858.925 542.478 879.171 451.99 889.438 368" stroke="white" stroke-width="30"/>
<g id="EMILY">
<path id="Vector 241" d="M1264.5 5210C1289 5248 1331 5380.5 1338 5551" stroke="#FD9CED" stroke-opacity="0.2" stroke-width="30"/>
<path id="Vector 238" d="M1478 1354.5C1477 1399.5 1511.5 1513.3 1657.5 1608.5C1747.5 1667.17 1729.4 1823.2 1377 1978C1362.67 1984 1340.3 2006.8 1365.5 2050" stroke="#FD9CED" stroke-opacity="0.2" stroke-width="30"/>
<path id="Vector 240" d="M1202.5 4052C1136.83 4096.17 1137.5 4243.5 1296.5 4557" stroke="#FD9CED" stroke-opacity="0.2" stroke-width="30"/>
<path id="Vector 237" d="M1004.5 240C1004.5 539.5 1063.5 633.5 1414.49 633.5C1650.95 633.5 1604.5 1079 1503 1263.5" stroke="#FD9CED" stroke-opacity="0.2" stroke-width="30"/>
<path id="Vector 242" d="M1316 6663C1316 6497.22 1559.81 6531.78 1547 6400" stroke="#FD9CED" stroke-opacity="0.2" stroke-width="30"/>
<path id="Vector 239" d="M1496.5 2462.5C1778.5 2621.5 1895 3126.5 1268.5 3336" stroke="#FD9CED" stroke-opacity="0.2" stroke-width="30"/>
<path id="Vector 243" d="M981 7067C1275 7175.5 1672 7061.5 1672 7660.5C1672 7897.5 1690.8 8227.4 1642 8355C1626.5 8394.17 1572.5 8497 1493.5 8551.5C1393 8620.83 1390.5 8619.5 1177.5 8727.5" stroke="#FD9CED" stroke-opacity="0.2" stroke-width="30"/>
<g id="Emily1">
<path id="Vector 244" d="M1478 1354.5C1478.5 1330.5 1479.13 1320.97 1484.51 1305" stroke="url(#paint1_linear_615_419)" stroke-width="30"/>
<path id="Vector 245" d="M1503 1263.5C1493.59 1280.63 1489.53 1290.11 1484.52 1305" stroke="url(#paint2_linear_615_419)" stroke-width="30"/>
</g>
<g id="Emily2">
<path id="Vector 244_2" d="M1524 2198C1498.17 2262.11 1269.5 2334.5 1496.5 2462.5" stroke="url(#paint3_linear_615_419)" stroke-width="30"/>
<path id="Vector 245_2" d="M1523.83 2198.39C1562 2103.63 1423.5 2150 1365.5 2050" stroke="url(#paint4_linear_615_419)" stroke-width="30"/>
</g>
<g id="Emily3">
<path id="Vector 244_3" d="M802.496 3379C743.496 3479 1196.49 3537 784.996 3617.5C549.496 3698 784.994 3861.64 1141.99 3824.5C1273.98 3810.77 1382.66 3853.14 1264.83 3989" stroke="#FD9CED" stroke-width="30"/>
<path id="Vector 245_3" d="M1268.5 3336C1005 3423.5 857.06 3286.53 802.5 3379" stroke="url(#paint5_linear_615_419)" stroke-width="30"/>
<path id="Vector 246" d="M1202.5 4052C1234 4030.5 1247.29 4009.22 1264.83 3989" stroke="url(#paint6_linear_615_419)" stroke-width="30"/>
</g>
<g id="Emily4">
<path id="Vector 244_4" d="M1309.85 4609.5C1308.12 4663.17 1248.03 4696.51 1112.3 4744.5C1052.8 4773.67 1012.2 4852 1325.8 4932C1404.13 4955.33 1507.7 5027.2 1295.3 5128C1283.31 5134.78 1266.38 5148.89 1259.5 5167.2" stroke="#FD9CED" stroke-width="30"/>
<path id="Vector 245_4" d="M1296.5 4557C1308 4579.5 1310.38 4592.94 1309.85 4609.5" stroke="url(#paint7_linear_615_419)" stroke-width="30"/>
<path id="Vector 246_2" d="M1264.5 5210C1254.49 5194.5 1254.7 5179.95 1259.49 5167.2" stroke="url(#paint8_linear_615_419)" stroke-width="30"/>
</g>
<g id="Emily5">
<path id="Vector 244_5" d="M1338 5551C1339.68 5587.43 1343.32 5617.55 1340.45 5647" stroke="url(#paint9_linear_615_419)" stroke-width="30"/>
<path id="Vector 245_5" d="M1340.45 5647C1336.86 5683.84 1323.08 5719.64 1282.5 5765.5C1200 5867.5 1348.5 5901 1324 6050C1296.5 6135.5 1301.84 6241 1460.5 6241C1542.01 6241 1559.72 6275.43 1559.33 6316" stroke="#FD9CED" stroke-width="30"/>
<path id="Vector 246_3" d="M1547 6400C1544.5 6373 1559.01 6348.6 1559.33 6316" stroke="url(#paint10_linear_615_419)" stroke-width="30"/>
</g>
<g id="Emily6">
<path id="Vector 244_6" d="M1316 6663C1316 6691.91 1309.51 6709.08 1299 6719.37" stroke="url(#paint11_linear_615_419)" stroke-width="30"/>
<path id="Vector 245_6" d="M981 7067C938 7051 905.5 7038 884.5 7027" stroke="url(#paint12_linear_615_419)" stroke-width="30"/>
<path id="Vector 246_4" d="M1299 6719.37C1257.16 6760.31 1151.56 6684.35 1137.5 6735.5C1126.5 6775.5 1133.5 6871 1122.5 6896C1111.5 6921 1085.94 6947.64 1049 6963.5C1008.03 6981.1 987.001 6974.5 926 6975C877.106 6975.4 799 6982.15 884.5 7027" stroke="#FD9CED" stroke-width="30"/>
</g>
<g id="Emily7">
<path id="Vector 244_7" d="M848.501 9827.5C808.901 9649.9 979.668 9503.17 1070 9452C1328.5 9293.5 1180.17 9177.67 1124 9160.5C938.003 9109.3 928.438 8994.42 931.003 8941C935.175 8854.11 973.655 8819.16 1053.5 8781.07" stroke="#FD9CED" stroke-width="30"/>
<path id="Vector 245_7" d="M1177.5 8727.5C1126.5 8753.5 1088.51 8764.37 1053.5 8781.07" stroke="url(#paint13_linear_615_419)" stroke-width="30"/>
</g>
<circle id="Ellipse 27" cx="849" cy="9827" r="16" fill="#FD9CED"/>
</g>
<path id="true-emily" d="M852.5 9833.5C838.735 9776.09 840.483 9738.39 859.5 9682.5C884 9610.5 921.959 9581.63 973 9526C1045.02 9447.51 1157.5 9411 1187.5 9357.5C1217.5 9304 1220.36 9273.12 1202 9224C1183.5 9174.5 1136 9173.5 1084 9151C990.619 9110.59 938.743 9059.17 932.5 8966C929.418 8920 932.916 8873.72 969 8834.5C1015 8784.5 1098.82 8767.46 1182 8724.5C1281.78 8672.96 1341 8663 1437.5 8592.5C1512.7 8537.56 1579.5 8495.5 1625.5 8396.5C1661.36 8319.33 1670.92 8261.33 1674 8171.5C1679.5 8011 1678.76 7919.41 1674 7758C1671.09 7659.32 1681.5 7606.5 1662 7505.5C1642.5 7404.5 1644.43 7404.72 1613.5 7348.5C1567.63 7265.13 1510.5 7210.5 1437.5 7180C1364.5 7149.5 1313.7 7143.97 1231 7123.5C1135.65 7099.9 1074.3 7099.69 981.5 7067.5C934.157 7051.08 885 7030.5 862.5 7019.5C840 7008.5 849 6994.5 848 6990C847 6985.5 878 6979.15 889.5 6977.88C901 6976.6 948 6980.38 973.5 6977.88C999 6975.38 1017.75 6977.5 1020.5 6973C1082.13 6958.64 1102.14 6940.37 1121 6896C1139.86 6851.63 1131.5 6783.5 1132.5 6769.5C1133.5 6755.5 1132 6715.5 1166 6717.5C1200 6719.5 1212.5 6730 1245 6731C1277.5 6732 1300.5 6718.5 1305.5 6712.5C1310.5 6706.5 1311.5 6713.5 1316.5 6663.5C1321.5 6613.5 1331.5 6595 1371 6557.5C1410.5 6520 1473.96 6528.15 1513 6478C1531.61 6454.09 1541 6449 1548.5 6409C1556 6369 1563 6317.5 1557 6295C1551 6272.5 1524.5 6254 1507 6247C1489.5 6240 1442 6247 1414 6240C1386 6233 1359 6225.5 1337.5 6204C1316 6182.5 1313 6135.5 1313 6119C1313 6102.5 1322 6067.5 1324.5 6044.5C1327 6021.5 1325.56 6001.62 1320 5975C1310.27 5928.41 1283 5904 1262 5869C1241 5834 1278.5 5774 1282.5 5767C1286.5 5760 1325.5 5729 1333 5685.5C1340.5 5642 1352 5656.5 1340.5 5547.5C1329 5438.5 1330.5 5371 1287 5261C1243.5 5151 1252.5 5184.5 1260.5 5164C1268.5 5143.5 1267 5148.1 1302 5124C1337 5099.9 1382.5 5077.5 1395 5066C1407.5 5054.5 1418.5 5012 1419.5 5004C1420.5 4996 1427 4983 1389.5 4962.5C1352 4942 1305 4930.5 1241 4910C1177 4889.5 1141 4873 1110 4851C1079 4829 1074 4798.5 1074 4798.5C1074 4798.5 1070.5 4775 1095.5 4756C1120.5 4737 1227.5 4708 1271 4675.5C1314.5 4643 1316 4611.5 1305.5 4582.5C1295 4553.5 1217.5 4393 1179.5 4278.5C1141.5 4164 1142.16 4173.52 1165.5 4113C1174.86 4088.72 1167.7 4081.43 1200.01 4056C1232.31 4030.57 1281.68 3985.94 1309.5 3922.5C1324.69 3885.44 1295.5 3842 1287.5 3841.5C1285.99 3837.5 1206 3808.5 1155.01 3827C1076.14 3832.01 1031.28 3832.33 950.507 3827C867.445 3817.71 823.674 3805.39 749.507 3772.5C749.507 3772.5 689.115 3740.65 692.007 3693.5C694.899 3646.35 783.507 3619 783.507 3619C845.277 3606.8 880.087 3596.59 941.007 3572C941.007 3572 969.595 3544.62 946.007 3522.5C922.418 3500.38 886.507 3480 886.507 3480L821.003 3438C800.001 3422 793.885 3388.58 802.501 3374C810.709 3360.11 836.021 3342 867.003 3342C902.524 3342 982.386 3366.69 1072.5 3367.5C1143.48 3368.14 1222.33 3355.13 1280.5 3333.5C1616 3226.5 1786 2957.5 1707.5 2730C1629 2502.5 1622.37 2543.55 1507.5 2468.5C1415.17 2408.83 1378.5 2376.27 1407 2316C1487.5 2235 1554 2180.5 1517.5 2143.5C1481 2106.5 1309.5 2113 1367.5 1987.5C1481.09 1933.18 1541.65 1896.08 1641.5 1813.5C1709 1738 1746.9 1661.9 1627.5 1590.5C1547 1514 1426.09 1402.06 1503 1263.5C1629.5 1044 1650.95 633.5 1414.5 633.5C1119.44 633.5 1030.73 567.077 1009.94 368" stroke="#FD9CED" stroke-width="30"/>
<g id="BEN">
<path id="Vector 258" d="M652.501 1741C396 1988 208 1919 179.001 2152C124.856 2587.04 147 4495.33 178 5528.5C189.852 5923.5 382.202 6180.2 1091 6429" stroke="#A3FCAC" stroke-opacity="0.2" stroke-width="25"/>
<path id="Vector 257" d="M758 185C758 847.5 354.003 554.5 217.502 693C81.0013 831.5 139 1147.5 178.5 1221.5C334.457 1513.67 762.5 1413 724.501 1605.5" stroke="#A3FCAC" stroke-opacity="0.2" stroke-width="25"/>
<g id="Ben1">
<path id="Vector 280_2" d="M652.506 1741C667 1727 677.662 1708.46 694.503 1678.73" stroke="url(#paint14_linear_615_419)" stroke-width="25"/>
<path id="Vector 281_2" d="M724.5 1605.5C719 1632 708.436 1654.24 694.543 1678.77" stroke="url(#paint15_linear_615_419)" stroke-width="25"/>
</g>
<path id="Ben2" d="M1091 6429C1210.5 6471 1271.35 6492.2 1271.34 6549.7" stroke="url(#paint16_linear_615_419)" stroke-width="25"/>
<circle id="Ellipse 30" cx="1273.84" cy="6549.2" r="16" fill="#A3FCAC"/>
</g>
<path id="true-ben" d="M1275 6548C1262.59 6497.98 1237.27 6471.34 1091.5 6431.5C749.5 6289.5 191.5 6135.5 179.5 5534.5C167.5 4933.5 143.17 3866.21 150 2768C152.7 2577.71 154.952 2468.19 171 2226.5C182.436 2101.17 197.112 2040.47 271 1988C394 1922.5 518.394 1855.22 645.5 1750C686.892 1697.25 705.167 1665.9 724.501 1605.5C762.501 1412.5 334.457 1513.67 178.5 1221.5C139 1147.5 81.0013 831.5 217.502 693C339.257 569.462 673.837 789.232 744.703 368" stroke="#A3FCAC" stroke-width="25"/>
<g id="DEN">
<path id="Vector 260" d="M1506.51 2562.5C1642.01 2358.5 1790.5 2453 1703.5 2124.5C1665.91 1982.58 1251 2102.5 1254.51 1990.5" stroke="#FAFF00" stroke-opacity="0.2" stroke-width="25"/>
<path id="Vector 259" d="M993.5 7358C1179.67 7318.33 1659 7358 1659 6926C1674.83 5654 1759.4 3247.95 1659 2923.5C1618 2791 1554 2805 1442 2811C1394.67 2808.5 1298 2817.5 1311 2672.5" stroke="#FAFF00" stroke-opacity="0.2" stroke-width="25"/>
<g id="Den2">
<path id="Vector 283_2" d="M1506.5 2562.5C1478.5 2604.5 1431.98 2603.23 1390.5 2606.99" stroke="url(#paint17_linear_615_419)" stroke-width="25"/>
<path id="Vector 284_2" d="M1311 2672.5C1316 2617.5 1350.52 2610.65 1390.68 2607" stroke="url(#paint18_linear_615_419)" stroke-width="25"/>
</g>
<g id="Den1">
<path id="Vector 283_3" d="M1254.5 1990.5C1254.5 1972.18 1279.51 1959.48 1304 1946.05" stroke="url(#paint19_linear_615_419)" stroke-width="25"/>
<path id="Vector 284_3" d="M1350.5 1901C1350.5 1921.81 1326.96 1933.47 1304 1946.06" stroke="url(#paint20_linear_615_419)" stroke-width="25"/>
</g>
<path id="Den3" d="M798.003 7480.44C806.005 7457.82 828.5 7393.5 993.5 7358" stroke="url(#paint21_linear_615_419)" stroke-width="25"/>
<path id="Vector 261" d="M1350.5 1901C1350.5 1792 1382.84 1803.86 1549.5 1699C1669.5 1623.5 1635 1507 1635 1156.5V960.5V789.5C1635 499.5 1160.5 806 1143 240" stroke="#FAFF00" stroke-opacity="0.2" stroke-width="25"/>
<circle id="Ellipse 254" cx="798" cy="7481" r="16" fill="#FAFF00"/>
</g>
<path id="true-den" d="M799 7481.5C848.315 7408.49 891.367 7382.23 994 7360C1143.5 7337.5 1267.74 7321.75 1424.5 7278C1583.35 7207.77 1629.27 7136.97 1659 6973C1683 5464.5 1715.53 4523.51 1702 3403C1696.2 3188.29 1689.82 3080.89 1664.5 2947.5C1638.01 2861.55 1617.41 2825.5 1557 2810.5C1476.3 2810.32 1433.57 2810.07 1391.5 2807.5C1333.04 2796.49 1312.2 2772.25 1309.5 2676C1318.56 2636.42 1329.27 2619.51 1370 2609.5C1456.87 2605.38 1483.17 2593.86 1507.5 2564C1507.5 2564 1608.8 2445 1681 2405.5C1715.69 2355.23 1729.19 2349.72 1724 2181.5C1722.58 2135.5 1678 2069.09 1638.5 2061.5C1607.23 2055.49 1442.5 2036 1342.5 2040C1326 2036 1248 2038 1256 1991.5C1264 1945 1349 1935.5 1350.5 1901C1350.5 1792 1382.84 1803.86 1549.5 1699C1669.5 1623.5 1635 1507 1635 1156.5V960.5V789.5C1635 524.53 1238.87 757.535 1157.15 368" stroke="#FAFF00" stroke-width="25"/>
<g id="EZRA">
<path id="Vector 318" d="M714.5 1036.5C694 1083.5 666 1237.5 331.001 1221.5C129.498 1221.5 129.501 1400 129.5 1555.5V2457.5C129.498 2804 303.5 2974 1257.5 3169.5" stroke="#627BFC" stroke-opacity="0.2" stroke-width="20"/>
<path id="Vector 319" d="M1369 3262.5C1369 3375.5 1374.5 3501 560 3501C280.637 3501 244 3665 244 3838.5V6876.5C244 7123 362.4 7212 741.999 7266C815.332 7273.67 966.499 7325.3 984.499 7470.5" stroke="#627BFC" stroke-opacity="0.2" stroke-width="20"/>
<g id="Ezra2">
<path id="EzraOut2" d="M1369 3262.5C1369 3231.86 1358.41 3219.95 1341.32 3204.5" stroke="url(#paint22_linear_615_419)" stroke-width="20"/>
<path id="EzraIn2" d="M1257.5 3169.5C1291.74 3176.51 1321.32 3186.43 1341.32 3204.5" stroke="url(#paint23_linear_615_419)" stroke-width="20"/>
</g>
<g id="Ezra1">
<path id="EzraOut1" d="M714.497 1036.5C735.5 988 716.111 866.619 669.997 823.451" stroke="url(#paint24_linear_615_419)" stroke-width="20"/>
<path id="EzraIn1" d="M481 749C533 756 614.242 771.256 670 823.45" stroke="url(#paint25_linear_615_419)" stroke-width="20"/>
</g>
<g id="Ezra3">
<path id="EzraIn3" d="M984.5 7470.5C989 7505.5 985.071 7537.22 960.492 7565.5" stroke="url(#paint26_linear_615_419)" stroke-width="20"/>
<path id="EzraOut3" d="M854.5 7610C903.676 7610 937.585 7591.85 960.489 7565.5" stroke="url(#paint27_linear_615_419)" stroke-width="20"/>
</g>
<path id="Ezra4" d="M669.5 9516C820 9579.5 952 9692 924 9816.5" stroke="url(#paint28_linear_615_419)" stroke-width="20"/>
<path id="Vector 320" d="M652 150C463 619 584 590 281.999 619C166.165 636.833 41.3971 688.6 480.997 749" stroke="#627BFC" stroke-opacity="0.2" stroke-width="20"/>
<path id="Vector 272" d="M854.5 7610C470 7610 250.4 7689.3 244 7998.5L263.5 9071.5C269 9365.5 294.5 9358 669.5 9516" stroke="#627BFC" stroke-opacity="0.2" stroke-width="20"/>
<circle id="Ellipse 255" cx="923" cy="9822" r="16" fill="#627BFC"/>
</g>
<path id="true-ezra" d="M924.133 9820.5C938.633 9713 891.928 9624.77 685.633 9524.5L467.633 9428.5C327.633 9363 273.117 9327.1 264.633 9145.5L244.633 8023.5C214.5 7704.5 529.766 7608.5 756.133 7614C982.5 7619.5 982 7551.5 986.633 7484C986.633 7379.5 913.117 7307.13 746.133 7268C362.202 7210.42 234.84 7126.7 242.633 6839.5V3840.5C252.165 3624.86 293.032 3540.22 480.133 3505.5C1117.13 3499 1385.81 3456.82 1368.63 3276C1365.66 3219.04 1342.74 3194.76 1250.63 3170C871.633 3085 100.133 2944 130.13 2491C130.13 2491 121.129 1452.5 140.13 1376C159.131 1299.5 209.175 1235.25 298.131 1225C576.878 1222.27 658.133 1177.5 713.133 1043.5C747.133 872.5 686.986 786.593 480.628 749C41.0274 688.6 165.796 636.833 281.629 619C525.985 595.535 493.411 610.042 572.189 368" stroke="#627BFC" stroke-width="20"/>
<g id="CONNIE">
<path id="Vector 275" d="M1205 2972C1205 3043 1213 3136.17 1518 3127.5C1598 3125.22 1644 3172.5 1644 3259L1661 4027C1661 4208 1477 4417.5 1300 4436" stroke="#FF5F5F" stroke-opacity="0.2" stroke-width="17"/>
<path id="Connie2" d="M1300 4436C1068 4459 936.5 4404.5 936.5 4546" stroke="url(#paint29_linear_615_419)" stroke-width="17"/>
<g id="Connie1">
<path id="Vector 289_2" d="M1205 2972.01C1205 2934.51 1244.35 2918.11 1303.5 2907.5" stroke="url(#paint30_linear_615_419)" stroke-width="17"/>
<path id="Vector 290_2" d="M1434 2896C1387.03 2897.42 1340.78 2900.81 1303.5 2907.5" stroke="url(#paint31_linear_615_419)" stroke-width="17"/>
</g>
<path id="Vector 274" d="M1213.5 156.5C1572.5 246.5 1554.84 611.149 1664 623.001C1751.5 632.501 1751.5 663.501 1751.5 759.001V2270.5V2590.5C1757 2681.33 1700.8 2885.6 1434 2896" stroke="#FF5F5F" stroke-opacity="0.2" stroke-width="17"/>
<circle id="Ellipse 256" cx="934" cy="4547" r="16" fill="#FF5F5F"/>
</g>
<path id="true-connie" d="M933 4548C938.5 4470.5 980.385 4444.83 1065.5 4445.5C1158.97 4445.22 1211.41 4443.45 1305 4437.5C1512 4407.5 1662 4148.5 1662 4048.5C1662 3948.5 1643.5 3249.5 1643.5 3249.5C1632 3157.54 1580.5 3127.42 1512.5 3129C1444.5 3130.58 1382 3141.5 1286 3103C1190 3064.5 1197.5 3003.5 1204.5 2971.5C1211.5 2939.5 1243.5 2920.5 1282 2912C1320.5 2903.5 1434 2896 1434 2896C1700.8 2885.6 1757 2681.33 1751.5 2590.5V2270.5V759.001C1751.5 663.501 1751.5 632.501 1664 623.001C1600.56 616.113 1579.95 490.05 1503.34 368" stroke="#FF5F5F" stroke-width="17"/>
<g id="GEORGE">
<path id="George1" d="M1402.5 2995.5C1412 3103 1277.62 3053.68 1277.62 3089.39" stroke="url(#paint32_linear_615_419)" stroke-width="20"/>
<path id="Vector 276" d="M1402.5 2995.5C1399.67 2963.17 1408.5 2897 1586.5 2897C1723.5 2870.5 1697.5 2782.2 1697.5 2519V836C1697.5 836 1708.5 650 1521.5 643.5C1334.5 623 1407.5 207 1244.5 189.5" stroke="#02FFE1" stroke-opacity="0.2" stroke-width="20"/>
<circle id="Ellipse 257" cx="1277" cy="3093" r="16" fill="#02FFE1"/>
</g>
<path id="true-george" d="M1277.5 3092C1276 3088.5 1278 3087.5 1282 3081.5C1286 3075.5 1319.5 3071 1362.5 3064.5C1408.5 3049 1402.5 3005.5 1402.5 2995.5C1402.5 2985.5 1389 2891 1586.5 2897C1723.5 2870.5 1697.5 2782.2 1697.5 2519V836C1697.5 836 1708.5 650 1521.5 643.5C1414.33 631.751 1392.55 490.095 1362.81 368" stroke="#02FFE1" stroke-width="20"/>
<g id="HOLLY">
<path id="Holly1" d="M1249 2718C1353.82 2749.36 1386 2797.16 1386 2833" stroke="url(#paint33_linear_615_419)" stroke-width="17"/>
<path id="Vector 278" d="M1249 2718C1090 2672.5 1037 2654.17 876.5 2616C432.5 2510.4 296.5 2632 296.5 2381.5V549C296.5 356 379 233.2 705 152" stroke="#61B2FC" stroke-opacity="0.2" stroke-width="17"/>
<circle id="Ellipse 258" cx="1386" cy="2833" r="16" fill="#61B2FC"/>
</g>
<path id="true-holly" d="M1387.5 2835C1371.77 2772.89 1338.12 2747.71 1249 2718C1090 2672.5 1037 2654.17 876.5 2616C432.5 2510.4 296.5 2632 296.5 2381.5V549C296.5 480.171 306.993 420.27 335.28 368" stroke="#61B2FC" stroke-width="17"/>
<path id="Ellipse 259" d="M1637.5 550.122C1597.5 432.623 1611.5 307.623 1437.01 210.004C1266.5 125.123 1215.5 40.1229 969 64.1222C787.459 64.1222 661 59.9469 466.5 196.623C289.5 277.123 265.5 437.123 226 550.122C226 550.122 333.269 565.771 402.5 567C511.249 568.93 574.058 526.675 679.5 538C784.942 549.325 844.058 555.675 949.5 567C1054.94 578.325 1103.68 536.294 1203.5 538C1290.34 539.484 1337.17 564.92 1424 567C1507.61 569.003 1637.5 550.122 1637.5 550.122Z" fill="url(#paint34_linear_615_419)" fill-opacity="0.8"/>
</g>
<defs>
<filter id="filter0_f_615_419" x="569" y="0" width="766" height="367" filterUnits="userSpaceOnUse" color-interpolation-filters="sRGB">
<feFlood flood-opacity="0" result="BackgroundImageFix"/>
<feBlend mode="normal" in="SourceGraphic" in2="BackgroundImageFix" result="shape"/>
<feGaussianBlur stdDeviation="35" result="effect1_foregroundBlur_615_419"/>
</filter>
<linearGradient id="paint0_linear_615_419" x1="940.5" y1="120" x2="940.5" y2="9834" gradientUnits="userSpaceOnUse">
<stop stop-color="#E2F8FF"/>
<stop offset="1" stop-color="#00D1FF"/>
<stop offset="1" stop-color="#16CFF7"/>
</linearGradient>
<linearGradient id="paint1_linear_615_419" x1="1483" y1="1308" x2="1478" y2="1354" gradientUnits="userSpaceOnUse">
<stop stop-color="#FD9CED"/>
<stop offset="1" stop-color="#FD9CED" stop-opacity="0.2"/>
</linearGradient>
<linearGradient id="paint2_linear_615_419" x1="1485" y1="1305" x2="1503" y2="1266.5" gradientUnits="userSpaceOnUse">
<stop stop-color="#FD9CED"/>
<stop offset="1" stop-color="#FD9CED" stop-opacity="0.2"/>
</linearGradient>
<linearGradient id="paint3_linear_615_419" x1="1415.07" y1="2391.61" x2="1492.57" y2="2457.11" gradientUnits="userSpaceOnUse">
<stop stop-color="#FD9CED"/>
<stop offset="1" stop-color="#FD9CED" stop-opacity="0.2"/>
</linearGradient>
<linearGradient id="paint4_linear_615_419" x1="1441.5" y1="2121" x2="1375" y2="2060" gradientUnits="userSpaceOnUse">
<stop stop-color="#FD9CED"/>
<stop offset="1" stop-color="#FD9CED" stop-opacity="0.2"/>
</linearGradient>
<linearGradient id="paint5_linear_615_419" x1="1110.5" y1="3372" x2="1261.5" y2="3338" gradientUnits="userSpaceOnUse">
<stop stop-color="#FD9CED"/>
<stop offset="1" stop-color="#FD9CED" stop-opacity="0.2"/>
</linearGradient>
<linearGradient id="paint6_linear_615_419" x1="1261.5" y1="4002.5" x2="1205" y2="4048" gradientUnits="userSpaceOnUse">
<stop stop-color="#FD9CED"/>
<stop offset="1" stop-color="#FD9CED" stop-opacity="0.2"/>
</linearGradient>
<linearGradient id="paint7_linear_615_419" x1="1310" y1="4601" x2="1298" y2="4560" gradientUnits="userSpaceOnUse">
<stop stop-color="#FD9CED"/>
<stop offset="1" stop-color="#FD9CED" stop-opacity="0.2"/>
</linearGradient>
<linearGradient id="paint8_linear_615_419" x1="1255" y1="5175.5" x2="1262.5" y2="5202.5" gradientUnits="userSpaceOnUse">
<stop stop-color="#FD9CED"/>
<stop offset="1" stop-color="#FD9CED" stop-opacity="0.2"/>
</linearGradient>
<linearGradient id="paint9_linear_615_419" x1="1342" y1="5641" x2="1338" y2="5552.5" gradientUnits="userSpaceOnUse">
<stop stop-color="#FD9CED"/>
<stop offset="1" stop-color="#FD9CED" stop-opacity="0.2"/>
</linearGradient>
<linearGradient id="paint10_linear_615_419" x1="1559" y1="6320.5" x2="1549" y2="6393.5" gradientUnits="userSpaceOnUse">
<stop stop-color="#FD9CED"/>
<stop offset="1" stop-color="#FD9CED" stop-opacity="0.2"/>
</linearGradient>
<linearGradient id="paint11_linear_615_419" x1="1301.5" y1="6712" x2="1315.5" y2="6665.5" gradientUnits="userSpaceOnUse">
<stop stop-color="#FD9CED"/>
<stop offset="1" stop-color="#FD9CED" stop-opacity="0.2"/>
<stop offset="1" stop-color="#FD9CED" stop-opacity="0"/>
</linearGradient>
<linearGradient id="paint12_linear_615_419" x1="898.361" y1="7034.53" x2="970.487" y2="7064.34" gradientUnits="userSpaceOnUse">
<stop stop-color="#FD9CED"/>
<stop offset="1" stop-color="#FD9CED" stop-opacity="0.2"/>
</linearGradient>
<linearGradient id="paint13_linear_615_419" x1="1077" y1="8770" x2="1177.5" y2="8730.5" gradientUnits="userSpaceOnUse">
<stop stop-color="#FD9CED"/>
<stop offset="1" stop-color="#FD9CED" stop-opacity="0.2"/>
</linearGradient>
<linearGradient id="paint14_linear_615_419" x1="692.5" y1="1691" x2="655" y2="1738.5" gradientUnits="userSpaceOnUse">
<stop stop-color="#A3FCAC"/>
<stop offset="1" stop-color="#A3FCAC" stop-opacity="0.2"/>
</linearGradient>
<linearGradient id="paint15_linear_615_419" x1="708" y1="1661" x2="724" y2="1613" gradientUnits="userSpaceOnUse">
<stop stop-color="#A3FCAC"/>
<stop offset="1" stop-color="#A3FCAC" stop-opacity="0.2"/>
</linearGradient>
<linearGradient id="paint16_linear_615_419" x1="1171" y1="6458" x2="1104.5" y2="6432.5" gradientUnits="userSpaceOnUse">
<stop stop-color="#A3FCAC"/>
<stop offset="1" stop-color="#A3FCAC" stop-opacity="0.2"/>
</linearGradient>
<linearGradient id="paint17_linear_615_419" x1="1463" y1="2610.5" x2="1507" y2="2565" gradientUnits="userSpaceOnUse">
<stop stop-color="#FAFF00"/>
<stop offset="0.9999" stop-color="#FAFF00" stop-opacity="0.2"/>
<stop offset="1" stop-color="#FBFD94" stop-opacity="0.2"/>
</linearGradient>
<linearGradient id="paint18_linear_615_419" x1="1331.5" y1="2619" x2="1312" y2="2669.5" gradientUnits="userSpaceOnUse">
<stop stop-color="#FAFF00"/>
<stop offset="1" stop-color="#FAFF00" stop-opacity="0.2"/>
</linearGradient>
<linearGradient id="paint19_linear_615_419" x1="1284.5" y1="1957.5" x2="1255" y2="1989.5" gradientUnits="userSpaceOnUse">
<stop stop-color="#FAFF00"/>
<stop offset="1" stop-color="#FAFF00" stop-opacity="0.2"/>
</linearGradient>
<linearGradient id="paint20_linear_615_419" x1="1310.5" y1="1946" x2="1348" y2="1906.5" gradientUnits="userSpaceOnUse">
<stop stop-color="#FAFF00"/>
<stop offset="1" stop-color="#FAFF00" stop-opacity="0.2"/>
<stop offset="1" stop-color="#FAFF00" stop-opacity="0.2"/>
<stop offset="1" stop-color="#FAFF00" stop-opacity="0.2"/>
</linearGradient>
<linearGradient id="paint21_linear_615_419" x1="889" y1="7388.5" x2="986" y2="7362.5" gradientUnits="userSpaceOnUse">
<stop stop-color="#FAFF00"/>
<stop offset="1" stop-color="#FAFF00" stop-opacity="0.2"/>
</linearGradient>
<linearGradient id="paint22_linear_615_419" x1="1356" y1="3218.5" x2="1368" y2="3254.5" gradientUnits="userSpaceOnUse">
<stop stop-color="#627BFC"/>
<stop offset="1" stop-color="#627BFC" stop-opacity="0.2"/>
</linearGradient>
<linearGradient id="paint23_linear_615_419" x1="1316.5" y1="3187.5" x2="1259" y2="3169" gradientUnits="userSpaceOnUse">
<stop stop-color="#627BFC"/>
<stop offset="1" stop-color="#627BFC" stop-opacity="0.2"/>
</linearGradient>
<linearGradient id="paint24_linear_615_419" x1="724" y1="936.5" x2="714.5" y2="1037" gradientUnits="userSpaceOnUse">
<stop stop-color="#627BFC"/>
<stop offset="1" stop-color="#627BFC" stop-opacity="0.2"/>
</linearGradient>
<linearGradient id="paint25_linear_615_419" x1="578.5" y1="771" x2="482.5" y2="749" gradientUnits="userSpaceOnUse">
<stop stop-color="#627BFC"/>
<stop offset="1" stop-color="#627BFC" stop-opacity="0.2"/>
</linearGradient>
<linearGradient id="paint26_linear_615_419" x1="984.5" y1="7530" x2="986" y2="7475" gradientUnits="userSpaceOnUse">
<stop stop-color="#627BFC"/>
<stop offset="1" stop-color="#627BFC" stop-opacity="0.2"/>
</linearGradient>
<linearGradient id="paint27_linear_615_419" x1="956.5" y1="7593.5" x2="856.5" y2="7609" gradientUnits="userSpaceOnUse">
<stop stop-color="#627BFC"/>
<stop offset="1" stop-color="#627BFC" stop-opacity="0.2"/>
</linearGradient>
<linearGradient id="paint28_linear_615_419" x1="783" y1="9574" x2="677" y2="9518.5" gradientUnits="userSpaceOnUse">
<stop stop-color="#627BFC"/>
<stop offset="1" stop-color="#627BFC" stop-opacity="0.2"/>
</linearGradient>
<linearGradient id="paint29_linear_615_419" x1="1194.5" y1="4443" x2="1298.52" y2="4436.5" gradientUnits="userSpaceOnUse">
<stop stop-color="#FF5F5F"/>
<stop offset="1" stop-color="#FF5F5F" stop-opacity="0.2"/>
</linearGradient>
<linearGradient id="paint30_linear_615_419" x1="1214" y1="2922" x2="1200.5" y2="2972" gradientUnits="userSpaceOnUse">
<stop stop-color="#FF5F5F"/>
<stop offset="1" stop-color="#FF5F5F" stop-opacity="0.2"/>
</linearGradient>
<linearGradient id="paint31_linear_615_419" x1="1360" y1="2902" x2="1435" y2="2897" gradientUnits="userSpaceOnUse">
<stop stop-color="#FF5F5F"/>
<stop offset="1" stop-color="#FF5F5F" stop-opacity="0.2"/>
</linearGradient>
<linearGradient id="paint32_linear_615_419" x1="1389.5" y1="3053" x2="1400.5" y2="2999.5" gradientUnits="userSpaceOnUse">
<stop stop-color="#02FFE1"/>
<stop offset="1" stop-color="#02FFE1" stop-opacity="0.2"/>
</linearGradient>
<linearGradient id="paint33_linear_615_419" x1="1254.36" y1="2718" x2="1294.02" y2="2730.94" gradientUnits="userSpaceOnUse">
<stop stop-color="#61B2FC" stop-opacity="0.2"/>
<stop offset="1" stop-color="#61B2FC"/>
</linearGradient>
<linearGradient id="paint34_linear_615_419" x1="953" y1="69.123" x2="953.5" y2="677.123" gradientUnits="userSpaceOnUse">
<stop stop-color="#C4F1FF"/>
<stop offset="1" stop-color="#19778C"/>
</linearGradient>
</defs>
</svg>
