<svg width="52" height="50" viewBox="0 0 52 50" fill="none" xmlns="http://www.w3.org/2000/svg">
<g id="medusina">
<g id="MAIN">
<g id="Vector 80">
<path d="M18.7104 13.5346C18.3926 12.1391 16.9054 10.2344 16.9054 10.2344L25.9397 7.81367C25.9397 7.81367 26.4958 8.77991 26.7554 9.42614C27.3688 10.9531 27.6872 12.331 27.4804 13.5638C27.2737 14.7966 27.0348 14.6495 27.303 16.0514C27.5712 17.4533 28.4893 18.6487 29.2861 20.3026C30.0588 21.9065 30.9332 22.6846 31.3186 24.3945C31.64 25.8208 31.4974 26.7048 31.4115 28.2347C31.2902 30.3941 29.7087 34.1353 29.7087 34.1353C29.7087 34.1353 29.0553 36.2297 28.9091 37.5082C28.8314 38.1873 28.7483 38.5787 28.8302 39.2183C28.891 39.6932 28.9008 39.9676 29.1449 40.3925C29.3561 40.7603 29.7272 40.8917 29.9159 41.2659C30.0531 41.5378 30.167 41.6833 30.1139 42.0045C30.0291 42.5166 29.6287 42.8836 29.0542 43.4902C28.2893 44.2977 26.5959 45.6551 26.3945 45.6482C26.1932 45.6412 27.0354 44.0311 27.0354 44.0311C27.0354 44.0311 27.5654 43.3513 27.5985 42.983C27.6204 42.7404 27.5519 42.624 27.4463 42.4148C27.2212 41.9689 26.8275 41.7981 26.3391 41.4326C26.0634 41.2263 25.8458 41.1314 25.5878 40.9193C25.2916 40.6759 25.1804 40.522 24.9502 40.2579C23.8968 39.049 23.6827 38.2563 23.2731 36.8625C22.8075 35.2779 23.0759 34.2508 22.8959 32.591C22.7066 30.8458 22.6962 29.842 22.3186 28.1458C21.7628 25.6495 21.6564 24.183 20.0529 21.9809C19.689 21.4811 19.027 20.7293 19.027 20.7293L18.6108 19.1762C18.5063 18.786 18.6695 16.8179 18.6695 16.8179C18.6695 16.8179 18.9855 14.7423 18.7104 13.5346Z" fill="url(#paint0_linear_890_617)" fill-opacity="0.8"/>
<path d="M18.7104 13.5346C18.3926 12.1391 16.9054 10.2344 16.9054 10.2344L25.9397 7.81367C25.9397 7.81367 26.4958 8.77991 26.7554 9.42614C27.3688 10.9531 27.6872 12.331 27.4804 13.5638C27.2737 14.7966 27.0348 14.6495 27.303 16.0514C27.5712 17.4533 28.4893 18.6487 29.2861 20.3026C30.0588 21.9065 30.9332 22.6846 31.3186 24.3945C31.64 25.8208 31.4974 26.7048 31.4115 28.2347C31.2902 30.3941 29.7087 34.1353 29.7087 34.1353C29.7087 34.1353 29.0553 36.2297 28.9091 37.5082C28.8314 38.1873 28.7483 38.5787 28.8302 39.2183C28.891 39.6932 28.9008 39.9676 29.1449 40.3925C29.3561 40.7603 29.7272 40.8917 29.9159 41.2659C30.0531 41.5378 30.167 41.6833 30.1139 42.0045C30.0291 42.5166 29.6287 42.8836 29.0542 43.4902C28.2893 44.2977 26.5959 45.6551 26.3945 45.6482C26.1932 45.6412 27.0354 44.0311 27.0354 44.0311C27.0354 44.0311 27.5654 43.3513 27.5985 42.983C27.6204 42.7404 27.5519 42.624 27.4463 42.4148C27.2212 41.9689 26.8275 41.7981 26.3391 41.4326C26.0634 41.2263 25.8458 41.1314 25.5878 40.9193C25.2916 40.6759 25.1804 40.522 24.9502 40.2579C23.8968 39.049 23.6827 38.2563 23.2731 36.8625C22.8075 35.2779 23.0759 34.2508 22.8959 32.591C22.7066 30.8458 22.6962 29.842 22.3186 28.1458C21.7628 25.6495 21.6564 24.183 20.0529 21.9809C19.689 21.4811 19.027 20.7293 19.027 20.7293L18.6108 19.1762C18.5063 18.786 18.6695 16.8179 18.6695 16.8179C18.6695 16.8179 18.9855 14.7423 18.7104 13.5346Z" fill="black" fill-opacity="0.2"/>
</g>
</g>
<g id="Vector 317" filter="url(#filter0_f_890_617)">
<path d="M12.9011 10.0006C13.8759 8.19003 16.1074 7.48418 17.1013 7.35758C18.9004 6.74479 20.9321 5.99725 21.723 5.70009C23.5532 4.87438 25.814 4.74361 26.7156 4.78144C28.6313 4.60344 29.8062 5.31675 30.1542 5.69566C32.5645 6.51827 31.3121 8.02071 30.3845 8.6691C29.353 9.23456 28.2116 10.345 27.7698 10.8295C25.6396 11.8975 21.5687 12.6982 19.7996 12.9651C17.1242 13.1732 15.4359 12.7083 14.9261 12.4499C12.925 11.9801 12.7423 10.6213 12.9011 10.0006Z" fill="white"/>
</g>
<path id="Ellipse 259" d="M45.2737 14.3758C43.1761 11.2424 42.604 7.46419 36.7163 5.97155C31.0452 4.82149 28.8802 2.7282 21.8355 5.37065C16.5082 6.79808 12.7645 7.66989 8.13164 13.2099C3.5706 16.9639 4.12438 21.8478 3.85377 25.4743C3.85377 25.4743 7.12459 25.09 9.16581 24.5817C12.3722 23.7833 13.8831 22.0495 17.0663 21.5527C20.2494 21.056 22.0341 20.7775 25.2173 20.2807C28.4005 19.784 29.5002 18.1674 32.4428 17.4326C35.0028 16.7933 36.5771 17.1715 39.1414 16.5498C41.6107 15.9512 45.2737 14.3758 45.2737 14.3758Z" fill="url(#paint1_linear_890_617)" fill-opacity="0.8"/>
</g>
<defs>
<filter id="filter0_f_890_617" x="10.7328" y="2.62683" width="22.9407" height="12.5168" filterUnits="userSpaceOnUse" color-interpolation-filters="sRGB">
<feFlood flood-opacity="0" result="BackgroundImageFix"/>
<feBlend mode="normal" in="SourceGraphic" in2="BackgroundImageFix" result="shape"/>
<feGaussianBlur stdDeviation="1.06329" result="effect1_foregroundBlur_890_617"/>
</filter>
<linearGradient id="paint0_linear_890_617" x1="21.5028" y1="9.00252" x2="30.9927" y2="44.4191" gradientUnits="userSpaceOnUse">
<stop stop-color="#FFE2E2"/>
<stop offset="1" stop-color="#F71616"/>
</linearGradient>
<linearGradient id="paint1_linear_890_617" x1="21.4053" y1="5.6432" x2="26.2006" y2="23.4808" gradientUnits="userSpaceOnUse">
<stop stop-color="#FFD2C4"/>
<stop offset="1" stop-color="#8C2719"/>
</linearGradient>
</defs>
</svg>
