<svg width="53" height="50" viewBox="0 0 53 50" fill="none" xmlns="http://www.w3.org/2000/svg">
<g id="medusina">
<g id="MAIN">
<g id="Vector 80">
<path d="M18.9839 13.5346C18.666 12.1391 17.1789 10.2344 17.1789 10.2344L26.2131 7.81367C26.2131 7.81367 26.7692 8.77991 27.0288 9.42614C27.6423 10.9531 27.9606 12.331 27.7539 13.5638C27.5471 14.7966 27.3082 14.6495 27.5764 16.0514C27.8446 17.4533 28.7627 18.6487 29.5595 20.3026C30.3322 21.9065 31.2067 22.6846 31.592 24.3945C31.9134 25.8208 31.7708 26.7048 31.6849 28.2347C31.5636 30.3941 29.9821 34.1353 29.9821 34.1353C29.9821 34.1353 29.3288 36.2297 29.1825 37.5082C29.1048 38.1873 29.0217 38.5787 29.1036 39.2183C29.1645 39.6932 29.1742 39.9676 29.4183 40.3925C29.6295 40.7603 30.0007 40.8917 30.1894 41.2659C30.3266 41.5378 30.4405 41.6833 30.3873 42.0045C30.3025 42.5166 29.9021 42.8836 29.3276 43.4902C28.5627 44.2977 26.8693 45.6551 26.668 45.6482C26.4666 45.6412 27.3088 44.0311 27.3088 44.0311C27.3088 44.0311 27.8388 43.3513 27.872 42.983C27.8938 42.7404 27.8253 42.624 27.7197 42.4148C27.4947 41.9689 27.101 41.7981 26.6126 41.4326C26.3369 41.2263 26.1192 41.1314 25.8612 40.9193C25.5651 40.6759 25.4538 40.522 25.2236 40.2579C24.1702 39.049 23.9562 38.2563 23.5466 36.8625C23.0809 35.2779 23.3493 34.2508 23.1693 32.591C22.98 30.8458 22.9697 29.842 22.592 28.1458C22.0363 25.6495 21.9298 24.183 20.3263 21.9809C19.9624 21.4811 19.3004 20.7293 19.3004 20.7293L18.8843 19.1762C18.7797 18.786 18.9429 16.8179 18.9429 16.8179C18.9429 16.8179 19.259 14.7423 18.9839 13.5346Z" fill="url(#paint0_linear_886_419)" fill-opacity="0.8"/>
<path d="M18.9839 13.5346C18.666 12.1391 17.1789 10.2344 17.1789 10.2344L26.2131 7.81367C26.2131 7.81367 26.7692 8.77991 27.0288 9.42614C27.6423 10.9531 27.9606 12.331 27.7539 13.5638C27.5471 14.7966 27.3082 14.6495 27.5764 16.0514C27.8446 17.4533 28.7627 18.6487 29.5595 20.3026C30.3322 21.9065 31.2067 22.6846 31.592 24.3945C31.9134 25.8208 31.7708 26.7048 31.6849 28.2347C31.5636 30.3941 29.9821 34.1353 29.9821 34.1353C29.9821 34.1353 29.3288 36.2297 29.1825 37.5082C29.1048 38.1873 29.0217 38.5787 29.1036 39.2183C29.1645 39.6932 29.1742 39.9676 29.4183 40.3925C29.6295 40.7603 30.0007 40.8917 30.1894 41.2659C30.3266 41.5378 30.4405 41.6833 30.3873 42.0045C30.3025 42.5166 29.9021 42.8836 29.3276 43.4902C28.5627 44.2977 26.8693 45.6551 26.668 45.6482C26.4666 45.6412 27.3088 44.0311 27.3088 44.0311C27.3088 44.0311 27.8388 43.3513 27.872 42.983C27.8938 42.7404 27.8253 42.624 27.7197 42.4148C27.4947 41.9689 27.101 41.7981 26.6126 41.4326C26.3369 41.2263 26.1192 41.1314 25.8612 40.9193C25.5651 40.6759 25.4538 40.522 25.2236 40.2579C24.1702 39.049 23.9562 38.2563 23.5466 36.8625C23.0809 35.2779 23.3493 34.2508 23.1693 32.591C22.98 30.8458 22.9697 29.842 22.592 28.1458C22.0363 25.6495 21.9298 24.183 20.3263 21.9809C19.9624 21.4811 19.3004 20.7293 19.3004 20.7293L18.8843 19.1762C18.7797 18.786 18.9429 16.8179 18.9429 16.8179C18.9429 16.8179 19.259 14.7423 18.9839 13.5346Z" fill="black" fill-opacity="0.2"/>
</g>
</g>
<g id="Vector 317" filter="url(#filter0_f_886_419)">
<path d="M13.1746 10.0006C14.1494 8.19003 16.3809 7.48418 17.3748 7.35758C19.1739 6.74479 21.2055 5.99725 21.9964 5.70009C23.8266 4.87438 26.0874 4.74361 26.989 4.78144C28.9047 4.60344 30.0796 5.31675 30.4276 5.69566C32.8379 6.51827 31.5855 8.02071 30.658 8.6691C29.6265 9.23456 28.485 10.345 28.0433 10.8295C25.913 11.8975 21.8421 12.6982 20.073 12.9651C17.3977 13.1732 15.7093 12.7083 15.1995 12.4499C13.1984 11.9801 13.0157 10.6213 13.1746 10.0006Z" fill="white"/>
</g>
<path id="Ellipse 259" d="M45.5472 14.3758C43.4495 11.2424 42.8775 7.46419 36.9897 5.97155C31.3186 4.82149 29.1537 2.7282 22.1089 5.37065C16.7817 6.79808 13.0379 7.66989 8.40508 13.2099C3.84403 16.9639 4.39782 21.8478 4.12721 25.4743C4.12721 25.4743 7.39802 25.09 9.43925 24.5817C12.6456 23.7833 14.1565 22.0495 17.3397 21.5527C20.5229 21.056 22.3076 20.7775 25.4908 20.2807C28.674 19.784 29.7736 18.1674 32.7163 17.4326C35.2762 16.7933 36.8505 17.1715 39.4148 16.5498C41.8842 15.9512 45.5472 14.3758 45.5472 14.3758Z" fill="url(#paint1_linear_886_419)" fill-opacity="0.8"/>
</g>
<defs>
<filter id="filter0_f_886_419" x="11.0062" y="2.62683" width="22.9407" height="12.5168" filterUnits="userSpaceOnUse" color-interpolation-filters="sRGB">
<feFlood flood-opacity="0" result="BackgroundImageFix"/>
<feBlend mode="normal" in="SourceGraphic" in2="BackgroundImageFix" result="shape"/>
<feGaussianBlur stdDeviation="1.06329" result="effect1_foregroundBlur_886_419"/>
</filter>
<linearGradient id="paint0_linear_886_419" x1="21.7763" y1="9.00252" x2="31.2661" y2="44.4191" gradientUnits="userSpaceOnUse">
<stop stop-color="#E2F8FF"/>
<stop offset="1" stop-color="#00D1FF"/>
<stop offset="1" stop-color="#16CFF7"/>
</linearGradient>
<linearGradient id="paint1_linear_886_419" x1="21.6787" y1="5.6432" x2="26.474" y2="23.4808" gradientUnits="userSpaceOnUse">
<stop stop-color="#C4F1FF"/>
<stop offset="1" stop-color="#19778C"/>
</linearGradient>
</defs>
</svg>
