<svg width="815" height="12035" viewBox="0 0 815 12035" fill="none" xmlns="http://www.w3.org/2000/svg">
<path d="M278.034 1296.01C279.86 830.734 248.055 107 248.055 107H563.341C563.341 107 573.017 457.443 575.833 682.368C582.485 1213.84 580.829 1673.63 563.341 2043.6C545.853 2413.57 539.357 2347.23 535.86 2810.34C532.362 3273.44 551.826 3726.38 563.341 4313.18C574.508 4882.24 596.191 5200.36 593.82 5770.1C591.843 6245.35 579.486 6511.14 563.341 6984.62C540.552 7652.96 456.414 8695.42 456.414 8695.42C456.414 8695.42 416.868 9298.54 400.951 9687.96C392.496 9894.82 386.376 10010.8 383.463 10218.7C381.3 10373 379.224 10460.1 383.463 10614.2C387.132 10747.5 398.071 10820 400.951 10953.5C403.045 11050.5 405.485 11105.8 400.951 11202.3C393.723 11356.1 377.484 11437.7 353.483 11579.9C321.533 11769.3 254.55 12053.2 248.055 12034.1C241.559 12014.9 283.031 11579.9 283.031 11579.9C283.031 11579.9 306.22 11410.9 310.512 11298C313.168 11228.1 312.258 11186.5 310.801 11119.9L310.512 11106.6C307.074 10947.5 295.746 10860.7 283.031 10704.7C275.854 10616.7 269.595 10568.6 263.045 10480.2C255.525 10378.8 253.245 10321 248.055 10218.7C224.918 9762.31 224.267 9497.02 223.162 9047L223.072 9010.53C221.734 8473.38 239.436 8173.24 248.055 7636.54C257.118 7072.18 265.539 6755.89 268.041 6191.1C271.725 5359.89 281.053 4890.11 248.055 4063.13C240.565 3875.44 225.57 3583.45 225.57 3583.45V3060.38C225.57 2928.98 248.055 2324.27 248.055 2324.27C248.055 2324.27 276.455 1698.66 278.034 1296.01Z" fill="url(#paint0_linear_303_413)"/>
<path d="M278.034 1296.01C279.86 830.734 248.055 107 248.055 107H563.341C563.341 107 573.017 457.443 575.833 682.368C582.485 1213.84 580.829 1673.63 563.341 2043.6C545.853 2413.57 539.357 2347.23 535.86 2810.34C532.362 3273.44 551.826 3726.38 563.341 4313.18C574.508 4882.24 596.191 5200.36 593.82 5770.1C591.843 6245.35 579.486 6511.14 563.341 6984.62C540.552 7652.96 456.414 8695.42 456.414 8695.42C456.414 8695.42 416.868 9298.54 400.951 9687.96C392.496 9894.82 386.376 10010.8 383.463 10218.7C381.3 10373 379.224 10460.1 383.463 10614.2C387.132 10747.5 398.071 10820 400.951 10953.5C403.045 11050.5 405.485 11105.8 400.951 11202.3C393.723 11356.1 377.484 11437.7 353.483 11579.9C321.533 11769.3 254.55 12053.2 248.055 12034.1C241.559 12014.9 283.031 11579.9 283.031 11579.9C283.031 11579.9 306.22 11410.9 310.512 11298C313.168 11228.1 312.258 11186.5 310.801 11119.9L310.512 11106.6C307.074 10947.5 295.746 10860.7 283.031 10704.7C275.854 10616.7 269.595 10568.6 263.045 10480.2C255.525 10378.8 253.245 10321 248.055 10218.7C224.918 9762.31 224.267 9497.02 223.162 9047L223.072 9010.53C221.734 8473.38 239.436 8173.24 248.055 7636.54C257.118 7072.18 265.539 6755.89 268.041 6191.1C271.725 5359.89 281.053 4890.11 248.055 4063.13C240.565 3875.44 225.57 3583.45 225.57 3583.45V3060.38C225.57 2928.98 248.055 2324.27 248.055 2324.27C248.055 2324.27 276.455 1698.66 278.034 1296.01Z" fill="black" fill-opacity="0.2"/>
<path d="M815 407.5C815 299.424 772.067 195.775 695.646 119.354C619.225 42.9329 515.576 8.15949e-06 407.5 0C299.424 -8.15949e-06 195.775 42.9329 119.354 119.354C42.9329 195.775 1.6319e-05 299.424 0 407.5L407.5 407.5L815 407.5Z" fill="url(#paint1_linear_303_413)"/>
<defs>
<linearGradient id="paint0_linear_303_413" x1="408.5" y1="107" x2="408.5" y2="12035" gradientUnits="userSpaceOnUse">
<stop stop-color="#4663CB"/>
<stop offset="1" stop-color="#6E8DFA"/>
</linearGradient>
<linearGradient id="paint1_linear_303_413" x1="407.5" y1="0" x2="407.5" y2="815" gradientUnits="userSpaceOnUse">
<stop stop-color="#D0D8FF"/>
<stop offset="1" stop-color="#0E35FF"/>
</linearGradient>
</defs>
</svg>
