<svg width="438" height="163" viewBox="0 0 438 163" fill="none" xmlns="http://www.w3.org/2000/svg">
<g filter="url(#filter0_d_394_955)">
<path d="M41.4224 57V38.28H43.1904V57H41.4224ZM49.3607 57H47.8007V43.532H49.3607V45.404C49.9847 44.7453 50.626 44.208 51.2847 43.792C51.9607 43.376 52.7667 43.168 53.7027 43.168C54.5347 43.168 55.306 43.3153 56.0167 43.61C56.7274 43.8873 57.3254 44.3813 57.8107 45.092C58.14 45.5773 58.3307 46.08 58.3827 46.6C58.452 47.1027 58.4867 47.6313 58.4867 48.186V57H56.9267V48.212C56.9267 46.9987 56.658 46.0887 56.1207 45.482C55.5834 44.8753 54.6907 44.572 53.4427 44.572C52.9574 44.572 52.5154 44.65 52.1167 44.806C51.718 44.9447 51.354 45.1353 51.0247 45.378C50.7127 45.6207 50.444 45.898 50.2187 46.21C49.9934 46.522 49.82 46.8513 49.6987 47.198C49.5427 47.6313 49.4474 48.0473 49.4127 48.446C49.378 48.8447 49.3607 49.278 49.3607 49.746V57ZM70.3943 52.788C70.637 53.9493 71.0703 54.7727 71.6943 55.258C72.3356 55.726 73.2456 55.96 74.4243 55.96C74.9963 55.96 75.4903 55.8907 75.9063 55.752C76.3223 55.6133 76.6603 55.4313 76.9203 55.206C77.1976 54.9633 77.4056 54.6947 77.5443 54.4C77.683 54.1053 77.7523 53.7933 77.7523 53.464C77.7523 52.8053 77.5356 52.32 77.1023 52.008C76.6863 51.6787 76.1576 51.4273 75.5163 51.254C74.875 51.0633 74.1816 50.9073 73.4363 50.786C72.691 50.6473 71.9976 50.448 71.3563 50.188C70.715 49.928 70.1776 49.5553 69.7443 49.07C69.3283 48.5847 69.1203 47.9 69.1203 47.016C69.1203 45.8893 69.5276 44.9707 70.3423 44.26C71.1743 43.532 72.3443 43.168 73.8523 43.168C75.3083 43.168 76.487 43.4973 77.3883 44.156C78.307 44.7973 78.8616 45.8807 79.0523 47.406H77.4663C77.3276 46.366 76.929 45.638 76.2703 45.222C75.629 44.7887 74.8143 44.572 73.8263 44.572C72.8383 44.572 72.0843 44.7887 71.5643 45.222C71.0443 45.638 70.7843 46.1927 70.7843 46.886C70.7843 47.4927 70.9923 47.9607 71.4083 48.29C71.8416 48.602 72.379 48.862 73.0203 49.07C73.6616 49.2607 74.355 49.434 75.1003 49.59C75.8456 49.746 76.539 49.9713 77.1803 50.266C77.8216 50.5433 78.3503 50.9247 78.7663 51.41C79.1996 51.8953 79.4163 52.5713 79.4163 53.438C79.4163 54.0793 79.2776 54.6513 79.0003 55.154C78.723 55.6393 78.3416 56.0467 77.8563 56.376C77.371 56.7053 76.7903 56.948 76.1143 57.104C75.4556 57.2773 74.7276 57.364 73.9303 57.364C73.133 57.364 72.4223 57.2427 71.7983 57C71.1916 56.7747 70.6716 56.454 70.2383 56.038C69.805 55.622 69.467 55.1367 69.2243 54.582C68.9816 54.0273 68.843 53.4293 68.8083 52.788H70.3943ZM92.2343 49.33C92.2343 48.6713 92.139 48.056 91.9483 47.484C91.775 46.8947 91.5063 46.392 91.1423 45.976C90.7956 45.5427 90.3536 45.2047 89.8163 44.962C89.279 44.702 88.6636 44.572 87.9703 44.572C87.277 44.572 86.6616 44.702 86.1243 44.962C85.6043 45.222 85.1536 45.5687 84.7723 46.002C84.4083 46.4353 84.1136 46.938 83.8883 47.51C83.663 48.082 83.5156 48.6887 83.4463 49.33H92.2343ZM83.4463 50.63C83.4463 51.358 83.5416 52.0513 83.7323 52.71C83.923 53.3513 84.2003 53.9147 84.5643 54.4C84.9456 54.868 85.4223 55.2493 85.9943 55.544C86.5663 55.8213 87.225 55.96 87.9703 55.96C88.993 55.96 89.8683 55.6913 90.5963 55.154C91.3243 54.6167 91.8096 53.854 92.0523 52.866H93.7943C93.6036 53.5073 93.3523 54.1053 93.0403 54.66C92.7283 55.1973 92.3383 55.674 91.8703 56.09C91.4023 56.4887 90.8476 56.8007 90.2063 57.026C89.565 57.2513 88.8196 57.364 87.9703 57.364C86.8956 57.364 85.9683 57.182 85.1883 56.818C84.4083 56.454 83.767 55.96 83.2643 55.336C82.7616 54.6947 82.389 53.9493 82.1463 53.1C81.9036 52.2333 81.7823 51.306 81.7823 50.318C81.7823 49.33 81.921 48.4027 82.1983 47.536C82.493 46.6693 82.9003 45.9153 83.4203 45.274C83.9576 44.6153 84.6076 44.104 85.3703 43.74C86.133 43.3587 86.9996 43.168 87.9703 43.168C89.825 43.168 91.281 43.8093 92.3383 45.092C93.3956 46.3573 93.9156 48.2033 93.8983 50.63H83.4463ZM95.5016 43.532H97.1916L101.56 55.076L105.928 43.532H107.618L102.392 57H100.65L95.5016 43.532ZM119.682 49.33C119.682 48.6713 119.586 48.056 119.396 47.484C119.222 46.8947 118.954 46.392 118.59 45.976C118.243 45.5427 117.801 45.2047 117.264 44.962C116.726 44.702 116.111 44.572 115.418 44.572C114.724 44.572 114.109 44.702 113.572 44.962C113.052 45.222 112.601 45.5687 112.22 46.002C111.856 46.4353 111.561 46.938 111.336 47.51C111.11 48.082 110.963 48.6887 110.894 49.33H119.682ZM110.894 50.63C110.894 51.358 110.989 52.0513 111.18 52.71C111.37 53.3513 111.648 53.9147 112.012 54.4C112.393 54.868 112.87 55.2493 113.442 55.544C114.014 55.8213 114.672 55.96 115.418 55.96C116.44 55.96 117.316 55.6913 118.044 55.154C118.772 54.6167 119.257 53.854 119.5 52.866H121.242C121.051 53.5073 120.8 54.1053 120.488 54.66C120.176 55.1973 119.786 55.674 119.318 56.09C118.85 56.4887 118.295 56.8007 117.654 57.026C117.012 57.2513 116.267 57.364 115.418 57.364C114.343 57.364 113.416 57.182 112.636 56.818C111.856 56.454 111.214 55.96 110.712 55.336C110.209 54.6947 109.836 53.9493 109.594 53.1C109.351 52.2333 109.23 51.306 109.23 50.318C109.23 49.33 109.368 48.4027 109.646 47.536C109.94 46.6693 110.348 45.9153 110.868 45.274C111.405 44.6153 112.055 44.104 112.818 43.74C113.58 43.3587 114.447 43.168 115.418 43.168C117.272 43.168 118.728 43.8093 119.786 45.092C120.843 46.3573 121.363 48.2033 121.346 50.63H110.894ZM125.939 57H124.379V43.532H125.939V45.404C126.563 44.7453 127.204 44.208 127.863 43.792C128.539 43.376 129.345 43.168 130.281 43.168C131.113 43.168 131.884 43.3153 132.595 43.61C133.306 43.8873 133.904 44.3813 134.389 45.092C134.718 45.5773 134.909 46.08 134.961 46.6C135.03 47.1027 135.065 47.6313 135.065 48.186V57H133.505V48.212C133.505 46.9987 133.236 46.0887 132.699 45.482C132.162 44.8753 131.269 44.572 130.021 44.572C129.536 44.572 129.094 44.65 128.695 44.806C128.296 44.9447 127.932 45.1353 127.603 45.378C127.291 45.6207 127.022 45.898 126.797 46.21C126.572 46.522 126.398 46.8513 126.277 47.198C126.121 47.6313 126.026 48.0473 125.991 48.446C125.956 48.8447 125.939 49.278 125.939 49.746V57ZM156.462 50.214C156.462 49.4513 156.358 48.732 156.15 48.056C155.942 47.3627 155.639 46.7647 155.24 46.262C154.859 45.742 154.382 45.3347 153.81 45.04C153.256 44.728 152.623 44.572 151.912 44.572C151.098 44.572 150.396 44.7367 149.806 45.066C149.217 45.378 148.732 45.8113 148.35 46.366C147.969 46.9207 147.692 47.5707 147.518 48.316C147.345 49.044 147.276 49.8327 147.31 50.682C147.31 51.5313 147.423 52.2853 147.648 52.944C147.891 53.5853 148.22 54.1313 148.636 54.582C149.052 55.0327 149.538 55.3793 150.092 55.622C150.647 55.8473 151.254 55.96 151.912 55.96C152.64 55.96 153.29 55.8127 153.862 55.518C154.434 55.2233 154.911 54.8247 155.292 54.322C155.674 53.802 155.96 53.1953 156.15 52.502C156.358 51.7913 156.462 51.0287 156.462 50.214ZM156.462 38.28H158.022V57H156.462V54.634H156.41C156.185 55.0847 155.89 55.4833 155.526 55.83C155.18 56.1593 154.79 56.4367 154.356 56.662C153.94 56.8873 153.507 57.0607 153.056 57.182C152.606 57.3033 152.164 57.364 151.73 57.364C150.638 57.364 149.711 57.182 148.948 56.818C148.186 56.454 147.553 55.96 147.05 55.336C146.565 54.6947 146.21 53.9407 145.984 53.074C145.759 52.2073 145.646 51.28 145.646 50.292C145.646 49.356 145.768 48.4547 146.01 47.588C146.253 46.7213 146.617 45.9673 147.102 45.326C147.605 44.6673 148.229 44.1473 148.974 43.766C149.737 43.3673 150.63 43.168 151.652 43.168C152.606 43.168 153.516 43.3847 154.382 43.818C155.266 44.234 155.96 44.858 156.462 45.69V38.28ZM170.771 49.928C170.112 50.2053 169.445 50.3873 168.769 50.474C168.093 50.5607 167.417 50.63 166.741 50.682C165.545 50.7687 164.609 51.0373 163.933 51.488C163.274 51.9387 162.945 52.6233 162.945 53.542C162.945 53.958 163.023 54.322 163.179 54.634C163.352 54.9287 163.569 55.18 163.829 55.388C164.106 55.5787 164.418 55.726 164.765 55.83C165.129 55.9167 165.493 55.96 165.857 55.96C166.481 55.96 167.088 55.882 167.677 55.726C168.266 55.57 168.786 55.336 169.237 55.024C169.705 54.6947 170.078 54.2873 170.355 53.802C170.632 53.2993 170.771 52.71 170.771 52.034V49.928ZM168.145 49.148C168.44 49.1133 168.786 49.0613 169.185 48.992C169.601 48.9227 169.939 48.8273 170.199 48.706C170.459 48.5847 170.615 48.3853 170.667 48.108C170.736 47.8133 170.771 47.5447 170.771 47.302C170.771 46.5047 170.511 45.8547 169.991 45.352C169.488 44.832 168.63 44.572 167.417 44.572C166.88 44.572 166.386 44.624 165.935 44.728C165.484 44.8147 165.086 44.9793 164.739 45.222C164.41 45.4473 164.132 45.7593 163.907 46.158C163.699 46.5393 163.56 47.0247 163.491 47.614H161.905C161.957 46.8167 162.139 46.1407 162.451 45.586C162.763 45.014 163.162 44.5547 163.647 44.208C164.15 43.844 164.722 43.584 165.363 43.428C166.022 43.2547 166.715 43.168 167.443 43.168C168.119 43.168 168.752 43.246 169.341 43.402C169.948 43.5407 170.468 43.7747 170.901 44.104C171.352 44.416 171.698 44.8407 171.941 45.378C172.201 45.9153 172.331 46.574 172.331 47.354V54.686C172.331 55.2927 172.435 55.6827 172.643 55.856C172.868 56.012 173.31 55.9687 173.969 55.726V56.948C173.848 56.9827 173.666 57.0347 173.423 57.104C173.198 57.1733 172.972 57.208 172.747 57.208C172.504 57.208 172.27 57.182 172.045 57.13C171.785 57.0953 171.577 57.0173 171.421 56.896C171.265 56.7573 171.135 56.6013 171.031 56.428C170.944 56.2373 170.884 56.038 170.849 55.83C170.814 55.6047 170.797 55.3707 170.797 55.128C170.138 55.856 169.384 56.4107 168.535 56.792C167.686 57.1733 166.767 57.364 165.779 57.364C165.19 57.364 164.618 57.286 164.063 57.13C163.526 56.974 163.049 56.7313 162.633 56.402C162.217 56.0727 161.888 55.674 161.645 55.206C161.402 54.7207 161.281 54.1487 161.281 53.49C161.281 51.202 162.85 49.85 165.987 49.434L168.145 49.148ZM176.3 60.666C176.508 60.7007 176.716 60.7353 176.924 60.77C177.15 60.8047 177.375 60.822 177.6 60.822C178.034 60.822 178.389 60.6833 178.666 60.406C178.944 60.1287 179.169 59.7907 179.342 59.392C179.533 59.0107 179.689 58.6033 179.81 58.17C179.932 57.754 180.07 57.3987 180.226 57.104L175 43.532H176.742L181.058 55.102L185.374 43.532H187.064L182.046 56.818C181.734 57.6673 181.431 58.43 181.136 59.106C180.859 59.782 180.556 60.354 180.226 60.822C179.914 61.3073 179.559 61.6713 179.16 61.914C178.779 62.174 178.32 62.304 177.782 62.304C177.505 62.304 177.236 62.2867 176.976 62.252C176.734 62.2173 176.508 62.174 176.3 62.122V60.666ZM190.314 52.788C190.557 53.9493 190.99 54.7727 191.614 55.258C192.256 55.726 193.166 55.96 194.344 55.96C194.916 55.96 195.41 55.8907 195.826 55.752C196.242 55.6133 196.58 55.4313 196.84 55.206C197.118 54.9633 197.326 54.6947 197.464 54.4C197.603 54.1053 197.672 53.7933 197.672 53.464C197.672 52.8053 197.456 52.32 197.022 52.008C196.606 51.6787 196.078 51.4273 195.436 51.254C194.795 51.0633 194.102 50.9073 193.356 50.786C192.611 50.6473 191.918 50.448 191.276 50.188C190.635 49.928 190.098 49.5553 189.664 49.07C189.248 48.5847 189.04 47.9 189.04 47.016C189.04 45.8893 189.448 44.9707 190.262 44.26C191.094 43.532 192.264 43.168 193.772 43.168C195.228 43.168 196.407 43.4973 197.308 44.156C198.227 44.7973 198.782 45.8807 198.972 47.406H197.386C197.248 46.366 196.849 45.638 196.19 45.222C195.549 44.7887 194.734 44.572 193.746 44.572C192.758 44.572 192.004 44.7887 191.484 45.222C190.964 45.638 190.704 46.1927 190.704 46.886C190.704 47.4927 190.912 47.9607 191.328 48.29C191.762 48.602 192.299 48.862 192.94 49.07C193.582 49.2607 194.275 49.434 195.02 49.59C195.766 49.746 196.459 49.9713 197.1 50.266C197.742 50.5433 198.27 50.9247 198.686 51.41C199.12 51.8953 199.336 52.5713 199.336 53.438C199.336 54.0793 199.198 54.6513 198.92 55.154C198.643 55.6393 198.262 56.0467 197.776 56.376C197.291 56.7053 196.71 56.948 196.034 57.104C195.376 57.2773 194.648 57.364 193.85 57.364C193.053 57.364 192.342 57.2427 191.718 57C191.112 56.7747 190.592 56.454 190.158 56.038C189.725 55.622 189.387 55.1367 189.144 54.582C188.902 54.0273 188.763 53.4293 188.728 52.788H190.314ZM217.831 48.836V47.328H225.839V57H224.331V53.802C224.001 54.3567 223.62 54.868 223.187 55.336C222.771 55.7867 222.285 56.1767 221.731 56.506C221.176 56.818 220.535 57.0607 219.807 57.234C219.079 57.4073 218.255 57.494 217.337 57.494C216.158 57.494 215.066 57.286 214.061 56.87C213.055 56.454 212.189 55.8387 211.461 55.024C210.733 54.192 210.161 53.152 209.745 51.904C209.346 50.656 209.147 49.2 209.147 47.536C209.147 46.1667 209.32 44.8927 209.667 43.714C210.013 42.518 210.542 41.4867 211.253 40.62C211.981 39.736 212.882 39.0427 213.957 38.54C215.049 38.0373 216.331 37.786 217.805 37.786C218.793 37.786 219.711 37.9073 220.561 38.15C221.427 38.3927 222.199 38.7653 222.875 39.268C223.568 39.7533 224.149 40.3687 224.617 41.114C225.085 41.842 225.423 42.7087 225.631 43.714H223.811C223.655 43.0207 223.386 42.3967 223.005 41.842C222.641 41.2873 222.199 40.828 221.679 40.464C221.159 40.0827 220.578 39.7967 219.937 39.606C219.295 39.398 218.628 39.294 217.935 39.294C216.704 39.294 215.647 39.5107 214.763 39.944C213.879 40.3773 213.151 40.9927 212.579 41.79C212.007 42.57 211.582 43.5147 211.305 44.624C211.045 45.716 210.915 46.9207 210.915 48.238C210.915 49.278 211.062 50.266 211.357 51.202C211.669 52.138 212.111 52.9613 212.683 53.672C213.272 54.3827 213.983 54.946 214.815 55.362C215.664 55.778 216.626 55.986 217.701 55.986C218.203 55.986 218.723 55.934 219.261 55.83C219.798 55.7087 220.318 55.518 220.821 55.258C221.323 54.998 221.791 54.66 222.225 54.244C222.658 53.828 223.031 53.3167 223.343 52.71C223.637 52.1207 223.837 51.5053 223.941 50.864C224.062 50.2227 224.131 49.5467 224.149 48.836H217.831ZM235.233 57.364C234.366 57.3467 233.552 57.1907 232.789 56.896C232.044 56.6013 231.385 56.1593 230.813 55.57C230.258 54.9807 229.816 54.244 229.487 53.36C229.158 52.476 228.993 51.4447 228.993 50.266C228.993 49.278 229.123 48.3593 229.383 47.51C229.643 46.6433 230.033 45.8893 230.553 45.248C231.073 44.6067 231.723 44.104 232.503 43.74C233.283 43.3587 234.193 43.168 235.233 43.168C236.29 43.168 237.209 43.3587 237.989 43.74C238.769 44.104 239.419 44.6067 239.939 45.248C240.459 45.872 240.84 46.6173 241.083 47.484C241.343 48.3507 241.473 49.278 241.473 50.266C241.473 51.3407 241.326 52.3113 241.031 53.178C240.736 54.0447 240.312 54.79 239.757 55.414C239.22 56.038 238.561 56.5233 237.781 56.87C237.018 57.1993 236.169 57.364 235.233 57.364ZM239.809 50.266C239.809 49.4687 239.722 48.7233 239.549 48.03C239.376 47.3367 239.107 46.7387 238.743 46.236C238.379 45.716 237.911 45.3087 237.339 45.014C236.767 44.7193 236.065 44.572 235.233 44.572C234.418 44.572 233.716 44.7367 233.127 45.066C232.555 45.378 232.087 45.8027 231.723 46.34C231.359 46.86 231.09 47.4667 230.917 48.16C230.744 48.836 230.657 49.538 230.657 50.266C230.657 51.098 230.752 51.8693 230.943 52.58C231.151 53.2733 231.446 53.8713 231.827 54.374C232.208 54.8767 232.685 55.2667 233.257 55.544C233.829 55.8213 234.488 55.96 235.233 55.96C236.048 55.96 236.741 55.804 237.313 55.492C237.902 55.1627 238.379 54.7293 238.743 54.192C239.107 53.6547 239.376 53.048 239.549 52.372C239.722 51.696 239.809 50.994 239.809 50.266ZM254.724 50.214C254.724 49.4513 254.62 48.732 254.412 48.056C254.204 47.3627 253.901 46.7647 253.502 46.262C253.121 45.742 252.644 45.3347 252.072 45.04C251.517 44.728 250.885 44.572 250.174 44.572C249.359 44.572 248.657 44.7367 248.068 45.066C247.479 45.378 246.993 45.8113 246.612 46.366C246.231 46.9207 245.953 47.5707 245.78 48.316C245.607 49.044 245.537 49.8327 245.572 50.682C245.572 51.5313 245.685 52.2853 245.91 52.944C246.153 53.5853 246.482 54.1313 246.898 54.582C247.314 55.0327 247.799 55.3793 248.354 55.622C248.909 55.8473 249.515 55.96 250.174 55.96C250.902 55.96 251.552 55.8127 252.124 55.518C252.696 55.2233 253.173 54.8247 253.554 54.322C253.935 53.802 254.221 53.1953 254.412 52.502C254.62 51.7913 254.724 51.0287 254.724 50.214ZM254.724 38.28H256.284V57H254.724V54.634H254.672C254.447 55.0847 254.152 55.4833 253.788 55.83C253.441 56.1593 253.051 56.4367 252.618 56.662C252.202 56.8873 251.769 57.0607 251.318 57.182C250.867 57.3033 250.425 57.364 249.992 57.364C248.9 57.364 247.973 57.182 247.21 56.818C246.447 56.454 245.815 55.96 245.312 55.336C244.827 54.6947 244.471 53.9407 244.246 53.074C244.021 52.2073 243.908 51.28 243.908 50.292C243.908 49.356 244.029 48.4547 244.272 47.588C244.515 46.7213 244.879 45.9673 245.364 45.326C245.867 44.6673 246.491 44.1473 247.236 43.766C247.999 43.3673 248.891 43.168 249.914 43.168C250.867 43.168 251.777 43.3847 252.644 43.818C253.528 44.234 254.221 44.858 254.724 45.69V38.28ZM276.997 47.77C276.72 46.7647 276.243 45.9847 275.567 45.43C274.891 44.858 274.033 44.572 272.993 44.572C272.196 44.572 271.511 44.7367 270.939 45.066C270.367 45.3953 269.899 45.8373 269.535 46.392C269.171 46.9293 268.902 47.5447 268.729 48.238C268.556 48.914 268.469 49.5987 268.469 50.292C268.469 51.0027 268.547 51.696 268.703 52.372C268.876 53.048 269.145 53.6547 269.509 54.192C269.873 54.7293 270.341 55.1627 270.913 55.492C271.485 55.804 272.178 55.96 272.993 55.96C274.154 55.96 275.082 55.6393 275.775 54.998C276.486 54.3567 276.936 53.4727 277.127 52.346H278.791C278.652 53.0913 278.427 53.776 278.115 54.4C277.82 55.0067 277.43 55.5353 276.945 55.986C276.477 56.4193 275.914 56.7573 275.255 57C274.596 57.2427 273.842 57.364 272.993 57.364C271.918 57.364 270.991 57.182 270.211 56.818C269.431 56.454 268.79 55.96 268.287 55.336C267.784 54.6947 267.412 53.9407 267.169 53.074C266.926 52.2073 266.805 51.28 266.805 50.292C266.805 49.356 266.935 48.4633 267.195 47.614C267.472 46.7473 267.871 45.9847 268.391 45.326C268.911 44.6673 269.552 44.1473 270.315 43.766C271.095 43.3673 271.988 43.168 272.993 43.168C274.553 43.168 275.81 43.5407 276.763 44.286C277.734 45.0313 278.34 46.1927 278.583 47.77H276.997ZM283.54 57H281.98V43.532H283.54V46.054H283.592C284.026 44.9793 284.58 44.234 285.256 43.818C285.95 43.3847 286.86 43.168 287.986 43.168V44.858C287.102 44.8407 286.374 44.9793 285.802 45.274C285.23 45.5687 284.771 45.9673 284.424 46.47C284.095 46.9727 283.861 47.5707 283.722 48.264C283.601 48.94 283.54 49.6507 283.54 50.396V57ZM299.853 49.33C299.853 48.6713 299.758 48.056 299.567 47.484C299.394 46.8947 299.125 46.392 298.761 45.976C298.415 45.5427 297.973 45.2047 297.435 44.962C296.898 44.702 296.283 44.572 295.589 44.572C294.896 44.572 294.281 44.702 293.743 44.962C293.223 45.222 292.773 45.5687 292.391 46.002C292.027 46.4353 291.733 46.938 291.507 47.51C291.282 48.082 291.135 48.6887 291.065 49.33H299.853ZM291.065 50.63C291.065 51.358 291.161 52.0513 291.351 52.71C291.542 53.3513 291.819 53.9147 292.183 54.4C292.565 54.868 293.041 55.2493 293.613 55.544C294.185 55.8213 294.844 55.96 295.589 55.96C296.612 55.96 297.487 55.6913 298.215 55.154C298.943 54.6167 299.429 53.854 299.671 52.866H301.413C301.223 53.5073 300.971 54.1053 300.659 54.66C300.347 55.1973 299.957 55.674 299.489 56.09C299.021 56.4887 298.467 56.8007 297.825 57.026C297.184 57.2513 296.439 57.364 295.589 57.364C294.515 57.364 293.587 57.182 292.807 56.818C292.027 56.454 291.386 55.96 290.883 55.336C290.381 54.6947 290.008 53.9493 289.765 53.1C289.523 52.2333 289.401 51.306 289.401 50.318C289.401 49.33 289.54 48.4027 289.817 47.536C290.112 46.6693 290.519 45.9153 291.039 45.274C291.577 44.6153 292.227 44.104 292.989 43.74C293.752 43.3587 294.619 43.168 295.589 43.168C297.444 43.168 298.9 43.8093 299.957 45.092C301.015 46.3573 301.535 48.2033 301.517 50.63H291.065ZM313.365 49.928C312.706 50.2053 312.039 50.3873 311.363 50.474C310.687 50.5607 310.011 50.63 309.335 50.682C308.139 50.7687 307.203 51.0373 306.527 51.488C305.868 51.9387 305.539 52.6233 305.539 53.542C305.539 53.958 305.617 54.322 305.773 54.634C305.946 54.9287 306.163 55.18 306.423 55.388C306.7 55.5787 307.012 55.726 307.359 55.83C307.723 55.9167 308.087 55.96 308.451 55.96C309.075 55.96 309.681 55.882 310.271 55.726C310.86 55.57 311.38 55.336 311.831 55.024C312.299 54.6947 312.671 54.2873 312.949 53.802C313.226 53.2993 313.365 52.71 313.365 52.034V49.928ZM310.739 49.148C311.033 49.1133 311.38 49.0613 311.779 48.992C312.195 48.9227 312.533 48.8273 312.793 48.706C313.053 48.5847 313.209 48.3853 313.261 48.108C313.33 47.8133 313.365 47.5447 313.365 47.302C313.365 46.5047 313.105 45.8547 312.585 45.352C312.082 44.832 311.224 44.572 310.011 44.572C309.473 44.572 308.979 44.624 308.529 44.728C308.078 44.8147 307.679 44.9793 307.333 45.222C307.003 45.4473 306.726 45.7593 306.501 46.158C306.293 46.5393 306.154 47.0247 306.085 47.614H304.499C304.551 46.8167 304.733 46.1407 305.045 45.586C305.357 45.014 305.755 44.5547 306.241 44.208C306.743 43.844 307.315 43.584 307.957 43.428C308.615 43.2547 309.309 43.168 310.037 43.168C310.713 43.168 311.345 43.246 311.935 43.402C312.541 43.5407 313.061 43.7747 313.495 44.104C313.945 44.416 314.292 44.8407 314.535 45.378C314.795 45.9153 314.925 46.574 314.925 47.354V54.686C314.925 55.2927 315.029 55.6827 315.237 55.856C315.462 56.012 315.904 55.9687 316.563 55.726V56.948C316.441 56.9827 316.259 57.0347 316.017 57.104C315.791 57.1733 315.566 57.208 315.341 57.208C315.098 57.208 314.864 57.182 314.639 57.13C314.379 57.0953 314.171 57.0173 314.015 56.896C313.859 56.7573 313.729 56.6013 313.625 56.428C313.538 56.2373 313.477 56.038 313.443 55.83C313.408 55.6047 313.391 55.3707 313.391 55.128C312.732 55.856 311.978 56.4107 311.129 56.792C310.279 57.1733 309.361 57.364 308.373 57.364C307.783 57.364 307.211 57.286 306.657 57.13C306.119 56.974 305.643 56.7313 305.227 56.402C304.811 56.0727 304.481 55.674 304.239 55.206C303.996 54.7207 303.875 54.1487 303.875 53.49C303.875 51.202 305.443 49.85 308.581 49.434L310.739 49.148ZM323.73 57.052C323.539 57.0867 323.288 57.1473 322.976 57.234C322.664 57.3207 322.317 57.364 321.936 57.364C321.156 57.364 320.558 57.1733 320.142 56.792C319.743 56.3933 319.544 55.6913 319.544 54.686V44.832H317.646V43.532H319.544V39.788H321.104V43.532H323.626V44.832H321.104V54.062C321.104 54.3913 321.113 54.6773 321.13 54.92C321.147 55.1627 321.199 55.362 321.286 55.518C321.373 55.674 321.503 55.7867 321.676 55.856C321.867 55.9253 322.127 55.96 322.456 55.96C322.664 55.96 322.872 55.9427 323.08 55.908C323.305 55.8733 323.522 55.83 323.73 55.778V57.052ZM335.984 49.33C335.984 48.6713 335.889 48.056 335.698 47.484C335.525 46.8947 335.256 46.392 334.892 45.976C334.546 45.5427 334.104 45.2047 333.566 44.962C333.029 44.702 332.414 44.572 331.72 44.572C331.027 44.572 330.412 44.702 329.874 44.962C329.354 45.222 328.904 45.5687 328.522 46.002C328.158 46.4353 327.864 46.938 327.638 47.51C327.413 48.082 327.266 48.6887 327.196 49.33H335.984ZM327.196 50.63C327.196 51.358 327.292 52.0513 327.482 52.71C327.673 53.3513 327.95 53.9147 328.314 54.4C328.696 54.868 329.172 55.2493 329.744 55.544C330.316 55.8213 330.975 55.96 331.72 55.96C332.743 55.96 333.618 55.6913 334.346 55.154C335.074 54.6167 335.56 53.854 335.802 52.866H337.544C337.354 53.5073 337.102 54.1053 336.79 54.66C336.478 55.1973 336.088 55.674 335.62 56.09C335.152 56.4887 334.598 56.8007 333.956 57.026C333.315 57.2513 332.57 57.364 331.72 57.364C330.646 57.364 329.718 57.182 328.938 56.818C328.158 56.454 327.517 55.96 327.014 55.336C326.512 54.6947 326.139 53.9493 325.896 53.1C325.654 52.2333 325.532 51.306 325.532 50.318C325.532 49.33 325.671 48.4027 325.948 47.536C326.243 46.6693 326.65 45.9153 327.17 45.274C327.708 44.6153 328.358 44.104 329.12 43.74C329.883 43.3587 330.75 43.168 331.72 43.168C333.575 43.168 335.031 43.8093 336.088 45.092C337.146 46.3573 337.666 48.2033 337.648 50.63H327.196ZM351.082 50.214C351.082 49.4513 350.978 48.732 350.77 48.056C350.562 47.3627 350.258 46.7647 349.86 46.262C349.478 45.742 349.002 45.3347 348.43 45.04C347.875 44.728 347.242 44.572 346.532 44.572C345.717 44.572 345.015 44.7367 344.426 45.066C343.836 45.378 343.351 45.8113 342.97 46.366C342.588 46.9207 342.311 47.5707 342.138 48.316C341.964 49.044 341.895 49.8327 341.93 50.682C341.93 51.5313 342.042 52.2853 342.268 52.944C342.51 53.5853 342.84 54.1313 343.256 54.582C343.672 55.0327 344.157 55.3793 344.712 55.622C345.266 55.8473 345.873 55.96 346.532 55.96C347.26 55.96 347.91 55.8127 348.482 55.518C349.054 55.2233 349.53 54.8247 349.912 54.322C350.293 53.802 350.579 53.1953 350.77 52.502C350.978 51.7913 351.082 51.0287 351.082 50.214ZM351.082 38.28H352.642V57H351.082V54.634H351.03C350.804 55.0847 350.51 55.4833 350.146 55.83C349.799 56.1593 349.409 56.4367 348.976 56.662C348.56 56.8873 348.126 57.0607 347.676 57.182C347.225 57.3033 346.783 57.364 346.35 57.364C345.258 57.364 344.33 57.182 343.568 56.818C342.805 56.454 342.172 55.96 341.67 55.336C341.184 54.6947 340.829 53.9407 340.604 53.074C340.378 52.2073 340.266 51.28 340.266 50.292C340.266 49.356 340.387 48.4547 340.63 47.588C340.872 46.7213 341.236 45.9673 341.722 45.326C342.224 44.6673 342.848 44.1473 343.594 43.766C344.356 43.3673 345.249 43.168 346.272 43.168C347.225 43.168 348.135 43.3847 349.002 43.818C349.886 44.234 350.579 44.858 351.082 45.69V38.28ZM368.544 57.052C368.354 57.0867 368.102 57.1473 367.79 57.234C367.478 57.3207 367.132 57.364 366.75 57.364C365.97 57.364 365.372 57.1733 364.956 56.792C364.558 56.3933 364.358 55.6913 364.358 54.686V44.832H362.46V43.532H364.358V39.788H365.918V43.532H368.44V44.832H365.918V54.062C365.918 54.3913 365.927 54.6773 365.944 54.92C365.962 55.1627 366.014 55.362 366.1 55.518C366.187 55.674 366.317 55.7867 366.49 55.856C366.681 55.9253 366.941 55.96 367.27 55.96C367.478 55.96 367.686 55.9427 367.894 55.908C368.12 55.8733 368.336 55.83 368.544 55.778V57.052ZM371.049 57V38.28H372.609V45.404C373.233 44.7453 373.874 44.208 374.533 43.792C375.209 43.376 376.015 43.168 376.951 43.168C377.783 43.168 378.554 43.3153 379.265 43.61C379.975 43.8873 380.573 44.3813 381.059 45.092C381.388 45.5773 381.579 46.08 381.631 46.6C381.7 47.1027 381.735 47.6313 381.735 48.186V57H380.175V48.212C380.175 46.9987 379.906 46.0887 379.369 45.482C378.831 44.8753 377.939 44.572 376.691 44.572C376.205 44.572 375.763 44.65 375.365 44.806C374.966 44.9447 374.602 45.1353 374.273 45.378C373.961 45.6207 373.692 45.898 373.467 46.21C373.241 46.522 373.068 46.8513 372.947 47.198C372.791 47.6313 372.695 48.0473 372.661 48.446C372.626 48.8447 372.609 49.278 372.609 49.746V57H371.049ZM395.246 49.33C395.246 48.6713 395.151 48.056 394.96 47.484C394.787 46.8947 394.518 46.392 394.154 45.976C393.807 45.5427 393.365 45.2047 392.828 44.962C392.291 44.702 391.675 44.572 390.982 44.572C390.289 44.572 389.673 44.702 389.136 44.962C388.616 45.222 388.165 45.5687 387.784 46.002C387.42 46.4353 387.125 46.938 386.9 47.51C386.675 48.082 386.527 48.6887 386.458 49.33H395.246ZM386.458 50.63C386.458 51.358 386.553 52.0513 386.744 52.71C386.935 53.3513 387.212 53.9147 387.576 54.4C387.957 54.868 388.434 55.2493 389.006 55.544C389.578 55.8213 390.237 55.96 390.982 55.96C392.005 55.96 392.88 55.6913 393.608 55.154C394.336 54.6167 394.821 53.854 395.064 52.866H396.806C396.615 53.5073 396.364 54.1053 396.052 54.66C395.74 55.1973 395.35 55.674 394.882 56.09C394.414 56.4887 393.859 56.8007 393.218 57.026C392.577 57.2513 391.831 57.364 390.982 57.364C389.907 57.364 388.98 57.182 388.2 56.818C387.42 56.454 386.779 55.96 386.276 55.336C385.773 54.6947 385.401 53.9493 385.158 53.1C384.915 52.2333 384.794 51.306 384.794 50.318C384.794 49.33 384.933 48.4027 385.21 47.536C385.505 46.6693 385.912 45.9153 386.432 45.274C386.969 44.6153 387.619 44.104 388.382 43.74C389.145 43.3587 390.011 43.168 390.982 43.168C392.837 43.168 394.293 43.8093 395.35 45.092C396.407 46.3573 396.927 48.2033 396.91 50.63H386.458ZM65.0032 84.92L68.5392 73.532H70.1252L65.7572 87H64.0932L61.1552 75.69H61.1032L58.1132 87H56.2412L52.1332 73.532H53.6932L57.1772 85.024L60.2972 73.532H62.0392L65.0032 84.92ZM77.7348 87.364C76.8682 87.3467 76.0535 87.1907 75.2908 86.896C74.5455 86.6013 73.8868 86.1593 73.3148 85.57C72.7602 84.9807 72.3182 84.244 71.9888 83.36C71.6595 82.476 71.4948 81.4447 71.4948 80.266C71.4948 79.278 71.6248 78.3593 71.8848 77.51C72.1448 76.6433 72.5348 75.8893 73.0548 75.248C73.5748 74.6067 74.2248 74.104 75.0048 73.74C75.7848 73.3587 76.6948 73.168 77.7348 73.168C78.7922 73.168 79.7108 73.3587 80.4908 73.74C81.2708 74.104 81.9208 74.6067 82.4408 75.248C82.9608 75.872 83.3422 76.6173 83.5848 77.484C83.8448 78.3507 83.9748 79.278 83.9748 80.266C83.9748 81.3407 83.8275 82.3113 83.5328 83.178C83.2382 84.0447 82.8135 84.79 82.2588 85.414C81.7215 86.038 81.0628 86.5233 80.2828 86.87C79.5202 87.1993 78.6708 87.364 77.7348 87.364ZM82.3108 80.266C82.3108 79.4687 82.2242 78.7233 82.0508 78.03C81.8775 77.3367 81.6088 76.7387 81.2448 76.236C80.8808 75.716 80.4128 75.3087 79.8408 75.014C79.2688 74.7193 78.5668 74.572 77.7348 74.572C76.9202 74.572 76.2182 74.7367 75.6288 75.066C75.0568 75.378 74.5888 75.8027 74.2248 76.34C73.8608 76.86 73.5922 77.4667 73.4188 78.16C73.2455 78.836 73.1588 79.538 73.1588 80.266C73.1588 81.098 73.2542 81.8693 73.4448 82.58C73.6528 83.2733 73.9475 83.8713 74.3288 84.374C74.7102 84.8767 75.1868 85.2667 75.7588 85.544C76.3308 85.8213 76.9895 85.96 77.7348 85.96C78.5495 85.96 79.2428 85.804 79.8148 85.492C80.4042 85.1627 80.8808 84.7293 81.2448 84.192C81.6088 83.6547 81.8775 83.048 82.0508 82.372C82.2242 81.696 82.3108 80.994 82.3108 80.266ZM88.4641 87H86.9041V73.532H88.4641V76.054H88.5161C88.9494 74.9793 89.5041 74.234 90.1801 73.818C90.8734 73.3847 91.7834 73.168 92.9101 73.168V74.858C92.0261 74.8407 91.2981 74.9793 90.7261 75.274C90.1541 75.5687 89.6948 75.9673 89.3481 76.47C89.0188 76.9727 88.7848 77.5707 88.6461 78.264C88.5248 78.94 88.4641 79.6507 88.4641 80.396V87ZM95.7183 87V68.28H97.2783V87H95.7183ZM111.648 80.214C111.648 79.4513 111.544 78.732 111.336 78.056C111.128 77.3627 110.825 76.7647 110.426 76.262C110.045 75.742 109.568 75.3347 108.996 75.04C108.441 74.728 107.809 74.572 107.098 74.572C106.283 74.572 105.581 74.7367 104.992 75.066C104.403 75.378 103.917 75.8113 103.536 76.366C103.155 76.9207 102.877 77.5707 102.704 78.316C102.531 79.044 102.461 79.8327 102.496 80.682C102.496 81.5313 102.609 82.2853 102.834 82.944C103.077 83.5853 103.406 84.1313 103.822 84.582C104.238 85.0327 104.723 85.3793 105.278 85.622C105.833 85.8473 106.439 85.96 107.098 85.96C107.826 85.96 108.476 85.8127 109.048 85.518C109.62 85.2233 110.097 84.8247 110.478 84.322C110.859 83.802 111.145 83.1953 111.336 82.502C111.544 81.7913 111.648 81.0287 111.648 80.214ZM111.648 68.28H113.208V87H111.648V84.634H111.596C111.371 85.0847 111.076 85.4833 110.712 85.83C110.365 86.1593 109.975 86.4367 109.542 86.662C109.126 86.8873 108.693 87.0607 108.242 87.182C107.791 87.3033 107.349 87.364 106.916 87.364C105.824 87.364 104.897 87.182 104.134 86.818C103.371 86.454 102.739 85.96 102.236 85.336C101.751 84.6947 101.395 83.9407 101.17 83.074C100.945 82.2073 100.832 81.28 100.832 80.292C100.832 79.356 100.953 78.4547 101.196 77.588C101.439 76.7213 101.803 75.9673 102.288 75.326C102.791 74.6673 103.415 74.1473 104.16 73.766C104.923 73.3673 105.815 73.168 106.838 73.168C107.791 73.168 108.701 73.3847 109.568 73.818C110.452 74.234 111.145 74.858 111.648 75.69V68.28ZM133.193 79.928C132.534 80.2053 131.867 80.3873 131.191 80.474C130.515 80.5607 129.839 80.63 129.163 80.682C127.967 80.7687 127.031 81.0373 126.355 81.488C125.696 81.9387 125.367 82.6233 125.367 83.542C125.367 83.958 125.445 84.322 125.601 84.634C125.774 84.9287 125.991 85.18 126.251 85.388C126.528 85.5787 126.84 85.726 127.187 85.83C127.551 85.9167 127.915 85.96 128.279 85.96C128.903 85.96 129.51 85.882 130.099 85.726C130.688 85.57 131.208 85.336 131.659 85.024C132.127 84.6947 132.5 84.2873 132.777 83.802C133.054 83.2993 133.193 82.71 133.193 82.034V79.928ZM130.567 79.148C130.862 79.1133 131.208 79.0613 131.607 78.992C132.023 78.9227 132.361 78.8273 132.621 78.706C132.881 78.5847 133.037 78.3853 133.089 78.108C133.158 77.8133 133.193 77.5447 133.193 77.302C133.193 76.5047 132.933 75.8547 132.413 75.352C131.91 74.832 131.052 74.572 129.839 74.572C129.302 74.572 128.808 74.624 128.357 74.728C127.906 74.8147 127.508 74.9793 127.161 75.222C126.832 75.4473 126.554 75.7593 126.329 76.158C126.121 76.5393 125.982 77.0247 125.913 77.614H124.327C124.379 76.8167 124.561 76.1407 124.873 75.586C125.185 75.014 125.584 74.5547 126.069 74.208C126.572 73.844 127.144 73.584 127.785 73.428C128.444 73.2547 129.137 73.168 129.865 73.168C130.541 73.168 131.174 73.246 131.763 73.402C132.37 73.5407 132.89 73.7747 133.323 74.104C133.774 74.416 134.12 74.8407 134.363 75.378C134.623 75.9153 134.753 76.574 134.753 77.354V84.686C134.753 85.2927 134.857 85.6827 135.065 85.856C135.29 86.012 135.732 85.9687 136.391 85.726V86.948C136.27 86.9827 136.088 87.0347 135.845 87.104C135.62 87.1733 135.394 87.208 135.169 87.208C134.926 87.208 134.692 87.182 134.467 87.13C134.207 87.0953 133.999 87.0173 133.843 86.896C133.687 86.7573 133.557 86.6013 133.453 86.428C133.366 86.2373 133.306 86.038 133.271 85.83C133.236 85.6047 133.219 85.3707 133.219 85.128C132.56 85.856 131.806 86.4107 130.957 86.792C130.108 87.1733 129.189 87.364 128.201 87.364C127.612 87.364 127.04 87.286 126.485 87.13C125.948 86.974 125.471 86.7313 125.055 86.402C124.639 86.0727 124.31 85.674 124.067 85.206C123.824 84.7207 123.703 84.1487 123.703 83.49C123.703 81.202 125.272 79.85 128.409 79.434L130.567 79.148ZM140.386 87H138.826V73.532H140.386V75.404C141.01 74.7453 141.651 74.208 142.31 73.792C142.986 73.376 143.792 73.168 144.728 73.168C145.56 73.168 146.331 73.3153 147.042 73.61C147.753 73.8873 148.351 74.3813 148.836 75.092C149.165 75.5773 149.356 76.08 149.408 76.6C149.477 77.1027 149.512 77.6313 149.512 78.186V87H147.952V78.212C147.952 76.9987 147.683 76.0887 147.146 75.482C146.609 74.8753 145.716 74.572 144.468 74.572C143.983 74.572 143.541 74.65 143.142 74.806C142.743 74.9447 142.379 75.1353 142.05 75.378C141.738 75.6207 141.469 75.898 141.244 76.21C141.019 76.522 140.845 76.8513 140.724 77.198C140.568 77.6313 140.473 78.0473 140.438 78.446C140.403 78.8447 140.386 79.278 140.386 79.746V87ZM163.673 80.214C163.673 79.4513 163.569 78.732 163.361 78.056C163.153 77.3627 162.85 76.7647 162.451 76.262C162.07 75.742 161.593 75.3347 161.021 75.04C160.467 74.728 159.834 74.572 159.123 74.572C158.309 74.572 157.607 74.7367 157.017 75.066C156.428 75.378 155.943 75.8113 155.561 76.366C155.18 76.9207 154.903 77.5707 154.729 78.316C154.556 79.044 154.487 79.8327 154.521 80.682C154.521 81.5313 154.634 82.2853 154.859 82.944C155.102 83.5853 155.431 84.1313 155.847 84.582C156.263 85.0327 156.749 85.3793 157.303 85.622C157.858 85.8473 158.465 85.96 159.123 85.96C159.851 85.96 160.501 85.8127 161.073 85.518C161.645 85.2233 162.122 84.8247 162.503 84.322C162.885 83.802 163.171 83.1953 163.361 82.502C163.569 81.7913 163.673 81.0287 163.673 80.214ZM163.673 68.28H165.233V87H163.673V84.634H163.621C163.396 85.0847 163.101 85.4833 162.737 85.83C162.391 86.1593 162.001 86.4367 161.567 86.662C161.151 86.8873 160.718 87.0607 160.267 87.182C159.817 87.3033 159.375 87.364 158.941 87.364C157.849 87.364 156.922 87.182 156.159 86.818C155.397 86.454 154.764 85.96 154.261 85.336C153.776 84.6947 153.421 83.9407 153.195 83.074C152.97 82.2073 152.857 81.28 152.857 80.292C152.857 79.356 152.979 78.4547 153.221 77.588C153.464 76.7213 153.828 75.9673 154.313 75.326C154.816 74.6673 155.44 74.1473 156.185 73.766C156.948 73.3673 157.841 73.168 158.863 73.168C159.817 73.168 160.727 73.3847 161.593 73.818C162.477 74.234 163.171 74.858 163.673 75.69V68.28ZM176.181 87V73.532H177.741V87H176.181ZM176.103 70.594V68.28H177.819V70.594H176.103ZM183.271 87H181.711V73.532H183.271V75.404C183.895 74.7453 184.536 74.208 185.195 73.792C185.871 73.376 186.677 73.168 187.613 73.168C188.445 73.168 189.216 73.3153 189.927 73.61C190.638 73.8873 191.236 74.3813 191.721 75.092C192.05 75.5773 192.241 76.08 192.293 76.6C192.362 77.1027 192.397 77.6313 192.397 78.186V87H190.837V78.212C190.837 76.9987 190.568 76.0887 190.031 75.482C189.494 74.8753 188.601 74.572 187.353 74.572C186.868 74.572 186.426 74.65 186.027 74.806C185.628 74.9447 185.264 75.1353 184.935 75.378C184.623 75.6207 184.354 75.898 184.129 76.21C183.904 76.522 183.73 76.8513 183.609 77.198C183.453 77.6313 183.358 78.0473 183.323 78.446C183.288 78.8447 183.271 79.278 183.271 79.746V87ZM204.304 82.788C204.547 83.9493 204.98 84.7727 205.604 85.258C206.246 85.726 207.156 85.96 208.334 85.96C208.906 85.96 209.4 85.8907 209.816 85.752C210.232 85.6133 210.57 85.4313 210.83 85.206C211.108 84.9633 211.316 84.6947 211.454 84.4C211.593 84.1053 211.662 83.7933 211.662 83.464C211.662 82.8053 211.446 82.32 211.012 82.008C210.596 81.6787 210.068 81.4273 209.426 81.254C208.785 81.0633 208.092 80.9073 207.346 80.786C206.601 80.6473 205.908 80.448 205.266 80.188C204.625 79.928 204.088 79.5553 203.654 79.07C203.238 78.5847 203.03 77.9 203.03 77.016C203.03 75.8893 203.438 74.9707 204.252 74.26C205.084 73.532 206.254 73.168 207.762 73.168C209.218 73.168 210.397 73.4973 211.298 74.156C212.217 74.7973 212.772 75.8807 212.962 77.406H211.376C211.238 76.366 210.839 75.638 210.18 75.222C209.539 74.7887 208.724 74.572 207.736 74.572C206.748 74.572 205.994 74.7887 205.474 75.222C204.954 75.638 204.694 76.1927 204.694 76.886C204.694 77.4927 204.902 77.9607 205.318 78.29C205.752 78.602 206.289 78.862 206.93 79.07C207.572 79.2607 208.265 79.434 209.01 79.59C209.756 79.746 210.449 79.9713 211.09 80.266C211.732 80.5433 212.26 80.9247 212.676 81.41C213.11 81.8953 213.326 82.5713 213.326 83.438C213.326 84.0793 213.188 84.6513 212.91 85.154C212.633 85.6393 212.252 86.0467 211.766 86.376C211.281 86.7053 210.7 86.948 210.024 87.104C209.366 87.2773 208.638 87.364 207.84 87.364C207.043 87.364 206.332 87.2427 205.708 87C205.102 86.7747 204.582 86.454 204.148 86.038C203.715 85.622 203.377 85.1367 203.134 84.582C202.892 84.0273 202.753 83.4293 202.718 82.788H204.304ZM226.144 79.33C226.144 78.6713 226.049 78.056 225.858 77.484C225.685 76.8947 225.416 76.392 225.052 75.976C224.706 75.5427 224.264 75.2047 223.726 74.962C223.189 74.702 222.574 74.572 221.88 74.572C221.187 74.572 220.572 74.702 220.034 74.962C219.514 75.222 219.064 75.5687 218.682 76.002C218.318 76.4353 218.024 76.938 217.798 77.51C217.573 78.082 217.426 78.6887 217.356 79.33H226.144ZM217.356 80.63C217.356 81.358 217.452 82.0513 217.642 82.71C217.833 83.3513 218.11 83.9147 218.474 84.4C218.856 84.868 219.332 85.2493 219.904 85.544C220.476 85.8213 221.135 85.96 221.88 85.96C222.903 85.96 223.778 85.6913 224.506 85.154C225.234 84.6167 225.72 83.854 225.962 82.866H227.704C227.514 83.5073 227.262 84.1053 226.95 84.66C226.638 85.1973 226.248 85.674 225.78 86.09C225.312 86.4887 224.758 86.8007 224.116 87.026C223.475 87.2513 222.73 87.364 221.88 87.364C220.806 87.364 219.878 87.182 219.098 86.818C218.318 86.454 217.677 85.96 217.174 85.336C216.672 84.6947 216.299 83.9493 216.056 83.1C215.814 82.2333 215.692 81.306 215.692 80.318C215.692 79.33 215.831 78.4027 216.108 77.536C216.403 76.6693 216.81 75.9153 217.33 75.274C217.868 74.6153 218.518 74.104 219.28 73.74C220.043 73.3587 220.91 73.168 221.88 73.168C223.735 73.168 225.191 73.8093 226.248 75.092C227.306 76.3573 227.826 78.2033 227.808 80.63H217.356ZM229.412 73.532H231.102L235.47 85.076L239.838 73.532H241.528L236.302 87H234.56L229.412 73.532ZM253.592 79.33C253.592 78.6713 253.496 78.056 253.306 77.484C253.132 76.8947 252.864 76.392 252.5 75.976C252.153 75.5427 251.711 75.2047 251.174 74.962C250.636 74.702 250.021 74.572 249.328 74.572C248.634 74.572 248.019 74.702 247.482 74.962C246.962 75.222 246.511 75.5687 246.13 76.002C245.766 76.4353 245.471 76.938 245.246 77.51C245.02 78.082 244.873 78.6887 244.804 79.33H253.592ZM244.804 80.63C244.804 81.358 244.899 82.0513 245.09 82.71C245.28 83.3513 245.558 83.9147 245.922 84.4C246.303 84.868 246.78 85.2493 247.352 85.544C247.924 85.8213 248.582 85.96 249.328 85.96C250.35 85.96 251.226 85.6913 251.954 85.154C252.682 84.6167 253.167 83.854 253.41 82.866H255.152C254.961 83.5073 254.71 84.1053 254.398 84.66C254.086 85.1973 253.696 85.674 253.228 86.09C252.76 86.4887 252.205 86.8007 251.564 87.026C250.922 87.2513 250.177 87.364 249.328 87.364C248.253 87.364 247.326 87.182 246.546 86.818C245.766 86.454 245.124 85.96 244.622 85.336C244.119 84.6947 243.746 83.9493 243.504 83.1C243.261 82.2333 243.14 81.306 243.14 80.318C243.14 79.33 243.278 78.4027 243.556 77.536C243.85 76.6693 244.258 75.9153 244.778 75.274C245.315 74.6153 245.965 74.104 246.728 73.74C247.49 73.3587 248.357 73.168 249.328 73.168C251.182 73.168 252.638 73.8093 253.696 75.092C254.753 76.3573 255.273 78.2033 255.256 80.63H244.804ZM259.849 87H258.289V73.532H259.849V75.404C260.473 74.7453 261.114 74.208 261.773 73.792C262.449 73.376 263.255 73.168 264.191 73.168C265.023 73.168 265.794 73.3153 266.505 73.61C267.216 73.8873 267.814 74.3813 268.299 75.092C268.628 75.5773 268.819 76.08 268.871 76.6C268.94 77.1027 268.975 77.6313 268.975 78.186V87H267.415V78.212C267.415 76.9987 267.146 76.0887 266.609 75.482C266.072 74.8753 265.179 74.572 263.931 74.572C263.446 74.572 263.004 74.65 262.605 74.806C262.206 74.9447 261.842 75.1353 261.513 75.378C261.201 75.6207 260.932 75.898 260.707 76.21C260.482 76.522 260.308 76.8513 260.187 77.198C260.031 77.6313 259.936 78.0473 259.901 78.446C259.866 78.8447 259.849 79.278 259.849 79.746V87ZM280.883 82.788C281.125 83.9493 281.559 84.7727 282.183 85.258C282.824 85.726 283.734 85.96 284.913 85.96C285.485 85.96 285.979 85.8907 286.395 85.752C286.811 85.6133 287.149 85.4313 287.409 85.206C287.686 84.9633 287.894 84.6947 288.033 84.4C288.171 84.1053 288.241 83.7933 288.241 83.464C288.241 82.8053 288.024 82.32 287.591 82.008C287.175 81.6787 286.646 81.4273 286.005 81.254C285.363 81.0633 284.67 80.9073 283.925 80.786C283.179 80.6473 282.486 80.448 281.845 80.188C281.203 79.928 280.666 79.5553 280.233 79.07C279.817 78.5847 279.609 77.9 279.609 77.016C279.609 75.8893 280.016 74.9707 280.831 74.26C281.663 73.532 282.833 73.168 284.341 73.168C285.797 73.168 286.975 73.4973 287.877 74.156C288.795 74.7973 289.35 75.8807 289.541 77.406H287.955C287.816 76.366 287.417 75.638 286.759 75.222C286.117 74.7887 285.303 74.572 284.315 74.572C283.327 74.572 282.573 74.7887 282.053 75.222C281.533 75.638 281.273 76.1927 281.273 76.886C281.273 77.4927 281.481 77.9607 281.897 78.29C282.33 78.602 282.867 78.862 283.509 79.07C284.15 79.2607 284.843 79.434 285.589 79.59C286.334 79.746 287.027 79.9713 287.669 80.266C288.31 80.5433 288.839 80.9247 289.255 81.41C289.688 81.8953 289.905 82.5713 289.905 83.438C289.905 84.0793 289.766 84.6513 289.489 85.154C289.211 85.6393 288.83 86.0467 288.345 86.376C287.859 86.7053 287.279 86.948 286.603 87.104C285.944 87.2773 285.216 87.364 284.419 87.364C283.621 87.364 282.911 87.2427 282.287 87C281.68 86.7747 281.16 86.454 280.727 86.038C280.293 85.622 279.955 85.1367 279.713 84.582C279.47 84.0273 279.331 83.4293 279.297 82.788H280.883ZM302.723 79.33C302.723 78.6713 302.627 78.056 302.437 77.484C302.263 76.8947 301.995 76.392 301.631 75.976C301.284 75.5427 300.842 75.2047 300.305 74.962C299.767 74.702 299.152 74.572 298.459 74.572C297.765 74.572 297.15 74.702 296.613 74.962C296.093 75.222 295.642 75.5687 295.261 76.002C294.897 76.4353 294.602 76.938 294.377 77.51C294.151 78.082 294.004 78.6887 293.935 79.33H302.723ZM293.935 80.63C293.935 81.358 294.03 82.0513 294.221 82.71C294.411 83.3513 294.689 83.9147 295.053 84.4C295.434 84.868 295.911 85.2493 296.483 85.544C297.055 85.8213 297.713 85.96 298.459 85.96C299.481 85.96 300.357 85.6913 301.085 85.154C301.813 84.6167 302.298 83.854 302.541 82.866H304.283C304.092 83.5073 303.841 84.1053 303.529 84.66C303.217 85.1973 302.827 85.674 302.359 86.09C301.891 86.4887 301.336 86.8007 300.695 87.026C300.053 87.2513 299.308 87.364 298.459 87.364C297.384 87.364 296.457 87.182 295.677 86.818C294.897 86.454 294.255 85.96 293.753 85.336C293.25 84.6947 292.877 83.9493 292.635 83.1C292.392 82.2333 292.271 81.306 292.271 80.318C292.271 79.33 292.409 78.4027 292.687 77.536C292.981 76.6693 293.389 75.9153 293.909 75.274C294.446 74.6153 295.096 74.104 295.859 73.74C296.621 73.3587 297.488 73.168 298.459 73.168C300.313 73.168 301.769 73.8093 302.827 75.092C303.884 76.3573 304.404 78.2033 304.387 80.63H293.935ZM316.962 77.77C316.685 76.7647 316.208 75.9847 315.532 75.43C314.856 74.858 313.998 74.572 312.958 74.572C312.161 74.572 311.476 74.7367 310.904 75.066C310.332 75.3953 309.864 75.8373 309.5 76.392C309.136 76.9293 308.867 77.5447 308.694 78.238C308.521 78.914 308.434 79.5987 308.434 80.292C308.434 81.0027 308.512 81.696 308.668 82.372C308.841 83.048 309.11 83.6547 309.474 84.192C309.838 84.7293 310.306 85.1627 310.878 85.492C311.45 85.804 312.143 85.96 312.958 85.96C314.119 85.96 315.047 85.6393 315.74 84.998C316.451 84.3567 316.901 83.4727 317.092 82.346H318.756C318.617 83.0913 318.392 83.776 318.08 84.4C317.785 85.0067 317.395 85.5353 316.91 85.986C316.442 86.4193 315.879 86.7573 315.22 87C314.561 87.2427 313.807 87.364 312.958 87.364C311.883 87.364 310.956 87.182 310.176 86.818C309.396 86.454 308.755 85.96 308.252 85.336C307.749 84.6947 307.377 83.9407 307.134 83.074C306.891 82.2073 306.77 81.28 306.77 80.292C306.77 79.356 306.9 78.4633 307.16 77.614C307.437 76.7473 307.836 75.9847 308.356 75.326C308.876 74.6673 309.517 74.1473 310.28 73.766C311.06 73.3673 311.953 73.168 312.958 73.168C314.518 73.168 315.775 73.5407 316.728 74.286C317.699 75.0313 318.305 76.1927 318.548 77.77H316.962ZM327.223 87.364C326.356 87.3467 325.542 87.1907 324.779 86.896C324.034 86.6013 323.375 86.1593 322.803 85.57C322.248 84.9807 321.806 84.244 321.477 83.36C321.148 82.476 320.983 81.4447 320.983 80.266C320.983 79.278 321.113 78.3593 321.373 77.51C321.633 76.6433 322.023 75.8893 322.543 75.248C323.063 74.6067 323.713 74.104 324.493 73.74C325.273 73.3587 326.183 73.168 327.223 73.168C328.28 73.168 329.199 73.3587 329.979 73.74C330.759 74.104 331.409 74.6067 331.929 75.248C332.449 75.872 332.83 76.6173 333.073 77.484C333.333 78.3507 333.463 79.278 333.463 80.266C333.463 81.3407 333.316 82.3113 333.021 83.178C332.726 84.0447 332.302 84.79 331.747 85.414C331.21 86.038 330.551 86.5233 329.771 86.87C329.008 87.1993 328.159 87.364 327.223 87.364ZM331.799 80.266C331.799 79.4687 331.712 78.7233 331.539 78.03C331.366 77.3367 331.097 76.7387 330.733 76.236C330.369 75.716 329.901 75.3087 329.329 75.014C328.757 74.7193 328.055 74.572 327.223 74.572C326.408 74.572 325.706 74.7367 325.117 75.066C324.545 75.378 324.077 75.8027 323.713 76.34C323.349 76.86 323.08 77.4667 322.907 78.16C322.734 78.836 322.647 79.538 322.647 80.266C322.647 81.098 322.742 81.8693 322.933 82.58C323.141 83.2733 323.436 83.8713 323.817 84.374C324.198 84.8767 324.675 85.2667 325.247 85.544C325.819 85.8213 326.478 85.96 327.223 85.96C328.038 85.96 328.731 85.804 329.303 85.492C329.892 85.1627 330.369 84.7293 330.733 84.192C331.097 83.6547 331.366 83.048 331.539 82.372C331.712 81.696 331.799 80.994 331.799 80.266ZM337.874 87H336.314V73.532H337.874V75.404C338.498 74.7453 339.14 74.208 339.798 73.792C340.474 73.376 341.28 73.168 342.216 73.168C343.048 73.168 343.82 73.3153 344.53 73.61C345.241 73.8873 345.839 74.3813 346.324 75.092C346.654 75.5773 346.844 76.08 346.896 76.6C346.966 77.1027 347 77.6313 347 78.186V87H345.44V78.212C345.44 76.9987 345.172 76.0887 344.634 75.482C344.097 74.8753 343.204 74.572 341.956 74.572C341.471 74.572 341.029 74.65 340.63 74.806C340.232 74.9447 339.868 75.1353 339.538 75.378C339.226 75.6207 338.958 75.898 338.732 76.21C338.507 76.522 338.334 76.8513 338.212 77.198C338.056 77.6313 337.961 78.0473 337.926 78.446C337.892 78.8447 337.874 79.278 337.874 79.746V87ZM361.162 80.214C361.162 79.4513 361.058 78.732 360.85 78.056C360.642 77.3627 360.338 76.7647 359.94 76.262C359.558 75.742 359.082 75.3347 358.51 75.04C357.955 74.728 357.322 74.572 356.612 74.572C355.797 74.572 355.095 74.7367 354.506 75.066C353.916 75.378 353.431 75.8113 353.05 76.366C352.668 76.9207 352.391 77.5707 352.218 78.316C352.044 79.044 351.975 79.8327 352.01 80.682C352.01 81.5313 352.122 82.2853 352.348 82.944C352.59 83.5853 352.92 84.1313 353.336 84.582C353.752 85.0327 354.237 85.3793 354.792 85.622C355.346 85.8473 355.953 85.96 356.612 85.96C357.34 85.96 357.99 85.8127 358.562 85.518C359.134 85.2233 359.61 84.8247 359.992 84.322C360.373 83.802 360.659 83.1953 360.85 82.502C361.058 81.7913 361.162 81.0287 361.162 80.214ZM361.162 68.28H362.722V87H361.162V84.634H361.11C360.884 85.0847 360.59 85.4833 360.226 85.83C359.879 86.1593 359.489 86.4367 359.056 86.662C358.64 86.8873 358.206 87.0607 357.756 87.182C357.305 87.3033 356.863 87.364 356.43 87.364C355.338 87.364 354.41 87.182 353.648 86.818C352.885 86.454 352.252 85.96 351.75 85.336C351.264 84.6947 350.909 83.9407 350.684 83.074C350.458 82.2073 350.346 81.28 350.346 80.292C350.346 79.356 350.467 78.4547 350.71 77.588C350.952 76.7213 351.316 75.9673 351.802 75.326C352.304 74.6673 352.928 74.1473 353.674 73.766C354.436 73.3673 355.329 73.168 356.352 73.168C357.305 73.168 358.215 73.3847 359.082 73.818C359.966 74.234 360.659 74.858 361.162 75.69V68.28ZM367.566 82.788C367.809 83.9493 368.242 84.7727 368.866 85.258C369.508 85.726 370.418 85.96 371.596 85.96C372.168 85.96 372.662 85.8907 373.078 85.752C373.494 85.6133 373.832 85.4313 374.092 85.206C374.37 84.9633 374.578 84.6947 374.716 84.4C374.855 84.1053 374.924 83.7933 374.924 83.464C374.924 82.8053 374.708 82.32 374.274 82.008C373.858 81.6787 373.33 81.4273 372.688 81.254C372.047 81.0633 371.354 80.9073 370.608 80.786C369.863 80.6473 369.17 80.448 368.528 80.188C367.887 79.928 367.35 79.5553 366.916 79.07C366.5 78.5847 366.292 77.9 366.292 77.016C366.292 75.8893 366.7 74.9707 367.514 74.26C368.346 73.532 369.516 73.168 371.024 73.168C372.48 73.168 373.659 73.4973 374.56 74.156C375.479 74.7973 376.034 75.8807 376.224 77.406H374.638C374.5 76.366 374.101 75.638 373.442 75.222C372.801 74.7887 371.986 74.572 370.998 74.572C370.01 74.572 369.256 74.7887 368.736 75.222C368.216 75.638 367.956 76.1927 367.956 76.886C367.956 77.4927 368.164 77.9607 368.58 78.29C369.014 78.602 369.551 78.862 370.192 79.07C370.834 79.2607 371.527 79.434 372.272 79.59C373.018 79.746 373.711 79.9713 374.352 80.266C374.994 80.5433 375.522 80.9247 375.938 81.41C376.372 81.8953 376.588 82.5713 376.588 83.438C376.588 84.0793 376.45 84.6513 376.172 85.154C375.895 85.6393 375.514 86.0467 375.028 86.376C374.543 86.7053 373.962 86.948 373.286 87.104C372.628 87.2773 371.9 87.364 371.102 87.364C370.305 87.364 369.594 87.2427 368.97 87C368.364 86.7747 367.844 86.454 367.41 86.038C366.977 85.622 366.639 85.1367 366.396 84.582C366.154 84.0273 366.015 83.4293 365.98 82.788H367.566ZM382.334 87.78C382.334 88.5427 382.152 89.1493 381.788 89.6C381.442 90.068 380.991 90.3887 380.436 90.562V89.6C380.644 89.4613 380.844 89.2707 381.034 89.028C381.225 88.7853 381.32 88.404 381.32 87.884V87H380.436V84.712H382.334V87.78ZM127.649 117V98.28H129.417V117H127.649ZM142.174 112.788C142.416 113.949 142.85 114.773 143.474 115.258C144.115 115.726 145.025 115.96 146.204 115.96C146.776 115.96 147.27 115.891 147.686 115.752C148.102 115.613 148.44 115.431 148.7 115.206C148.977 114.963 149.185 114.695 149.324 114.4C149.462 114.105 149.532 113.793 149.532 113.464C149.532 112.805 149.315 112.32 148.882 112.008C148.466 111.679 147.937 111.427 147.296 111.254C146.654 111.063 145.961 110.907 145.216 110.786C144.47 110.647 143.777 110.448 143.136 110.188C142.494 109.928 141.957 109.555 141.524 109.07C141.108 108.585 140.9 107.9 140.9 107.016C140.9 105.889 141.307 104.971 142.122 104.26C142.954 103.532 144.124 103.168 145.632 103.168C147.088 103.168 148.266 103.497 149.168 104.156C150.086 104.797 150.641 105.881 150.832 107.406H149.246C149.107 106.366 148.708 105.638 148.05 105.222C147.408 104.789 146.594 104.572 145.606 104.572C144.618 104.572 143.864 104.789 143.344 105.222C142.824 105.638 142.564 106.193 142.564 106.886C142.564 107.493 142.772 107.961 143.188 108.29C143.621 108.602 144.158 108.862 144.8 109.07C145.441 109.261 146.134 109.434 146.88 109.59C147.625 109.746 148.318 109.971 148.96 110.266C149.601 110.543 150.13 110.925 150.546 111.41C150.979 111.895 151.196 112.571 151.196 113.438C151.196 114.079 151.057 114.651 150.78 115.154C150.502 115.639 150.121 116.047 149.636 116.376C149.15 116.705 148.57 116.948 147.894 117.104C147.235 117.277 146.507 117.364 145.71 117.364C144.912 117.364 144.202 117.243 143.578 117C142.971 116.775 142.451 116.454 142.018 116.038C141.584 115.622 141.246 115.137 141.004 114.582C140.761 114.027 140.622 113.429 140.588 112.788H142.174ZM154.264 117V98.28H155.824V105.404C156.448 104.745 157.089 104.208 157.748 103.792C158.424 103.376 159.23 103.168 160.166 103.168C160.998 103.168 161.769 103.315 162.48 103.61C163.19 103.887 163.788 104.381 164.274 105.092C164.603 105.577 164.794 106.08 164.846 106.6C164.915 107.103 164.95 107.631 164.95 108.186V117H163.39V108.212C163.39 106.999 163.121 106.089 162.584 105.482C162.046 104.875 161.154 104.572 159.906 104.572C159.42 104.572 158.978 104.65 158.58 104.806C158.181 104.945 157.817 105.135 157.488 105.378C157.176 105.621 156.907 105.898 156.682 106.21C156.456 106.522 156.283 106.851 156.162 107.198C156.006 107.631 155.91 108.047 155.876 108.446C155.841 108.845 155.824 109.278 155.824 109.746V117H154.264ZM177.525 109.928C176.866 110.205 176.199 110.387 175.523 110.474C174.847 110.561 174.171 110.63 173.495 110.682C172.299 110.769 171.363 111.037 170.687 111.488C170.028 111.939 169.699 112.623 169.699 113.542C169.699 113.958 169.777 114.322 169.933 114.634C170.106 114.929 170.323 115.18 170.583 115.388C170.86 115.579 171.172 115.726 171.519 115.83C171.883 115.917 172.247 115.96 172.611 115.96C173.235 115.96 173.842 115.882 174.431 115.726C175.02 115.57 175.54 115.336 175.991 115.024C176.459 114.695 176.832 114.287 177.109 113.802C177.386 113.299 177.525 112.71 177.525 112.034V109.928ZM174.899 109.148C175.194 109.113 175.54 109.061 175.939 108.992C176.355 108.923 176.693 108.827 176.953 108.706C177.213 108.585 177.369 108.385 177.421 108.108C177.49 107.813 177.525 107.545 177.525 107.302C177.525 106.505 177.265 105.855 176.745 105.352C176.242 104.832 175.384 104.572 174.171 104.572C173.634 104.572 173.14 104.624 172.689 104.728C172.238 104.815 171.84 104.979 171.493 105.222C171.164 105.447 170.886 105.759 170.661 106.158C170.453 106.539 170.314 107.025 170.245 107.614H168.659C168.711 106.817 168.893 106.141 169.205 105.586C169.517 105.014 169.916 104.555 170.401 104.208C170.904 103.844 171.476 103.584 172.117 103.428C172.776 103.255 173.469 103.168 174.197 103.168C174.873 103.168 175.506 103.246 176.095 103.402C176.702 103.541 177.222 103.775 177.655 104.104C178.106 104.416 178.452 104.841 178.695 105.378C178.955 105.915 179.085 106.574 179.085 107.354V114.686C179.085 115.293 179.189 115.683 179.397 115.856C179.622 116.012 180.064 115.969 180.723 115.726V116.948C180.602 116.983 180.42 117.035 180.177 117.104C179.952 117.173 179.726 117.208 179.501 117.208C179.258 117.208 179.024 117.182 178.799 117.13C178.539 117.095 178.331 117.017 178.175 116.896C178.019 116.757 177.889 116.601 177.785 116.428C177.698 116.237 177.638 116.038 177.603 115.83C177.568 115.605 177.551 115.371 177.551 115.128C176.892 115.856 176.138 116.411 175.289 116.792C174.44 117.173 173.521 117.364 172.533 117.364C171.944 117.364 171.372 117.286 170.817 117.13C170.28 116.974 169.803 116.731 169.387 116.402C168.971 116.073 168.642 115.674 168.399 115.206C168.156 114.721 168.035 114.149 168.035 113.49C168.035 111.202 169.604 109.85 172.741 109.434L174.899 109.148ZM187.89 117.052C187.699 117.087 187.448 117.147 187.136 117.234C186.824 117.321 186.477 117.364 186.096 117.364C185.316 117.364 184.718 117.173 184.302 116.792C183.903 116.393 183.704 115.691 183.704 114.686V104.832H181.806V103.532H183.704V99.788H185.264V103.532H187.786V104.832H185.264V114.062C185.264 114.391 185.273 114.677 185.29 114.92C185.307 115.163 185.359 115.362 185.446 115.518C185.533 115.674 185.663 115.787 185.836 115.856C186.027 115.925 186.287 115.96 186.616 115.96C186.824 115.96 187.032 115.943 187.24 115.908C187.465 115.873 187.682 115.83 187.89 115.778V117.052ZM195.126 117.052C194.936 117.087 194.684 117.147 194.372 117.234C194.06 117.321 193.714 117.364 193.332 117.364C192.552 117.364 191.954 117.173 191.538 116.792C191.14 116.393 190.94 115.691 190.94 114.686V104.832H189.042V103.532H190.94V99.788H192.5V103.532H195.022V104.832H192.5V114.062C192.5 114.391 192.509 114.677 192.526 114.92C192.544 115.163 192.596 115.362 192.682 115.518C192.769 115.674 192.899 115.787 193.072 115.856C193.263 115.925 193.523 115.96 193.852 115.96C194.06 115.96 194.268 115.943 194.476 115.908C194.702 115.873 194.918 115.83 195.126 115.778V117.052ZM207.381 109.33C207.381 108.671 207.285 108.056 207.095 107.484C206.921 106.895 206.653 106.392 206.289 105.976C205.942 105.543 205.5 105.205 204.963 104.962C204.425 104.702 203.81 104.572 203.117 104.572C202.423 104.572 201.808 104.702 201.271 104.962C200.751 105.222 200.3 105.569 199.919 106.002C199.555 106.435 199.26 106.938 199.035 107.51C198.809 108.082 198.662 108.689 198.593 109.33H207.381ZM198.593 110.63C198.593 111.358 198.688 112.051 198.879 112.71C199.069 113.351 199.347 113.915 199.711 114.4C200.092 114.868 200.569 115.249 201.141 115.544C201.713 115.821 202.371 115.96 203.117 115.96C204.139 115.96 205.015 115.691 205.743 115.154C206.471 114.617 206.956 113.854 207.199 112.866H208.941C208.75 113.507 208.499 114.105 208.187 114.66C207.875 115.197 207.485 115.674 207.017 116.09C206.549 116.489 205.994 116.801 205.353 117.026C204.711 117.251 203.966 117.364 203.117 117.364C202.042 117.364 201.115 117.182 200.335 116.818C199.555 116.454 198.913 115.96 198.411 115.336C197.908 114.695 197.535 113.949 197.293 113.1C197.05 112.233 196.929 111.306 196.929 110.318C196.929 109.33 197.067 108.403 197.345 107.536C197.639 106.669 198.047 105.915 198.567 105.274C199.104 104.615 199.754 104.104 200.517 103.74C201.279 103.359 202.146 103.168 203.117 103.168C204.971 103.168 206.427 103.809 207.485 105.092C208.542 106.357 209.062 108.203 209.045 110.63H198.593ZM213.716 117H212.156V103.532H213.716V106.054H213.768C214.201 104.979 214.756 104.234 215.432 103.818C216.125 103.385 217.035 103.168 218.162 103.168V104.858C217.278 104.841 216.55 104.979 215.978 105.274C215.406 105.569 214.947 105.967 214.6 106.47C214.271 106.973 214.037 107.571 213.898 108.264C213.777 108.94 213.716 109.651 213.716 110.396V117ZM230.029 109.33C230.029 108.671 229.934 108.056 229.743 107.484C229.57 106.895 229.301 106.392 228.937 105.976C228.591 105.543 228.149 105.205 227.611 104.962C227.074 104.702 226.459 104.572 225.765 104.572C225.072 104.572 224.457 104.702 223.919 104.962C223.399 105.222 222.949 105.569 222.567 106.002C222.203 106.435 221.909 106.938 221.683 107.51C221.458 108.082 221.311 108.689 221.241 109.33H230.029ZM221.241 110.63C221.241 111.358 221.337 112.051 221.527 112.71C221.718 113.351 221.995 113.915 222.359 114.4C222.741 114.868 223.217 115.249 223.789 115.544C224.361 115.821 225.02 115.96 225.765 115.96C226.788 115.96 227.663 115.691 228.391 115.154C229.119 114.617 229.605 113.854 229.847 112.866H231.589C231.399 113.507 231.147 114.105 230.835 114.66C230.523 115.197 230.133 115.674 229.665 116.09C229.197 116.489 228.643 116.801 228.001 117.026C227.36 117.251 226.615 117.364 225.765 117.364C224.691 117.364 223.763 117.182 222.983 116.818C222.203 116.454 221.562 115.96 221.059 115.336C220.557 114.695 220.184 113.949 219.941 113.1C219.699 112.233 219.577 111.306 219.577 110.318C219.577 109.33 219.716 108.403 219.993 107.536C220.288 106.669 220.695 105.915 221.215 105.274C221.753 104.615 222.403 104.104 223.165 103.74C223.928 103.359 224.795 103.168 225.765 103.168C227.62 103.168 229.076 103.809 230.133 105.092C231.191 106.357 231.711 108.203 231.693 110.63H221.241ZM245.126 110.214C245.126 109.451 245.022 108.732 244.814 108.056C244.606 107.363 244.303 106.765 243.904 106.262C243.523 105.742 243.046 105.335 242.474 105.04C241.92 104.728 241.287 104.572 240.576 104.572C239.762 104.572 239.06 104.737 238.47 105.066C237.881 105.378 237.396 105.811 237.014 106.366C236.633 106.921 236.356 107.571 236.182 108.316C236.009 109.044 235.94 109.833 235.974 110.682C235.974 111.531 236.087 112.285 236.312 112.944C236.555 113.585 236.884 114.131 237.3 114.582C237.716 115.033 238.202 115.379 238.756 115.622C239.311 115.847 239.918 115.96 240.576 115.96C241.304 115.96 241.954 115.813 242.526 115.518C243.098 115.223 243.575 114.825 243.956 114.322C244.338 113.802 244.624 113.195 244.814 112.502C245.022 111.791 245.126 111.029 245.126 110.214ZM245.126 98.28H246.686V117H245.126V114.634H245.074C244.849 115.085 244.554 115.483 244.19 115.83C243.844 116.159 243.454 116.437 243.02 116.662C242.604 116.887 242.171 117.061 241.72 117.182C241.27 117.303 240.828 117.364 240.394 117.364C239.302 117.364 238.375 117.182 237.612 116.818C236.85 116.454 236.217 115.96 235.714 115.336C235.229 114.695 234.874 113.941 234.648 113.074C234.423 112.207 234.31 111.28 234.31 110.292C234.31 109.356 234.432 108.455 234.674 107.588C234.917 106.721 235.281 105.967 235.766 105.326C236.269 104.667 236.893 104.147 237.638 103.766C238.401 103.367 239.294 103.168 240.316 103.168C241.27 103.168 242.18 103.385 243.046 103.818C243.93 104.234 244.624 104.858 245.126 105.69V98.28ZM259.209 117H257.649V103.532H259.209V105.56H259.261C259.66 104.78 260.232 104.191 260.977 103.792C261.723 103.376 262.537 103.168 263.421 103.168C264.045 103.168 264.574 103.237 265.007 103.376C265.441 103.515 265.805 103.705 266.099 103.948C266.411 104.173 266.663 104.442 266.853 104.754C267.061 105.066 267.235 105.404 267.373 105.768C267.824 104.884 268.422 104.234 269.167 103.818C269.93 103.385 270.797 103.168 271.767 103.168C272.686 103.168 273.414 103.324 273.951 103.636C274.506 103.931 274.931 104.329 275.225 104.832C275.52 105.317 275.711 105.881 275.797 106.522C275.901 107.163 275.953 107.822 275.953 108.498V117H274.393V107.692C274.393 106.721 274.185 105.959 273.769 105.404C273.371 104.849 272.617 104.572 271.507 104.572C270.935 104.572 270.381 104.702 269.843 104.962C269.323 105.205 268.864 105.586 268.465 106.106C268.292 106.331 268.145 106.6 268.023 106.912C267.919 107.207 267.833 107.519 267.763 107.848C267.694 108.177 267.642 108.507 267.607 108.836C267.59 109.165 267.581 109.469 267.581 109.746V117H266.021V107.692C266.021 106.721 265.813 105.959 265.397 105.404C264.999 104.849 264.245 104.572 263.135 104.572C262.563 104.572 262.009 104.702 261.471 104.962C260.951 105.205 260.492 105.586 260.093 106.106C259.92 106.331 259.773 106.6 259.651 106.912C259.547 107.207 259.461 107.519 259.391 107.848C259.322 108.177 259.27 108.507 259.235 108.836C259.218 109.165 259.209 109.469 259.209 109.746V117ZM279.293 117V103.532H280.853V117H279.293ZM279.215 100.594V98.28H280.931V100.594H279.215ZM286.382 117H284.822V103.532H286.382V105.404C287.006 104.745 287.648 104.208 288.306 103.792C288.982 103.376 289.788 103.168 290.724 103.168C291.556 103.168 292.328 103.315 293.038 103.61C293.749 103.887 294.347 104.381 294.832 105.092C295.162 105.577 295.352 106.08 295.404 106.6C295.474 107.103 295.508 107.631 295.508 108.186V117H293.948V108.212C293.948 106.999 293.68 106.089 293.142 105.482C292.605 104.875 291.712 104.572 290.464 104.572C289.979 104.572 289.537 104.65 289.138 104.806C288.74 104.945 288.376 105.135 288.046 105.378C287.734 105.621 287.466 105.898 287.24 106.21C287.015 106.522 286.842 106.851 286.72 107.198C286.564 107.631 286.469 108.047 286.434 108.446C286.4 108.845 286.382 109.278 286.382 109.746V117ZM309.019 109.33C309.019 108.671 308.924 108.056 308.733 107.484C308.56 106.895 308.291 106.392 307.927 105.976C307.581 105.543 307.139 105.205 306.601 104.962C306.064 104.702 305.449 104.572 304.755 104.572C304.062 104.572 303.447 104.702 302.909 104.962C302.389 105.222 301.939 105.569 301.557 106.002C301.193 106.435 300.899 106.938 300.673 107.51C300.448 108.082 300.301 108.689 300.231 109.33H309.019ZM300.231 110.63C300.231 111.358 300.327 112.051 300.517 112.71C300.708 113.351 300.985 113.915 301.349 114.4C301.731 114.868 302.207 115.249 302.779 115.544C303.351 115.821 304.01 115.96 304.755 115.96C305.778 115.96 306.653 115.691 307.381 115.154C308.109 114.617 308.595 113.854 308.837 112.866H310.579C310.389 113.507 310.137 114.105 309.825 114.66C309.513 115.197 309.123 115.674 308.655 116.09C308.187 116.489 307.633 116.801 306.991 117.026C306.35 117.251 305.605 117.364 304.755 117.364C303.681 117.364 302.753 117.182 301.973 116.818C301.193 116.454 300.552 115.96 300.049 115.336C299.547 114.695 299.174 113.949 298.931 113.1C298.689 112.233 298.567 111.306 298.567 110.318C298.567 109.33 298.706 108.403 298.983 107.536C299.278 106.669 299.685 105.915 300.205 105.274C300.743 104.615 301.393 104.104 302.155 103.74C302.918 103.359 303.785 103.168 304.755 103.168C306.61 103.168 308.066 103.809 309.123 105.092C310.181 106.357 310.701 108.203 310.683 110.63H300.231ZM314.497 117V114.712H316.395V117H314.497Z" fill="#CCF3FF"/>
</g>
<defs>
<filter id="filter0_d_394_955" x="0.421875" y="0.785156" width="437.516" height="161.578" filterUnits="userSpaceOnUse" color-interpolation-filters="sRGB">
<feFlood flood-opacity="0" result="BackgroundImageFix"/>
<feColorMatrix in="SourceAlpha" type="matrix" values="0 0 0 0 0 0 0 0 0 0 0 0 0 0 0 0 0 0 127 0" result="hardAlpha"/>
<feOffset dy="4"/>
<feGaussianBlur stdDeviation="20.5"/>
<feComposite in2="hardAlpha" operator="out"/>
<feColorMatrix type="matrix" values="0 0 0 0 0 0 0 0 0 0 0 0 0 0 0 0 0 0 0.34 0"/>
<feBlend mode="normal" in2="BackgroundImageFix" result="effect1_dropShadow_394_955"/>
<feBlend mode="normal" in="SourceGraphic" in2="effect1_dropShadow_394_955" result="shape"/>
</filter>
</defs>
</svg>
