<svg width="946" height="8212" viewBox="0 0 946 8212" fill="none" xmlns="http://www.w3.org/2000/svg">
<path d="M276.5 15C322 29 291.35 82.3605 234.5 143C182 199 54.8716 326 23.9996 580.5C4.6321 740.16 -23.0001 1256 446.5 1371C595 1407.37 622 1379.11 767 1449C912 1518.89 1021 1737.5 821.501 2155.5C759.001 2297 745.1 2363.4 777.5 2543C786.34 2592 836 2711 702.001 2776.5C430.001 2931 -108.001 3014.5 488 3399L847.5 3638C933.5 3701 941.501 3871.3 603.501 3904.5C550.5 3909.71 481 3943.66 481 4027C481 4069.5 487.5 4128.5 702.001 4244C811.5 4302.96 807.001 4321 577.001 4401C529.001 4421.5 439.501 4466.5 603.501 4518.5C655.667 4541.5 895.001 4626.5 667.001 5023.5C651.334 5071.33 603.501 5124 741.501 5189C780.501 5207.37 915.501 5256 741.501 5347.5C670.667 5373.67 583.501 5485 721.001 5527C858.501 5569 985.001 5699 667.001 5896C626.667 5930 439.201 6015.5 636.001 6133.5C698.501 6170.97 789 6221 461.5 6318C409 6330 329.2 6365.2 430 6410C496.5 6435.33 586.2 6493.2 413 6522C92.0003 6634 304.5 6868.5 430 7086C498.376 7204.5 413 7174.5 290.5 7192C172.62 7208.84 153 7273.35 273 7294.5C542.5 7342 615.4 7475.7 337 7534.5C180 7567.66 157.4 7652.9 413 7712.5C469.834 7732.33 527.7 7772.5 304.5 7774.5C227.667 7783.17 135.9 7816.3 383.5 7879.5C473.834 7897.33 594.7 7944.8 355.5 7992C184.5 8025.74 94.6004 8118.5 463 8196.5" stroke="white" stroke-width="30"/>
</svg>
