<svg width="1069" height="583" viewBox="0 0 1069 583" fill="none" xmlns="http://www.w3.org/2000/svg">
<g filter="url(#filter0_d_513_407)">
<path d="M264.931 195.706C256.938 195.706 249.09 194.616 241.387 192.436C233.684 190.256 227.362 187.131 222.421 183.062C217.625 178.993 215.227 174.342 215.227 169.11V145.784H219.151C221.622 160.317 226.418 170.854 233.539 177.394C240.66 183.789 250.47 186.986 262.969 186.986C270.817 186.986 277.502 185.024 283.025 181.1C288.693 177.176 291.527 171.726 291.527 164.75C291.527 158.646 289.638 153.341 285.859 148.836C282.08 144.331 275.976 139.607 267.547 134.666L240.733 118.752C231.432 113.229 224.819 107.634 220.895 101.966C217.116 96.298 215.227 89.3947 215.227 81.256C215.227 70.0653 219.078 61.1273 226.781 54.442C234.629 47.6113 244.875 44.196 257.519 44.196C264.931 44.196 272.27 45.286 279.537 47.466C286.804 49.5007 292.762 52.5527 297.413 56.622C302.209 60.546 304.607 65.124 304.607 70.356V93.682H300.683C298.212 79.1487 293.489 68.7573 286.513 62.508C279.682 56.1133 270.018 52.916 257.519 52.916C250.834 52.916 244.948 54.9507 239.861 59.02C234.774 63.0893 232.231 68.394 232.231 74.934C232.231 80.8927 234.048 85.834 237.681 89.758C241.46 93.682 247.709 98.26 256.429 103.492L283.243 119.406C293.126 125.365 300.102 130.887 304.171 135.974C308.24 141.061 310.275 147.528 310.275 155.376C310.275 167.584 306.206 177.394 298.067 184.806C289.928 192.073 278.883 195.706 264.931 195.706ZM342.801 74.28C342.801 66.868 341.784 61.418 339.749 57.93C337.715 54.2967 333.645 52.48 327.541 52.48H323.181V48.12H416.049C428.403 48.12 434.579 53.9333 434.579 65.56V81.91H430.219C430.219 65.1967 421.136 56.84 402.969 56.84H362.421V113.52H421.281V122.24H362.421V183.28H400.571C410.599 183.28 418.447 181.463 424.115 177.83C429.783 174.197 434.289 168.02 437.631 159.3L441.991 160.39L434.361 181.1C431.745 188.367 426.295 192 418.011 192H342.801V74.28ZM465.937 73.626C462.304 65.1967 458.889 59.456 455.691 56.404C452.494 53.2067 447.916 51.3173 441.957 50.736V46.376C442.684 46.376 443.774 46.3033 445.227 46.158C446.535 46.0127 447.916 45.94 449.369 45.94C456.636 45.94 463.612 47.8293 470.297 51.608C476.983 55.2413 482.651 62.5807 487.301 73.626L524.579 161.48L537.441 131.614C543.545 117.517 555.245 89.6853 572.539 48.12H583.003L520.437 194.18H516.513L465.937 73.626ZM610.831 74.28C610.831 66.868 609.813 61.418 607.779 57.93C605.744 54.2967 601.675 52.48 595.571 52.48H591.211V48.12H684.079C696.432 48.12 702.609 53.9333 702.609 65.56V81.91H698.249C698.249 65.1967 689.165 56.84 670.999 56.84H630.451V113.52H689.311V122.24H630.451V183.28H668.601C678.629 183.28 686.477 181.463 692.145 177.83C697.813 174.197 702.318 168.02 705.661 159.3L710.021 160.39L702.391 181.1C699.775 188.367 694.325 192 686.041 192H610.831V74.28ZM749.009 192H740.289V74.28C740.289 67.304 738.763 61.9267 735.711 58.148C732.804 54.3693 727.79 52.48 720.669 52.48H718.489V48.12H732.659C739.344 48.12 745.012 49.21 749.663 51.39C754.313 53.57 758.455 56.84 762.089 61.2L838.389 156.03V48.12H847.109V194.18H842.749L749.009 77.55V192ZM134.381 292.28C134.381 284.868 133.364 279.418 131.329 275.93C129.295 272.297 125.225 270.48 119.121 270.48H114.761V266.12H171.441C185.393 266.12 197.965 269.099 209.155 275.058C220.346 281.017 225.941 292.571 225.941 309.72C225.941 321.056 223.035 329.776 217.221 335.88C211.408 341.984 204.868 346.053 197.601 348.088C190.48 350.123 183.94 351.14 177.981 351.14H154.001V410H134.381V292.28ZM170.351 343.51C175.002 343.51 179.943 342.347 185.175 340.022C190.407 337.551 194.84 333.7 198.473 328.468C202.252 323.236 204.141 316.623 204.141 308.63C204.141 300.637 202.252 294.024 198.473 288.792C194.84 283.56 190.407 279.781 185.175 277.456C179.943 274.985 175.002 273.75 170.351 273.75C165.265 273.75 159.815 274.477 154.001 275.93V341.33C159.815 342.783 165.265 343.51 170.351 343.51ZM309.165 414.36C295.649 414.36 283.731 411.017 273.413 404.332C263.239 397.647 255.391 388.491 249.869 376.864C244.346 365.237 241.585 352.303 241.585 338.06C241.585 323.817 244.346 310.883 249.869 299.256C255.391 287.629 263.239 278.473 273.413 271.788C283.731 265.103 295.649 261.76 309.165 261.76C322.681 261.76 334.525 265.103 344.699 271.788C355.017 278.473 362.938 287.629 368.461 299.256C373.983 310.883 376.745 323.817 376.745 338.06C376.745 352.303 373.983 365.237 368.461 376.864C362.938 388.491 355.017 397.647 344.699 404.332C334.525 411.017 322.681 414.36 309.165 414.36ZM309.165 405.64C318.611 405.64 326.75 402.879 333.581 397.356C340.557 391.833 345.861 384.058 349.495 374.03C353.128 363.857 354.945 351.867 354.945 338.06C354.945 324.253 353.128 312.336 349.495 302.308C345.861 292.135 340.557 284.287 333.581 278.764C326.75 273.241 318.611 270.48 309.165 270.48C299.718 270.48 291.507 273.241 284.531 278.764C277.7 284.287 272.468 292.135 268.835 302.308C265.201 312.336 263.385 324.253 263.385 338.06C263.385 351.867 265.201 363.857 268.835 374.03C272.468 384.058 277.7 391.833 284.531 397.356C291.507 402.879 299.718 405.64 309.165 405.64ZM463.926 412.18C449.974 412.18 438.929 409.855 430.79 405.204C422.651 400.408 416.838 393.359 413.35 384.058C410.007 374.757 408.336 362.694 408.336 347.87V292.28C408.336 284.868 407.319 279.418 405.284 275.93C403.249 272.297 399.18 270.48 393.076 270.48H388.716V266.12H408.336C413.713 266.12 417.71 266.847 420.326 268.3C423.087 269.608 425.049 272.079 426.212 275.712C427.375 279.345 427.956 284.868 427.956 292.28V354.41C427.956 370.542 430.935 382.75 436.894 391.034C442.853 399.318 452.735 403.46 466.542 403.46C477.587 403.46 486.307 401.498 492.702 397.574C499.242 393.65 503.893 387.691 506.654 379.698C509.415 371.705 510.796 361.095 510.796 347.87V266.12H519.516V347.87C519.516 362.985 517.917 375.193 514.72 384.494C511.523 393.65 505.855 400.553 497.716 405.204C489.723 409.855 478.459 412.18 463.926 412.18ZM569.116 410H560.396V292.28C560.396 285.304 558.87 279.927 555.818 276.148C552.911 272.369 547.897 270.48 540.776 270.48H538.596V266.12H552.766C559.451 266.12 565.119 267.21 569.77 269.39C574.421 271.57 578.563 274.84 582.196 279.2L658.496 374.03V266.12H667.216V412.18H662.856L569.116 295.55V410ZM708.76 292.28C708.76 284.868 707.743 279.418 705.708 275.93C703.674 272.297 699.604 270.48 693.5 270.48H689.14V266.12H746.256C774.451 266.12 795.742 272.369 810.13 284.868C824.664 297.367 831.93 314.807 831.93 337.188C831.93 351.576 828.878 364.293 822.774 375.338C816.67 386.238 807.587 394.74 795.524 400.844C783.607 406.948 769.074 410 751.924 410H708.76V292.28ZM751.27 402.37C762.025 402.37 771.69 399.754 780.264 394.522C788.984 389.145 795.815 381.66 800.756 372.068C805.698 362.331 808.168 350.995 808.168 338.06C808.168 325.416 805.698 314.225 800.756 304.488C795.96 294.751 789.202 287.193 780.482 281.816C771.762 276.439 761.88 273.75 750.834 273.75C743.858 273.75 736.592 274.913 729.034 277.238V399.536C737.173 401.425 744.585 402.37 751.27 402.37ZM902.964 413.706C894.971 413.706 887.123 412.616 879.42 410.436C871.718 408.256 865.396 405.131 860.454 401.062C855.658 396.993 853.26 392.342 853.26 387.11V363.784H857.184C859.655 378.317 864.451 388.854 871.572 395.394C878.694 401.789 888.504 404.986 901.002 404.986C908.85 404.986 915.536 403.024 921.058 399.1C926.726 395.176 929.56 389.726 929.56 382.75C929.56 376.646 927.671 371.341 923.892 366.836C920.114 362.331 914.01 357.607 905.58 352.666L878.766 336.752C869.465 331.229 862.852 325.634 858.928 319.966C855.15 314.298 853.26 307.395 853.26 299.256C853.26 288.065 857.112 279.127 864.814 272.442C872.662 265.611 882.908 262.196 895.552 262.196C902.964 262.196 910.304 263.286 917.57 265.466C924.837 267.501 930.796 270.553 935.446 274.622C940.242 278.546 942.64 283.124 942.64 288.356V311.682H938.716C936.246 297.149 931.522 286.757 924.546 280.508C917.716 274.113 908.051 270.916 895.552 270.916C888.867 270.916 882.981 272.951 877.894 277.02C872.808 281.089 870.264 286.394 870.264 292.934C870.264 298.893 872.081 303.834 875.714 307.758C879.493 311.682 885.742 316.26 894.462 321.492L921.276 337.406C931.159 343.365 938.135 348.887 942.204 353.974C946.274 359.061 948.308 365.528 948.308 373.376C948.308 385.584 944.239 395.394 936.1 402.806C927.962 410.073 916.916 413.706 902.964 413.706Z" fill="#CCF3FF"/>
</g>
<g filter="url(#filter1_d_513_407)">
<path d="M353.422 477V458.28H355.19V477H353.422ZM361.361 477H359.801V463.532H361.361V465.404C361.985 464.745 362.626 464.208 363.285 463.792C363.961 463.376 364.767 463.168 365.703 463.168C366.535 463.168 367.306 463.315 368.017 463.61C368.727 463.887 369.325 464.381 369.811 465.092C370.14 465.577 370.331 466.08 370.383 466.6C370.452 467.103 370.487 467.631 370.487 468.186V477H368.927V468.212C368.927 466.999 368.658 466.089 368.121 465.482C367.583 464.875 366.691 464.572 365.443 464.572C364.957 464.572 364.515 464.65 364.117 464.806C363.718 464.945 363.354 465.135 363.025 465.378C362.713 465.621 362.444 465.898 362.219 466.21C361.993 466.522 361.82 466.851 361.699 467.198C361.543 467.631 361.447 468.047 361.413 468.446C361.378 468.845 361.361 469.278 361.361 469.746V477ZM382.394 472.788C382.637 473.949 383.07 474.773 383.694 475.258C384.336 475.726 385.246 475.96 386.424 475.96C386.996 475.96 387.49 475.891 387.906 475.752C388.322 475.613 388.66 475.431 388.92 475.206C389.198 474.963 389.406 474.695 389.544 474.4C389.683 474.105 389.752 473.793 389.752 473.464C389.752 472.805 389.536 472.32 389.102 472.008C388.686 471.679 388.158 471.427 387.516 471.254C386.875 471.063 386.182 470.907 385.436 470.786C384.691 470.647 383.998 470.448 383.356 470.188C382.715 469.928 382.178 469.555 381.744 469.07C381.328 468.585 381.12 467.9 381.12 467.016C381.12 465.889 381.528 464.971 382.342 464.26C383.174 463.532 384.344 463.168 385.852 463.168C387.308 463.168 388.487 463.497 389.388 464.156C390.307 464.797 390.862 465.881 391.052 467.406H389.466C389.328 466.366 388.929 465.638 388.27 465.222C387.629 464.789 386.814 464.572 385.826 464.572C384.838 464.572 384.084 464.789 383.564 465.222C383.044 465.638 382.784 466.193 382.784 466.886C382.784 467.493 382.992 467.961 383.408 468.29C383.842 468.602 384.379 468.862 385.02 469.07C385.662 469.261 386.355 469.434 387.1 469.59C387.846 469.746 388.539 469.971 389.18 470.266C389.822 470.543 390.35 470.925 390.766 471.41C391.2 471.895 391.416 472.571 391.416 473.438C391.416 474.079 391.278 474.651 391 475.154C390.723 475.639 390.342 476.047 389.856 476.376C389.371 476.705 388.79 476.948 388.114 477.104C387.456 477.277 386.728 477.364 385.93 477.364C385.133 477.364 384.422 477.243 383.798 477C383.192 476.775 382.672 476.454 382.238 476.038C381.805 475.622 381.467 475.137 381.224 474.582C380.982 474.027 380.843 473.429 380.808 472.788H382.394ZM404.234 469.33C404.234 468.671 404.139 468.056 403.948 467.484C403.775 466.895 403.506 466.392 403.142 465.976C402.796 465.543 402.354 465.205 401.816 464.962C401.279 464.702 400.664 464.572 399.97 464.572C399.277 464.572 398.662 464.702 398.124 464.962C397.604 465.222 397.154 465.569 396.772 466.002C396.408 466.435 396.114 466.938 395.888 467.51C395.663 468.082 395.516 468.689 395.446 469.33H404.234ZM395.446 470.63C395.446 471.358 395.542 472.051 395.732 472.71C395.923 473.351 396.2 473.915 396.564 474.4C396.946 474.868 397.422 475.249 397.994 475.544C398.566 475.821 399.225 475.96 399.97 475.96C400.993 475.96 401.868 475.691 402.596 475.154C403.324 474.617 403.81 473.854 404.052 472.866H405.794C405.604 473.507 405.352 474.105 405.04 474.66C404.728 475.197 404.338 475.674 403.87 476.09C403.402 476.489 402.848 476.801 402.206 477.026C401.565 477.251 400.82 477.364 399.97 477.364C398.896 477.364 397.968 477.182 397.188 476.818C396.408 476.454 395.767 475.96 395.264 475.336C394.762 474.695 394.389 473.949 394.146 473.1C393.904 472.233 393.782 471.306 393.782 470.318C393.782 469.33 393.921 468.403 394.198 467.536C394.493 466.669 394.9 465.915 395.42 465.274C395.958 464.615 396.608 464.104 397.37 463.74C398.133 463.359 399 463.168 399.97 463.168C401.825 463.168 403.281 463.809 404.338 465.092C405.396 466.357 405.916 468.203 405.898 470.63H395.446ZM407.502 463.532H409.192L413.56 475.076L417.928 463.532H419.618L414.392 477H412.65L407.502 463.532ZM431.682 469.33C431.682 468.671 431.586 468.056 431.396 467.484C431.222 466.895 430.954 466.392 430.59 465.976C430.243 465.543 429.801 465.205 429.264 464.962C428.726 464.702 428.111 464.572 427.418 464.572C426.724 464.572 426.109 464.702 425.572 464.962C425.052 465.222 424.601 465.569 424.22 466.002C423.856 466.435 423.561 466.938 423.336 467.51C423.11 468.082 422.963 468.689 422.894 469.33H431.682ZM422.894 470.63C422.894 471.358 422.989 472.051 423.18 472.71C423.37 473.351 423.648 473.915 424.012 474.4C424.393 474.868 424.87 475.249 425.442 475.544C426.014 475.821 426.672 475.96 427.418 475.96C428.44 475.96 429.316 475.691 430.044 475.154C430.772 474.617 431.257 473.854 431.5 472.866H433.242C433.051 473.507 432.8 474.105 432.488 474.66C432.176 475.197 431.786 475.674 431.318 476.09C430.85 476.489 430.295 476.801 429.654 477.026C429.012 477.251 428.267 477.364 427.418 477.364C426.343 477.364 425.416 477.182 424.636 476.818C423.856 476.454 423.214 475.96 422.712 475.336C422.209 474.695 421.836 473.949 421.594 473.1C421.351 472.233 421.23 471.306 421.23 470.318C421.23 469.33 421.368 468.403 421.646 467.536C421.94 466.669 422.348 465.915 422.868 465.274C423.405 464.615 424.055 464.104 424.818 463.74C425.58 463.359 426.447 463.168 427.418 463.168C429.272 463.168 430.728 463.809 431.786 465.092C432.843 466.357 433.363 468.203 433.346 470.63H422.894ZM437.939 477H436.379V463.532H437.939V465.404C438.563 464.745 439.204 464.208 439.863 463.792C440.539 463.376 441.345 463.168 442.281 463.168C443.113 463.168 443.884 463.315 444.595 463.61C445.306 463.887 445.904 464.381 446.389 465.092C446.718 465.577 446.909 466.08 446.961 466.6C447.03 467.103 447.065 467.631 447.065 468.186V477H445.505V468.212C445.505 466.999 445.236 466.089 444.699 465.482C444.162 464.875 443.269 464.572 442.021 464.572C441.536 464.572 441.094 464.65 440.695 464.806C440.296 464.945 439.932 465.135 439.603 465.378C439.291 465.621 439.022 465.898 438.797 466.21C438.572 466.522 438.398 466.851 438.277 467.198C438.121 467.631 438.026 468.047 437.991 468.446C437.956 468.845 437.939 469.278 437.939 469.746V477ZM468.462 470.214C468.462 469.451 468.358 468.732 468.15 468.056C467.942 467.363 467.639 466.765 467.24 466.262C466.859 465.742 466.382 465.335 465.81 465.04C465.256 464.728 464.623 464.572 463.912 464.572C463.098 464.572 462.396 464.737 461.806 465.066C461.217 465.378 460.732 465.811 460.35 466.366C459.969 466.921 459.692 467.571 459.518 468.316C459.345 469.044 459.276 469.833 459.31 470.682C459.31 471.531 459.423 472.285 459.648 472.944C459.891 473.585 460.22 474.131 460.636 474.582C461.052 475.033 461.538 475.379 462.092 475.622C462.647 475.847 463.254 475.96 463.912 475.96C464.64 475.96 465.29 475.813 465.862 475.518C466.434 475.223 466.911 474.825 467.292 474.322C467.674 473.802 467.96 473.195 468.15 472.502C468.358 471.791 468.462 471.029 468.462 470.214ZM468.462 458.28H470.022V477H468.462V474.634H468.41C468.185 475.085 467.89 475.483 467.526 475.83C467.18 476.159 466.79 476.437 466.356 476.662C465.94 476.887 465.507 477.061 465.056 477.182C464.606 477.303 464.164 477.364 463.73 477.364C462.638 477.364 461.711 477.182 460.948 476.818C460.186 476.454 459.553 475.96 459.05 475.336C458.565 474.695 458.21 473.941 457.984 473.074C457.759 472.207 457.646 471.28 457.646 470.292C457.646 469.356 457.768 468.455 458.01 467.588C458.253 466.721 458.617 465.967 459.102 465.326C459.605 464.667 460.229 464.147 460.974 463.766C461.737 463.367 462.63 463.168 463.652 463.168C464.606 463.168 465.516 463.385 466.382 463.818C467.266 464.234 467.96 464.858 468.462 465.69V458.28ZM482.771 469.928C482.112 470.205 481.445 470.387 480.769 470.474C480.093 470.561 479.417 470.63 478.741 470.682C477.545 470.769 476.609 471.037 475.933 471.488C475.274 471.939 474.945 472.623 474.945 473.542C474.945 473.958 475.023 474.322 475.179 474.634C475.352 474.929 475.569 475.18 475.829 475.388C476.106 475.579 476.418 475.726 476.765 475.83C477.129 475.917 477.493 475.96 477.857 475.96C478.481 475.96 479.088 475.882 479.677 475.726C480.266 475.57 480.786 475.336 481.237 475.024C481.705 474.695 482.078 474.287 482.355 473.802C482.632 473.299 482.771 472.71 482.771 472.034V469.928ZM480.145 469.148C480.44 469.113 480.786 469.061 481.185 468.992C481.601 468.923 481.939 468.827 482.199 468.706C482.459 468.585 482.615 468.385 482.667 468.108C482.736 467.813 482.771 467.545 482.771 467.302C482.771 466.505 482.511 465.855 481.991 465.352C481.488 464.832 480.63 464.572 479.417 464.572C478.88 464.572 478.386 464.624 477.935 464.728C477.484 464.815 477.086 464.979 476.739 465.222C476.41 465.447 476.132 465.759 475.907 466.158C475.699 466.539 475.56 467.025 475.491 467.614H473.905C473.957 466.817 474.139 466.141 474.451 465.586C474.763 465.014 475.162 464.555 475.647 464.208C476.15 463.844 476.722 463.584 477.363 463.428C478.022 463.255 478.715 463.168 479.443 463.168C480.119 463.168 480.752 463.246 481.341 463.402C481.948 463.541 482.468 463.775 482.901 464.104C483.352 464.416 483.698 464.841 483.941 465.378C484.201 465.915 484.331 466.574 484.331 467.354V474.686C484.331 475.293 484.435 475.683 484.643 475.856C484.868 476.012 485.31 475.969 485.969 475.726V476.948C485.848 476.983 485.666 477.035 485.423 477.104C485.198 477.173 484.972 477.208 484.747 477.208C484.504 477.208 484.27 477.182 484.045 477.13C483.785 477.095 483.577 477.017 483.421 476.896C483.265 476.757 483.135 476.601 483.031 476.428C482.944 476.237 482.884 476.038 482.849 475.83C482.814 475.605 482.797 475.371 482.797 475.128C482.138 475.856 481.384 476.411 480.535 476.792C479.686 477.173 478.767 477.364 477.779 477.364C477.19 477.364 476.618 477.286 476.063 477.13C475.526 476.974 475.049 476.731 474.633 476.402C474.217 476.073 473.888 475.674 473.645 475.206C473.402 474.721 473.281 474.149 473.281 473.49C473.281 471.202 474.85 469.85 477.987 469.434L480.145 469.148ZM488.3 480.666C488.508 480.701 488.716 480.735 488.924 480.77C489.15 480.805 489.375 480.822 489.6 480.822C490.034 480.822 490.389 480.683 490.666 480.406C490.944 480.129 491.169 479.791 491.342 479.392C491.533 479.011 491.689 478.603 491.81 478.17C491.932 477.754 492.07 477.399 492.226 477.104L487 463.532H488.742L493.058 475.102L497.374 463.532H499.064L494.046 476.818C493.734 477.667 493.431 478.43 493.136 479.106C492.859 479.782 492.556 480.354 492.226 480.822C491.914 481.307 491.559 481.671 491.16 481.914C490.779 482.174 490.32 482.304 489.782 482.304C489.505 482.304 489.236 482.287 488.976 482.252C488.734 482.217 488.508 482.174 488.3 482.122V480.666ZM502.314 472.788C502.557 473.949 502.99 474.773 503.614 475.258C504.256 475.726 505.166 475.96 506.344 475.96C506.916 475.96 507.41 475.891 507.826 475.752C508.242 475.613 508.58 475.431 508.84 475.206C509.118 474.963 509.326 474.695 509.464 474.4C509.603 474.105 509.672 473.793 509.672 473.464C509.672 472.805 509.456 472.32 509.022 472.008C508.606 471.679 508.078 471.427 507.436 471.254C506.795 471.063 506.102 470.907 505.356 470.786C504.611 470.647 503.918 470.448 503.276 470.188C502.635 469.928 502.098 469.555 501.664 469.07C501.248 468.585 501.04 467.9 501.04 467.016C501.04 465.889 501.448 464.971 502.262 464.26C503.094 463.532 504.264 463.168 505.772 463.168C507.228 463.168 508.407 463.497 509.308 464.156C510.227 464.797 510.782 465.881 510.972 467.406H509.386C509.248 466.366 508.849 465.638 508.19 465.222C507.549 464.789 506.734 464.572 505.746 464.572C504.758 464.572 504.004 464.789 503.484 465.222C502.964 465.638 502.704 466.193 502.704 466.886C502.704 467.493 502.912 467.961 503.328 468.29C503.762 468.602 504.299 468.862 504.94 469.07C505.582 469.261 506.275 469.434 507.02 469.59C507.766 469.746 508.459 469.971 509.1 470.266C509.742 470.543 510.27 470.925 510.686 471.41C511.12 471.895 511.336 472.571 511.336 473.438C511.336 474.079 511.198 474.651 510.92 475.154C510.643 475.639 510.262 476.047 509.776 476.376C509.291 476.705 508.71 476.948 508.034 477.104C507.376 477.277 506.648 477.364 505.85 477.364C505.053 477.364 504.342 477.243 503.718 477C503.112 476.775 502.592 476.454 502.158 476.038C501.725 475.622 501.387 475.137 501.144 474.582C500.902 474.027 500.763 473.429 500.728 472.788H502.314ZM529.831 468.836V467.328H537.839V477H536.331V473.802C536.001 474.357 535.62 474.868 535.187 475.336C534.771 475.787 534.285 476.177 533.731 476.506C533.176 476.818 532.535 477.061 531.807 477.234C531.079 477.407 530.255 477.494 529.337 477.494C528.158 477.494 527.066 477.286 526.061 476.87C525.055 476.454 524.189 475.839 523.461 475.024C522.733 474.192 522.161 473.152 521.745 471.904C521.346 470.656 521.147 469.2 521.147 467.536C521.147 466.167 521.32 464.893 521.667 463.714C522.013 462.518 522.542 461.487 523.253 460.62C523.981 459.736 524.882 459.043 525.957 458.54C527.049 458.037 528.331 457.786 529.805 457.786C530.793 457.786 531.711 457.907 532.561 458.15C533.427 458.393 534.199 458.765 534.875 459.268C535.568 459.753 536.149 460.369 536.617 461.114C537.085 461.842 537.423 462.709 537.631 463.714H535.811C535.655 463.021 535.386 462.397 535.005 461.842C534.641 461.287 534.199 460.828 533.679 460.464C533.159 460.083 532.578 459.797 531.937 459.606C531.295 459.398 530.628 459.294 529.935 459.294C528.704 459.294 527.647 459.511 526.763 459.944C525.879 460.377 525.151 460.993 524.579 461.79C524.007 462.57 523.582 463.515 523.305 464.624C523.045 465.716 522.915 466.921 522.915 468.238C522.915 469.278 523.062 470.266 523.357 471.202C523.669 472.138 524.111 472.961 524.683 473.672C525.272 474.383 525.983 474.946 526.815 475.362C527.664 475.778 528.626 475.986 529.701 475.986C530.203 475.986 530.723 475.934 531.261 475.83C531.798 475.709 532.318 475.518 532.821 475.258C533.323 474.998 533.791 474.66 534.225 474.244C534.658 473.828 535.031 473.317 535.343 472.71C535.637 472.121 535.837 471.505 535.941 470.864C536.062 470.223 536.131 469.547 536.149 468.836H529.831ZM547.233 477.364C546.366 477.347 545.552 477.191 544.789 476.896C544.044 476.601 543.385 476.159 542.813 475.57C542.258 474.981 541.816 474.244 541.487 473.36C541.158 472.476 540.993 471.445 540.993 470.266C540.993 469.278 541.123 468.359 541.383 467.51C541.643 466.643 542.033 465.889 542.553 465.248C543.073 464.607 543.723 464.104 544.503 463.74C545.283 463.359 546.193 463.168 547.233 463.168C548.29 463.168 549.209 463.359 549.989 463.74C550.769 464.104 551.419 464.607 551.939 465.248C552.459 465.872 552.84 466.617 553.083 467.484C553.343 468.351 553.473 469.278 553.473 470.266C553.473 471.341 553.326 472.311 553.031 473.178C552.736 474.045 552.312 474.79 551.757 475.414C551.22 476.038 550.561 476.523 549.781 476.87C549.018 477.199 548.169 477.364 547.233 477.364ZM551.809 470.266C551.809 469.469 551.722 468.723 551.549 468.03C551.376 467.337 551.107 466.739 550.743 466.236C550.379 465.716 549.911 465.309 549.339 465.014C548.767 464.719 548.065 464.572 547.233 464.572C546.418 464.572 545.716 464.737 545.127 465.066C544.555 465.378 544.087 465.803 543.723 466.34C543.359 466.86 543.09 467.467 542.917 468.16C542.744 468.836 542.657 469.538 542.657 470.266C542.657 471.098 542.752 471.869 542.943 472.58C543.151 473.273 543.446 473.871 543.827 474.374C544.208 474.877 544.685 475.267 545.257 475.544C545.829 475.821 546.488 475.96 547.233 475.96C548.048 475.96 548.741 475.804 549.313 475.492C549.902 475.163 550.379 474.729 550.743 474.192C551.107 473.655 551.376 473.048 551.549 472.372C551.722 471.696 551.809 470.994 551.809 470.266ZM566.724 470.214C566.724 469.451 566.62 468.732 566.412 468.056C566.204 467.363 565.901 466.765 565.502 466.262C565.121 465.742 564.644 465.335 564.072 465.04C563.517 464.728 562.885 464.572 562.174 464.572C561.359 464.572 560.657 464.737 560.068 465.066C559.479 465.378 558.993 465.811 558.612 466.366C558.231 466.921 557.953 467.571 557.78 468.316C557.607 469.044 557.537 469.833 557.572 470.682C557.572 471.531 557.685 472.285 557.91 472.944C558.153 473.585 558.482 474.131 558.898 474.582C559.314 475.033 559.799 475.379 560.354 475.622C560.909 475.847 561.515 475.96 562.174 475.96C562.902 475.96 563.552 475.813 564.124 475.518C564.696 475.223 565.173 474.825 565.554 474.322C565.935 473.802 566.221 473.195 566.412 472.502C566.62 471.791 566.724 471.029 566.724 470.214ZM566.724 458.28H568.284V477H566.724V474.634H566.672C566.447 475.085 566.152 475.483 565.788 475.83C565.441 476.159 565.051 476.437 564.618 476.662C564.202 476.887 563.769 477.061 563.318 477.182C562.867 477.303 562.425 477.364 561.992 477.364C560.9 477.364 559.973 477.182 559.21 476.818C558.447 476.454 557.815 475.96 557.312 475.336C556.827 474.695 556.471 473.941 556.246 473.074C556.021 472.207 555.908 471.28 555.908 470.292C555.908 469.356 556.029 468.455 556.272 467.588C556.515 466.721 556.879 465.967 557.364 465.326C557.867 464.667 558.491 464.147 559.236 463.766C559.999 463.367 560.891 463.168 561.914 463.168C562.867 463.168 563.777 463.385 564.644 463.818C565.528 464.234 566.221 464.858 566.724 465.69V458.28ZM588.997 467.77C588.72 466.765 588.243 465.985 587.567 465.43C586.891 464.858 586.033 464.572 584.993 464.572C584.196 464.572 583.511 464.737 582.939 465.066C582.367 465.395 581.899 465.837 581.535 466.392C581.171 466.929 580.902 467.545 580.729 468.238C580.556 468.914 580.469 469.599 580.469 470.292C580.469 471.003 580.547 471.696 580.703 472.372C580.876 473.048 581.145 473.655 581.509 474.192C581.873 474.729 582.341 475.163 582.913 475.492C583.485 475.804 584.178 475.96 584.993 475.96C586.154 475.96 587.082 475.639 587.775 474.998C588.486 474.357 588.936 473.473 589.127 472.346H590.791C590.652 473.091 590.427 473.776 590.115 474.4C589.82 475.007 589.43 475.535 588.945 475.986C588.477 476.419 587.914 476.757 587.255 477C586.596 477.243 585.842 477.364 584.993 477.364C583.918 477.364 582.991 477.182 582.211 476.818C581.431 476.454 580.79 475.96 580.287 475.336C579.784 474.695 579.412 473.941 579.169 473.074C578.926 472.207 578.805 471.28 578.805 470.292C578.805 469.356 578.935 468.463 579.195 467.614C579.472 466.747 579.871 465.985 580.391 465.326C580.911 464.667 581.552 464.147 582.315 463.766C583.095 463.367 583.988 463.168 584.993 463.168C586.553 463.168 587.81 463.541 588.763 464.286C589.734 465.031 590.34 466.193 590.583 467.77H588.997ZM595.54 477H593.98V463.532H595.54V466.054H595.592C596.026 464.979 596.58 464.234 597.256 463.818C597.95 463.385 598.86 463.168 599.986 463.168V464.858C599.102 464.841 598.374 464.979 597.802 465.274C597.23 465.569 596.771 465.967 596.424 466.47C596.095 466.973 595.861 467.571 595.722 468.264C595.601 468.94 595.54 469.651 595.54 470.396V477ZM611.853 469.33C611.853 468.671 611.758 468.056 611.567 467.484C611.394 466.895 611.125 466.392 610.761 465.976C610.415 465.543 609.973 465.205 609.435 464.962C608.898 464.702 608.283 464.572 607.589 464.572C606.896 464.572 606.281 464.702 605.743 464.962C605.223 465.222 604.773 465.569 604.391 466.002C604.027 466.435 603.733 466.938 603.507 467.51C603.282 468.082 603.135 468.689 603.065 469.33H611.853ZM603.065 470.63C603.065 471.358 603.161 472.051 603.351 472.71C603.542 473.351 603.819 473.915 604.183 474.4C604.565 474.868 605.041 475.249 605.613 475.544C606.185 475.821 606.844 475.96 607.589 475.96C608.612 475.96 609.487 475.691 610.215 475.154C610.943 474.617 611.429 473.854 611.671 472.866H613.413C613.223 473.507 612.971 474.105 612.659 474.66C612.347 475.197 611.957 475.674 611.489 476.09C611.021 476.489 610.467 476.801 609.825 477.026C609.184 477.251 608.439 477.364 607.589 477.364C606.515 477.364 605.587 477.182 604.807 476.818C604.027 476.454 603.386 475.96 602.883 475.336C602.381 474.695 602.008 473.949 601.765 473.1C601.523 472.233 601.401 471.306 601.401 470.318C601.401 469.33 601.54 468.403 601.817 467.536C602.112 466.669 602.519 465.915 603.039 465.274C603.577 464.615 604.227 464.104 604.989 463.74C605.752 463.359 606.619 463.168 607.589 463.168C609.444 463.168 610.9 463.809 611.957 465.092C613.015 466.357 613.535 468.203 613.517 470.63H603.065ZM625.365 469.928C624.706 470.205 624.039 470.387 623.363 470.474C622.687 470.561 622.011 470.63 621.335 470.682C620.139 470.769 619.203 471.037 618.527 471.488C617.868 471.939 617.539 472.623 617.539 473.542C617.539 473.958 617.617 474.322 617.773 474.634C617.946 474.929 618.163 475.18 618.423 475.388C618.7 475.579 619.012 475.726 619.359 475.83C619.723 475.917 620.087 475.96 620.451 475.96C621.075 475.96 621.681 475.882 622.271 475.726C622.86 475.57 623.38 475.336 623.831 475.024C624.299 474.695 624.671 474.287 624.949 473.802C625.226 473.299 625.365 472.71 625.365 472.034V469.928ZM622.739 469.148C623.033 469.113 623.38 469.061 623.779 468.992C624.195 468.923 624.533 468.827 624.793 468.706C625.053 468.585 625.209 468.385 625.261 468.108C625.33 467.813 625.365 467.545 625.365 467.302C625.365 466.505 625.105 465.855 624.585 465.352C624.082 464.832 623.224 464.572 622.011 464.572C621.473 464.572 620.979 464.624 620.529 464.728C620.078 464.815 619.679 464.979 619.333 465.222C619.003 465.447 618.726 465.759 618.501 466.158C618.293 466.539 618.154 467.025 618.085 467.614H616.499C616.551 466.817 616.733 466.141 617.045 465.586C617.357 465.014 617.755 464.555 618.241 464.208C618.743 463.844 619.315 463.584 619.957 463.428C620.615 463.255 621.309 463.168 622.037 463.168C622.713 463.168 623.345 463.246 623.935 463.402C624.541 463.541 625.061 463.775 625.495 464.104C625.945 464.416 626.292 464.841 626.535 465.378C626.795 465.915 626.925 466.574 626.925 467.354V474.686C626.925 475.293 627.029 475.683 627.237 475.856C627.462 476.012 627.904 475.969 628.563 475.726V476.948C628.441 476.983 628.259 477.035 628.017 477.104C627.791 477.173 627.566 477.208 627.341 477.208C627.098 477.208 626.864 477.182 626.639 477.13C626.379 477.095 626.171 477.017 626.015 476.896C625.859 476.757 625.729 476.601 625.625 476.428C625.538 476.237 625.477 476.038 625.443 475.83C625.408 475.605 625.391 475.371 625.391 475.128C624.732 475.856 623.978 476.411 623.129 476.792C622.279 477.173 621.361 477.364 620.373 477.364C619.783 477.364 619.211 477.286 618.657 477.13C618.119 476.974 617.643 476.731 617.227 476.402C616.811 476.073 616.481 475.674 616.239 475.206C615.996 474.721 615.875 474.149 615.875 473.49C615.875 471.202 617.443 469.85 620.581 469.434L622.739 469.148ZM635.73 477.052C635.539 477.087 635.288 477.147 634.976 477.234C634.664 477.321 634.317 477.364 633.936 477.364C633.156 477.364 632.558 477.173 632.142 476.792C631.743 476.393 631.544 475.691 631.544 474.686V464.832H629.646V463.532H631.544V459.788H633.104V463.532H635.626V464.832H633.104V474.062C633.104 474.391 633.113 474.677 633.13 474.92C633.147 475.163 633.199 475.362 633.286 475.518C633.373 475.674 633.503 475.787 633.676 475.856C633.867 475.925 634.127 475.96 634.456 475.96C634.664 475.96 634.872 475.943 635.08 475.908C635.305 475.873 635.522 475.83 635.73 475.778V477.052ZM647.984 469.33C647.984 468.671 647.889 468.056 647.698 467.484C647.525 466.895 647.256 466.392 646.892 465.976C646.546 465.543 646.104 465.205 645.566 464.962C645.029 464.702 644.414 464.572 643.72 464.572C643.027 464.572 642.412 464.702 641.874 464.962C641.354 465.222 640.904 465.569 640.522 466.002C640.158 466.435 639.864 466.938 639.638 467.51C639.413 468.082 639.266 468.689 639.196 469.33H647.984ZM639.196 470.63C639.196 471.358 639.292 472.051 639.482 472.71C639.673 473.351 639.95 473.915 640.314 474.4C640.696 474.868 641.172 475.249 641.744 475.544C642.316 475.821 642.975 475.96 643.72 475.96C644.743 475.96 645.618 475.691 646.346 475.154C647.074 474.617 647.56 473.854 647.802 472.866H649.544C649.354 473.507 649.102 474.105 648.79 474.66C648.478 475.197 648.088 475.674 647.62 476.09C647.152 476.489 646.598 476.801 645.956 477.026C645.315 477.251 644.57 477.364 643.72 477.364C642.646 477.364 641.718 477.182 640.938 476.818C640.158 476.454 639.517 475.96 639.014 475.336C638.512 474.695 638.139 473.949 637.896 473.1C637.654 472.233 637.532 471.306 637.532 470.318C637.532 469.33 637.671 468.403 637.948 467.536C638.243 466.669 638.65 465.915 639.17 465.274C639.708 464.615 640.358 464.104 641.12 463.74C641.883 463.359 642.75 463.168 643.72 463.168C645.575 463.168 647.031 463.809 648.088 465.092C649.146 466.357 649.666 468.203 649.648 470.63H639.196ZM663.082 470.214C663.082 469.451 662.978 468.732 662.77 468.056C662.562 467.363 662.258 466.765 661.86 466.262C661.478 465.742 661.002 465.335 660.43 465.04C659.875 464.728 659.242 464.572 658.532 464.572C657.717 464.572 657.015 464.737 656.426 465.066C655.836 465.378 655.351 465.811 654.97 466.366C654.588 466.921 654.311 467.571 654.138 468.316C653.964 469.044 653.895 469.833 653.93 470.682C653.93 471.531 654.042 472.285 654.268 472.944C654.51 473.585 654.84 474.131 655.256 474.582C655.672 475.033 656.157 475.379 656.712 475.622C657.266 475.847 657.873 475.96 658.532 475.96C659.26 475.96 659.91 475.813 660.482 475.518C661.054 475.223 661.53 474.825 661.912 474.322C662.293 473.802 662.579 473.195 662.77 472.502C662.978 471.791 663.082 471.029 663.082 470.214ZM663.082 458.28H664.642V477H663.082V474.634H663.03C662.804 475.085 662.51 475.483 662.146 475.83C661.799 476.159 661.409 476.437 660.976 476.662C660.56 476.887 660.126 477.061 659.676 477.182C659.225 477.303 658.783 477.364 658.35 477.364C657.258 477.364 656.33 477.182 655.568 476.818C654.805 476.454 654.172 475.96 653.67 475.336C653.184 474.695 652.829 473.941 652.604 473.074C652.378 472.207 652.266 471.28 652.266 470.292C652.266 469.356 652.387 468.455 652.63 467.588C652.872 466.721 653.236 465.967 653.722 465.326C654.224 464.667 654.848 464.147 655.594 463.766C656.356 463.367 657.249 463.168 658.272 463.168C659.225 463.168 660.135 463.385 661.002 463.818C661.886 464.234 662.579 464.858 663.082 465.69V458.28ZM680.544 477.052C680.354 477.087 680.102 477.147 679.79 477.234C679.478 477.321 679.132 477.364 678.75 477.364C677.97 477.364 677.372 477.173 676.956 476.792C676.558 476.393 676.358 475.691 676.358 474.686V464.832H674.46V463.532H676.358V459.788H677.918V463.532H680.44V464.832H677.918V474.062C677.918 474.391 677.927 474.677 677.944 474.92C677.962 475.163 678.014 475.362 678.1 475.518C678.187 475.674 678.317 475.787 678.49 475.856C678.681 475.925 678.941 475.96 679.27 475.96C679.478 475.96 679.686 475.943 679.894 475.908C680.12 475.873 680.336 475.83 680.544 475.778V477.052ZM683.049 477V458.28H684.609V465.404C685.233 464.745 685.874 464.208 686.533 463.792C687.209 463.376 688.015 463.168 688.951 463.168C689.783 463.168 690.554 463.315 691.265 463.61C691.975 463.887 692.573 464.381 693.059 465.092C693.388 465.577 693.579 466.08 693.631 466.6C693.7 467.103 693.735 467.631 693.735 468.186V477H692.175V468.212C692.175 466.999 691.906 466.089 691.369 465.482C690.831 464.875 689.939 464.572 688.691 464.572C688.205 464.572 687.763 464.65 687.365 464.806C686.966 464.945 686.602 465.135 686.273 465.378C685.961 465.621 685.692 465.898 685.467 466.21C685.241 466.522 685.068 466.851 684.947 467.198C684.791 467.631 684.695 468.047 684.661 468.446C684.626 468.845 684.609 469.278 684.609 469.746V477H683.049ZM707.246 469.33C707.246 468.671 707.151 468.056 706.96 467.484C706.787 466.895 706.518 466.392 706.154 465.976C705.807 465.543 705.365 465.205 704.828 464.962C704.291 464.702 703.675 464.572 702.982 464.572C702.289 464.572 701.673 464.702 701.136 464.962C700.616 465.222 700.165 465.569 699.784 466.002C699.42 466.435 699.125 466.938 698.9 467.51C698.675 468.082 698.527 468.689 698.458 469.33H707.246ZM698.458 470.63C698.458 471.358 698.553 472.051 698.744 472.71C698.935 473.351 699.212 473.915 699.576 474.4C699.957 474.868 700.434 475.249 701.006 475.544C701.578 475.821 702.237 475.96 702.982 475.96C704.005 475.96 704.88 475.691 705.608 475.154C706.336 474.617 706.821 473.854 707.064 472.866H708.806C708.615 473.507 708.364 474.105 708.052 474.66C707.74 475.197 707.35 475.674 706.882 476.09C706.414 476.489 705.859 476.801 705.218 477.026C704.577 477.251 703.831 477.364 702.982 477.364C701.907 477.364 700.98 477.182 700.2 476.818C699.42 476.454 698.779 475.96 698.276 475.336C697.773 474.695 697.401 473.949 697.158 473.1C696.915 472.233 696.794 471.306 696.794 470.318C696.794 469.33 696.933 468.403 697.21 467.536C697.505 466.669 697.912 465.915 698.432 465.274C698.969 464.615 699.619 464.104 700.382 463.74C701.145 463.359 702.011 463.168 702.982 463.168C704.837 463.168 706.293 463.809 707.35 465.092C708.407 466.357 708.927 468.203 708.91 470.63H698.458ZM377.003 504.92L380.539 493.532H382.125L377.757 507H376.093L373.155 495.69H373.103L370.113 507H368.241L364.133 493.532H365.693L369.177 505.024L372.297 493.532H374.039L377.003 504.92ZM389.735 507.364C388.868 507.347 388.054 507.191 387.291 506.896C386.546 506.601 385.887 506.159 385.315 505.57C384.76 504.981 384.318 504.244 383.989 503.36C383.66 502.476 383.495 501.445 383.495 500.266C383.495 499.278 383.625 498.359 383.885 497.51C384.145 496.643 384.535 495.889 385.055 495.248C385.575 494.607 386.225 494.104 387.005 493.74C387.785 493.359 388.695 493.168 389.735 493.168C390.792 493.168 391.711 493.359 392.491 493.74C393.271 494.104 393.921 494.607 394.441 495.248C394.961 495.872 395.342 496.617 395.585 497.484C395.845 498.351 395.975 499.278 395.975 500.266C395.975 501.341 395.828 502.311 395.533 503.178C395.238 504.045 394.814 504.79 394.259 505.414C393.722 506.038 393.063 506.523 392.283 506.87C391.52 507.199 390.671 507.364 389.735 507.364ZM394.311 500.266C394.311 499.469 394.224 498.723 394.051 498.03C393.878 497.337 393.609 496.739 393.245 496.236C392.881 495.716 392.413 495.309 391.841 495.014C391.269 494.719 390.567 494.572 389.735 494.572C388.92 494.572 388.218 494.737 387.629 495.066C387.057 495.378 386.589 495.803 386.225 496.34C385.861 496.86 385.592 497.467 385.419 498.16C385.246 498.836 385.159 499.538 385.159 500.266C385.159 501.098 385.254 501.869 385.445 502.58C385.653 503.273 385.948 503.871 386.329 504.374C386.71 504.877 387.187 505.267 387.759 505.544C388.331 505.821 388.99 505.96 389.735 505.96C390.55 505.96 391.243 505.804 391.815 505.492C392.404 505.163 392.881 504.729 393.245 504.192C393.609 503.655 393.878 503.048 394.051 502.372C394.224 501.696 394.311 500.994 394.311 500.266ZM400.464 507H398.904V493.532H400.464V496.054H400.516C400.949 494.979 401.504 494.234 402.18 493.818C402.873 493.385 403.783 493.168 404.91 493.168V494.858C404.026 494.841 403.298 494.979 402.726 495.274C402.154 495.569 401.695 495.967 401.348 496.47C401.019 496.973 400.785 497.571 400.646 498.264C400.525 498.94 400.464 499.651 400.464 500.396V507ZM407.718 507V488.28H409.278V507H407.718ZM423.648 500.214C423.648 499.451 423.544 498.732 423.336 498.056C423.128 497.363 422.825 496.765 422.426 496.262C422.045 495.742 421.568 495.335 420.996 495.04C420.441 494.728 419.809 494.572 419.098 494.572C418.283 494.572 417.581 494.737 416.992 495.066C416.403 495.378 415.917 495.811 415.536 496.366C415.155 496.921 414.877 497.571 414.704 498.316C414.531 499.044 414.461 499.833 414.496 500.682C414.496 501.531 414.609 502.285 414.834 502.944C415.077 503.585 415.406 504.131 415.822 504.582C416.238 505.033 416.723 505.379 417.278 505.622C417.833 505.847 418.439 505.96 419.098 505.96C419.826 505.96 420.476 505.813 421.048 505.518C421.62 505.223 422.097 504.825 422.478 504.322C422.859 503.802 423.145 503.195 423.336 502.502C423.544 501.791 423.648 501.029 423.648 500.214ZM423.648 488.28H425.208V507H423.648V504.634H423.596C423.371 505.085 423.076 505.483 422.712 505.83C422.365 506.159 421.975 506.437 421.542 506.662C421.126 506.887 420.693 507.061 420.242 507.182C419.791 507.303 419.349 507.364 418.916 507.364C417.824 507.364 416.897 507.182 416.134 506.818C415.371 506.454 414.739 505.96 414.236 505.336C413.751 504.695 413.395 503.941 413.17 503.074C412.945 502.207 412.832 501.28 412.832 500.292C412.832 499.356 412.953 498.455 413.196 497.588C413.439 496.721 413.803 495.967 414.288 495.326C414.791 494.667 415.415 494.147 416.16 493.766C416.923 493.367 417.815 493.168 418.838 493.168C419.791 493.168 420.701 493.385 421.568 493.818C422.452 494.234 423.145 494.858 423.648 495.69V488.28ZM445.193 499.928C444.534 500.205 443.867 500.387 443.191 500.474C442.515 500.561 441.839 500.63 441.163 500.682C439.967 500.769 439.031 501.037 438.355 501.488C437.696 501.939 437.367 502.623 437.367 503.542C437.367 503.958 437.445 504.322 437.601 504.634C437.774 504.929 437.991 505.18 438.251 505.388C438.528 505.579 438.84 505.726 439.187 505.83C439.551 505.917 439.915 505.96 440.279 505.96C440.903 505.96 441.51 505.882 442.099 505.726C442.688 505.57 443.208 505.336 443.659 505.024C444.127 504.695 444.5 504.287 444.777 503.802C445.054 503.299 445.193 502.71 445.193 502.034V499.928ZM442.567 499.148C442.862 499.113 443.208 499.061 443.607 498.992C444.023 498.923 444.361 498.827 444.621 498.706C444.881 498.585 445.037 498.385 445.089 498.108C445.158 497.813 445.193 497.545 445.193 497.302C445.193 496.505 444.933 495.855 444.413 495.352C443.91 494.832 443.052 494.572 441.839 494.572C441.302 494.572 440.808 494.624 440.357 494.728C439.906 494.815 439.508 494.979 439.161 495.222C438.832 495.447 438.554 495.759 438.329 496.158C438.121 496.539 437.982 497.025 437.913 497.614H436.327C436.379 496.817 436.561 496.141 436.873 495.586C437.185 495.014 437.584 494.555 438.069 494.208C438.572 493.844 439.144 493.584 439.785 493.428C440.444 493.255 441.137 493.168 441.865 493.168C442.541 493.168 443.174 493.246 443.763 493.402C444.37 493.541 444.89 493.775 445.323 494.104C445.774 494.416 446.12 494.841 446.363 495.378C446.623 495.915 446.753 496.574 446.753 497.354V504.686C446.753 505.293 446.857 505.683 447.065 505.856C447.29 506.012 447.732 505.969 448.391 505.726V506.948C448.27 506.983 448.088 507.035 447.845 507.104C447.62 507.173 447.394 507.208 447.169 507.208C446.926 507.208 446.692 507.182 446.467 507.13C446.207 507.095 445.999 507.017 445.843 506.896C445.687 506.757 445.557 506.601 445.453 506.428C445.366 506.237 445.306 506.038 445.271 505.83C445.236 505.605 445.219 505.371 445.219 505.128C444.56 505.856 443.806 506.411 442.957 506.792C442.108 507.173 441.189 507.364 440.201 507.364C439.612 507.364 439.04 507.286 438.485 507.13C437.948 506.974 437.471 506.731 437.055 506.402C436.639 506.073 436.31 505.674 436.067 505.206C435.824 504.721 435.703 504.149 435.703 503.49C435.703 501.202 437.272 499.85 440.409 499.434L442.567 499.148ZM452.386 507H450.826V493.532H452.386V495.404C453.01 494.745 453.651 494.208 454.31 493.792C454.986 493.376 455.792 493.168 456.728 493.168C457.56 493.168 458.331 493.315 459.042 493.61C459.753 493.887 460.351 494.381 460.836 495.092C461.165 495.577 461.356 496.08 461.408 496.6C461.477 497.103 461.512 497.631 461.512 498.186V507H459.952V498.212C459.952 496.999 459.683 496.089 459.146 495.482C458.609 494.875 457.716 494.572 456.468 494.572C455.983 494.572 455.541 494.65 455.142 494.806C454.743 494.945 454.379 495.135 454.05 495.378C453.738 495.621 453.469 495.898 453.244 496.21C453.019 496.522 452.845 496.851 452.724 497.198C452.568 497.631 452.473 498.047 452.438 498.446C452.403 498.845 452.386 499.278 452.386 499.746V507ZM475.673 500.214C475.673 499.451 475.569 498.732 475.361 498.056C475.153 497.363 474.85 496.765 474.451 496.262C474.07 495.742 473.593 495.335 473.021 495.04C472.467 494.728 471.834 494.572 471.123 494.572C470.309 494.572 469.607 494.737 469.017 495.066C468.428 495.378 467.943 495.811 467.561 496.366C467.18 496.921 466.903 497.571 466.729 498.316C466.556 499.044 466.487 499.833 466.521 500.682C466.521 501.531 466.634 502.285 466.859 502.944C467.102 503.585 467.431 504.131 467.847 504.582C468.263 505.033 468.749 505.379 469.303 505.622C469.858 505.847 470.465 505.96 471.123 505.96C471.851 505.96 472.501 505.813 473.073 505.518C473.645 505.223 474.122 504.825 474.503 504.322C474.885 503.802 475.171 503.195 475.361 502.502C475.569 501.791 475.673 501.029 475.673 500.214ZM475.673 488.28H477.233V507H475.673V504.634H475.621C475.396 505.085 475.101 505.483 474.737 505.83C474.391 506.159 474.001 506.437 473.567 506.662C473.151 506.887 472.718 507.061 472.267 507.182C471.817 507.303 471.375 507.364 470.941 507.364C469.849 507.364 468.922 507.182 468.159 506.818C467.397 506.454 466.764 505.96 466.261 505.336C465.776 504.695 465.421 503.941 465.195 503.074C464.97 502.207 464.857 501.28 464.857 500.292C464.857 499.356 464.979 498.455 465.221 497.588C465.464 496.721 465.828 495.967 466.313 495.326C466.816 494.667 467.44 494.147 468.185 493.766C468.948 493.367 469.841 493.168 470.863 493.168C471.817 493.168 472.727 493.385 473.593 493.818C474.477 494.234 475.171 494.858 475.673 495.69V488.28ZM488.181 507V493.532H489.741V507H488.181ZM488.103 490.594V488.28H489.819V490.594H488.103ZM495.271 507H493.711V493.532H495.271V495.404C495.895 494.745 496.536 494.208 497.195 493.792C497.871 493.376 498.677 493.168 499.613 493.168C500.445 493.168 501.216 493.315 501.927 493.61C502.638 493.887 503.236 494.381 503.721 495.092C504.05 495.577 504.241 496.08 504.293 496.6C504.362 497.103 504.397 497.631 504.397 498.186V507H502.837V498.212C502.837 496.999 502.568 496.089 502.031 495.482C501.494 494.875 500.601 494.572 499.353 494.572C498.868 494.572 498.426 494.65 498.027 494.806C497.628 494.945 497.264 495.135 496.935 495.378C496.623 495.621 496.354 495.898 496.129 496.21C495.904 496.522 495.73 496.851 495.609 497.198C495.453 497.631 495.358 498.047 495.323 498.446C495.288 498.845 495.271 499.278 495.271 499.746V507ZM516.304 502.788C516.547 503.949 516.98 504.773 517.604 505.258C518.246 505.726 519.156 505.96 520.334 505.96C520.906 505.96 521.4 505.891 521.816 505.752C522.232 505.613 522.57 505.431 522.83 505.206C523.108 504.963 523.316 504.695 523.454 504.4C523.593 504.105 523.662 503.793 523.662 503.464C523.662 502.805 523.446 502.32 523.012 502.008C522.596 501.679 522.068 501.427 521.426 501.254C520.785 501.063 520.092 500.907 519.346 500.786C518.601 500.647 517.908 500.448 517.266 500.188C516.625 499.928 516.088 499.555 515.654 499.07C515.238 498.585 515.03 497.9 515.03 497.016C515.03 495.889 515.438 494.971 516.252 494.26C517.084 493.532 518.254 493.168 519.762 493.168C521.218 493.168 522.397 493.497 523.298 494.156C524.217 494.797 524.772 495.881 524.962 497.406H523.376C523.238 496.366 522.839 495.638 522.18 495.222C521.539 494.789 520.724 494.572 519.736 494.572C518.748 494.572 517.994 494.789 517.474 495.222C516.954 495.638 516.694 496.193 516.694 496.886C516.694 497.493 516.902 497.961 517.318 498.29C517.752 498.602 518.289 498.862 518.93 499.07C519.572 499.261 520.265 499.434 521.01 499.59C521.756 499.746 522.449 499.971 523.09 500.266C523.732 500.543 524.26 500.925 524.676 501.41C525.11 501.895 525.326 502.571 525.326 503.438C525.326 504.079 525.188 504.651 524.91 505.154C524.633 505.639 524.252 506.047 523.766 506.376C523.281 506.705 522.7 506.948 522.024 507.104C521.366 507.277 520.638 507.364 519.84 507.364C519.043 507.364 518.332 507.243 517.708 507C517.102 506.775 516.582 506.454 516.148 506.038C515.715 505.622 515.377 505.137 515.134 504.582C514.892 504.027 514.753 503.429 514.718 502.788H516.304ZM538.144 499.33C538.144 498.671 538.049 498.056 537.858 497.484C537.685 496.895 537.416 496.392 537.052 495.976C536.706 495.543 536.264 495.205 535.726 494.962C535.189 494.702 534.574 494.572 533.88 494.572C533.187 494.572 532.572 494.702 532.034 494.962C531.514 495.222 531.064 495.569 530.682 496.002C530.318 496.435 530.024 496.938 529.798 497.51C529.573 498.082 529.426 498.689 529.356 499.33H538.144ZM529.356 500.63C529.356 501.358 529.452 502.051 529.642 502.71C529.833 503.351 530.11 503.915 530.474 504.4C530.856 504.868 531.332 505.249 531.904 505.544C532.476 505.821 533.135 505.96 533.88 505.96C534.903 505.96 535.778 505.691 536.506 505.154C537.234 504.617 537.72 503.854 537.962 502.866H539.704C539.514 503.507 539.262 504.105 538.95 504.66C538.638 505.197 538.248 505.674 537.78 506.09C537.312 506.489 536.758 506.801 536.116 507.026C535.475 507.251 534.73 507.364 533.88 507.364C532.806 507.364 531.878 507.182 531.098 506.818C530.318 506.454 529.677 505.96 529.174 505.336C528.672 504.695 528.299 503.949 528.056 503.1C527.814 502.233 527.692 501.306 527.692 500.318C527.692 499.33 527.831 498.403 528.108 497.536C528.403 496.669 528.81 495.915 529.33 495.274C529.868 494.615 530.518 494.104 531.28 493.74C532.043 493.359 532.91 493.168 533.88 493.168C535.735 493.168 537.191 493.809 538.248 495.092C539.306 496.357 539.826 498.203 539.808 500.63H529.356ZM541.412 493.532H543.102L547.47 505.076L551.838 493.532H553.528L548.302 507H546.56L541.412 493.532ZM565.592 499.33C565.592 498.671 565.496 498.056 565.306 497.484C565.132 496.895 564.864 496.392 564.5 495.976C564.153 495.543 563.711 495.205 563.174 494.962C562.636 494.702 562.021 494.572 561.328 494.572C560.634 494.572 560.019 494.702 559.482 494.962C558.962 495.222 558.511 495.569 558.13 496.002C557.766 496.435 557.471 496.938 557.246 497.51C557.02 498.082 556.873 498.689 556.804 499.33H565.592ZM556.804 500.63C556.804 501.358 556.899 502.051 557.09 502.71C557.28 503.351 557.558 503.915 557.922 504.4C558.303 504.868 558.78 505.249 559.352 505.544C559.924 505.821 560.582 505.96 561.328 505.96C562.35 505.96 563.226 505.691 563.954 505.154C564.682 504.617 565.167 503.854 565.41 502.866H567.152C566.961 503.507 566.71 504.105 566.398 504.66C566.086 505.197 565.696 505.674 565.228 506.09C564.76 506.489 564.205 506.801 563.564 507.026C562.922 507.251 562.177 507.364 561.328 507.364C560.253 507.364 559.326 507.182 558.546 506.818C557.766 506.454 557.124 505.96 556.622 505.336C556.119 504.695 555.746 503.949 555.504 503.1C555.261 502.233 555.14 501.306 555.14 500.318C555.14 499.33 555.278 498.403 555.556 497.536C555.85 496.669 556.258 495.915 556.778 495.274C557.315 494.615 557.965 494.104 558.728 493.74C559.49 493.359 560.357 493.168 561.328 493.168C563.182 493.168 564.638 493.809 565.696 495.092C566.753 496.357 567.273 498.203 567.256 500.63H556.804ZM571.849 507H570.289V493.532H571.849V495.404C572.473 494.745 573.114 494.208 573.773 493.792C574.449 493.376 575.255 493.168 576.191 493.168C577.023 493.168 577.794 493.315 578.505 493.61C579.216 493.887 579.814 494.381 580.299 495.092C580.628 495.577 580.819 496.08 580.871 496.6C580.94 497.103 580.975 497.631 580.975 498.186V507H579.415V498.212C579.415 496.999 579.146 496.089 578.609 495.482C578.072 494.875 577.179 494.572 575.931 494.572C575.446 494.572 575.004 494.65 574.605 494.806C574.206 494.945 573.842 495.135 573.513 495.378C573.201 495.621 572.932 495.898 572.707 496.21C572.482 496.522 572.308 496.851 572.187 497.198C572.031 497.631 571.936 498.047 571.901 498.446C571.866 498.845 571.849 499.278 571.849 499.746V507ZM592.883 502.788C593.125 503.949 593.559 504.773 594.183 505.258C594.824 505.726 595.734 505.96 596.913 505.96C597.485 505.96 597.979 505.891 598.395 505.752C598.811 505.613 599.149 505.431 599.409 505.206C599.686 504.963 599.894 504.695 600.033 504.4C600.171 504.105 600.241 503.793 600.241 503.464C600.241 502.805 600.024 502.32 599.591 502.008C599.175 501.679 598.646 501.427 598.005 501.254C597.363 501.063 596.67 500.907 595.925 500.786C595.179 500.647 594.486 500.448 593.845 500.188C593.203 499.928 592.666 499.555 592.233 499.07C591.817 498.585 591.609 497.9 591.609 497.016C591.609 495.889 592.016 494.971 592.831 494.26C593.663 493.532 594.833 493.168 596.341 493.168C597.797 493.168 598.975 493.497 599.877 494.156C600.795 494.797 601.35 495.881 601.541 497.406H599.955C599.816 496.366 599.417 495.638 598.759 495.222C598.117 494.789 597.303 494.572 596.315 494.572C595.327 494.572 594.573 494.789 594.053 495.222C593.533 495.638 593.273 496.193 593.273 496.886C593.273 497.493 593.481 497.961 593.897 498.29C594.33 498.602 594.867 498.862 595.509 499.07C596.15 499.261 596.843 499.434 597.589 499.59C598.334 499.746 599.027 499.971 599.669 500.266C600.31 500.543 600.839 500.925 601.255 501.41C601.688 501.895 601.905 502.571 601.905 503.438C601.905 504.079 601.766 504.651 601.489 505.154C601.211 505.639 600.83 506.047 600.345 506.376C599.859 506.705 599.279 506.948 598.603 507.104C597.944 507.277 597.216 507.364 596.419 507.364C595.621 507.364 594.911 507.243 594.287 507C593.68 506.775 593.16 506.454 592.727 506.038C592.293 505.622 591.955 505.137 591.713 504.582C591.47 504.027 591.331 503.429 591.297 502.788H592.883ZM614.723 499.33C614.723 498.671 614.627 498.056 614.437 497.484C614.263 496.895 613.995 496.392 613.631 495.976C613.284 495.543 612.842 495.205 612.305 494.962C611.767 494.702 611.152 494.572 610.459 494.572C609.765 494.572 609.15 494.702 608.613 494.962C608.093 495.222 607.642 495.569 607.261 496.002C606.897 496.435 606.602 496.938 606.377 497.51C606.151 498.082 606.004 498.689 605.935 499.33H614.723ZM605.935 500.63C605.935 501.358 606.03 502.051 606.221 502.71C606.411 503.351 606.689 503.915 607.053 504.4C607.434 504.868 607.911 505.249 608.483 505.544C609.055 505.821 609.713 505.96 610.459 505.96C611.481 505.96 612.357 505.691 613.085 505.154C613.813 504.617 614.298 503.854 614.541 502.866H616.283C616.092 503.507 615.841 504.105 615.529 504.66C615.217 505.197 614.827 505.674 614.359 506.09C613.891 506.489 613.336 506.801 612.695 507.026C612.053 507.251 611.308 507.364 610.459 507.364C609.384 507.364 608.457 507.182 607.677 506.818C606.897 506.454 606.255 505.96 605.753 505.336C605.25 504.695 604.877 503.949 604.635 503.1C604.392 502.233 604.271 501.306 604.271 500.318C604.271 499.33 604.409 498.403 604.687 497.536C604.981 496.669 605.389 495.915 605.909 495.274C606.446 494.615 607.096 494.104 607.859 493.74C608.621 493.359 609.488 493.168 610.459 493.168C612.313 493.168 613.769 493.809 614.827 495.092C615.884 496.357 616.404 498.203 616.387 500.63H605.935ZM628.962 497.77C628.685 496.765 628.208 495.985 627.532 495.43C626.856 494.858 625.998 494.572 624.958 494.572C624.161 494.572 623.476 494.737 622.904 495.066C622.332 495.395 621.864 495.837 621.5 496.392C621.136 496.929 620.867 497.545 620.694 498.238C620.521 498.914 620.434 499.599 620.434 500.292C620.434 501.003 620.512 501.696 620.668 502.372C620.841 503.048 621.11 503.655 621.474 504.192C621.838 504.729 622.306 505.163 622.878 505.492C623.45 505.804 624.143 505.96 624.958 505.96C626.119 505.96 627.047 505.639 627.74 504.998C628.451 504.357 628.901 503.473 629.092 502.346H630.756C630.617 503.091 630.392 503.776 630.08 504.4C629.785 505.007 629.395 505.535 628.91 505.986C628.442 506.419 627.879 506.757 627.22 507C626.561 507.243 625.807 507.364 624.958 507.364C623.883 507.364 622.956 507.182 622.176 506.818C621.396 506.454 620.755 505.96 620.252 505.336C619.749 504.695 619.377 503.941 619.134 503.074C618.891 502.207 618.77 501.28 618.77 500.292C618.77 499.356 618.9 498.463 619.16 497.614C619.437 496.747 619.836 495.985 620.356 495.326C620.876 494.667 621.517 494.147 622.28 493.766C623.06 493.367 623.953 493.168 624.958 493.168C626.518 493.168 627.775 493.541 628.728 494.286C629.699 495.031 630.305 496.193 630.548 497.77H628.962ZM639.223 507.364C638.356 507.347 637.542 507.191 636.779 506.896C636.034 506.601 635.375 506.159 634.803 505.57C634.248 504.981 633.806 504.244 633.477 503.36C633.148 502.476 632.983 501.445 632.983 500.266C632.983 499.278 633.113 498.359 633.373 497.51C633.633 496.643 634.023 495.889 634.543 495.248C635.063 494.607 635.713 494.104 636.493 493.74C637.273 493.359 638.183 493.168 639.223 493.168C640.28 493.168 641.199 493.359 641.979 493.74C642.759 494.104 643.409 494.607 643.929 495.248C644.449 495.872 644.83 496.617 645.073 497.484C645.333 498.351 645.463 499.278 645.463 500.266C645.463 501.341 645.316 502.311 645.021 503.178C644.726 504.045 644.302 504.79 643.747 505.414C643.21 506.038 642.551 506.523 641.771 506.87C641.008 507.199 640.159 507.364 639.223 507.364ZM643.799 500.266C643.799 499.469 643.712 498.723 643.539 498.03C643.366 497.337 643.097 496.739 642.733 496.236C642.369 495.716 641.901 495.309 641.329 495.014C640.757 494.719 640.055 494.572 639.223 494.572C638.408 494.572 637.706 494.737 637.117 495.066C636.545 495.378 636.077 495.803 635.713 496.34C635.349 496.86 635.08 497.467 634.907 498.16C634.734 498.836 634.647 499.538 634.647 500.266C634.647 501.098 634.742 501.869 634.933 502.58C635.141 503.273 635.436 503.871 635.817 504.374C636.198 504.877 636.675 505.267 637.247 505.544C637.819 505.821 638.478 505.96 639.223 505.96C640.038 505.96 640.731 505.804 641.303 505.492C641.892 505.163 642.369 504.729 642.733 504.192C643.097 503.655 643.366 503.048 643.539 502.372C643.712 501.696 643.799 500.994 643.799 500.266ZM649.874 507H648.314V493.532H649.874V495.404C650.498 494.745 651.14 494.208 651.798 493.792C652.474 493.376 653.28 493.168 654.216 493.168C655.048 493.168 655.82 493.315 656.53 493.61C657.241 493.887 657.839 494.381 658.324 495.092C658.654 495.577 658.844 496.08 658.896 496.6C658.966 497.103 659 497.631 659 498.186V507H657.44V498.212C657.44 496.999 657.172 496.089 656.634 495.482C656.097 494.875 655.204 494.572 653.956 494.572C653.471 494.572 653.029 494.65 652.63 494.806C652.232 494.945 651.868 495.135 651.538 495.378C651.226 495.621 650.958 495.898 650.732 496.21C650.507 496.522 650.334 496.851 650.212 497.198C650.056 497.631 649.961 498.047 649.926 498.446C649.892 498.845 649.874 499.278 649.874 499.746V507ZM673.162 500.214C673.162 499.451 673.058 498.732 672.85 498.056C672.642 497.363 672.338 496.765 671.94 496.262C671.558 495.742 671.082 495.335 670.51 495.04C669.955 494.728 669.322 494.572 668.612 494.572C667.797 494.572 667.095 494.737 666.506 495.066C665.916 495.378 665.431 495.811 665.05 496.366C664.668 496.921 664.391 497.571 664.218 498.316C664.044 499.044 663.975 499.833 664.01 500.682C664.01 501.531 664.122 502.285 664.348 502.944C664.59 503.585 664.92 504.131 665.336 504.582C665.752 505.033 666.237 505.379 666.792 505.622C667.346 505.847 667.953 505.96 668.612 505.96C669.34 505.96 669.99 505.813 670.562 505.518C671.134 505.223 671.61 504.825 671.992 504.322C672.373 503.802 672.659 503.195 672.85 502.502C673.058 501.791 673.162 501.029 673.162 500.214ZM673.162 488.28H674.722V507H673.162V504.634H673.11C672.884 505.085 672.59 505.483 672.226 505.83C671.879 506.159 671.489 506.437 671.056 506.662C670.64 506.887 670.206 507.061 669.756 507.182C669.305 507.303 668.863 507.364 668.43 507.364C667.338 507.364 666.41 507.182 665.648 506.818C664.885 506.454 664.252 505.96 663.75 505.336C663.264 504.695 662.909 503.941 662.684 503.074C662.458 502.207 662.346 501.28 662.346 500.292C662.346 499.356 662.467 498.455 662.71 497.588C662.952 496.721 663.316 495.967 663.802 495.326C664.304 494.667 664.928 494.147 665.674 493.766C666.436 493.367 667.329 493.168 668.352 493.168C669.305 493.168 670.215 493.385 671.082 493.818C671.966 494.234 672.659 494.858 673.162 495.69V488.28ZM679.566 502.788C679.809 503.949 680.242 504.773 680.866 505.258C681.508 505.726 682.418 505.96 683.596 505.96C684.168 505.96 684.662 505.891 685.078 505.752C685.494 505.613 685.832 505.431 686.092 505.206C686.37 504.963 686.578 504.695 686.716 504.4C686.855 504.105 686.924 503.793 686.924 503.464C686.924 502.805 686.708 502.32 686.274 502.008C685.858 501.679 685.33 501.427 684.688 501.254C684.047 501.063 683.354 500.907 682.608 500.786C681.863 500.647 681.17 500.448 680.528 500.188C679.887 499.928 679.35 499.555 678.916 499.07C678.5 498.585 678.292 497.9 678.292 497.016C678.292 495.889 678.7 494.971 679.514 494.26C680.346 493.532 681.516 493.168 683.024 493.168C684.48 493.168 685.659 493.497 686.56 494.156C687.479 494.797 688.034 495.881 688.224 497.406H686.638C686.5 496.366 686.101 495.638 685.442 495.222C684.801 494.789 683.986 494.572 682.998 494.572C682.01 494.572 681.256 494.789 680.736 495.222C680.216 495.638 679.956 496.193 679.956 496.886C679.956 497.493 680.164 497.961 680.58 498.29C681.014 498.602 681.551 498.862 682.192 499.07C682.834 499.261 683.527 499.434 684.272 499.59C685.018 499.746 685.711 499.971 686.352 500.266C686.994 500.543 687.522 500.925 687.938 501.41C688.372 501.895 688.588 502.571 688.588 503.438C688.588 504.079 688.45 504.651 688.172 505.154C687.895 505.639 687.514 506.047 687.028 506.376C686.543 506.705 685.962 506.948 685.286 507.104C684.628 507.277 683.9 507.364 683.102 507.364C682.305 507.364 681.594 507.243 680.97 507C680.364 506.775 679.844 506.454 679.41 506.038C678.977 505.622 678.639 505.137 678.396 504.582C678.154 504.027 678.015 503.429 677.98 502.788H679.566ZM694.334 507.78C694.334 508.543 694.152 509.149 693.788 509.6C693.442 510.068 692.991 510.389 692.436 510.562V509.6C692.644 509.461 692.844 509.271 693.034 509.028C693.225 508.785 693.32 508.404 693.32 507.884V507H692.436V504.712H694.334V507.78ZM439.649 537V518.28H441.417V537H439.649ZM454.174 532.788C454.416 533.949 454.85 534.773 455.474 535.258C456.115 535.726 457.025 535.96 458.204 535.96C458.776 535.96 459.27 535.891 459.686 535.752C460.102 535.613 460.44 535.431 460.7 535.206C460.977 534.963 461.185 534.695 461.324 534.4C461.462 534.105 461.532 533.793 461.532 533.464C461.532 532.805 461.315 532.32 460.882 532.008C460.466 531.679 459.937 531.427 459.296 531.254C458.654 531.063 457.961 530.907 457.216 530.786C456.47 530.647 455.777 530.448 455.136 530.188C454.494 529.928 453.957 529.555 453.524 529.07C453.108 528.585 452.9 527.9 452.9 527.016C452.9 525.889 453.307 524.971 454.122 524.26C454.954 523.532 456.124 523.168 457.632 523.168C459.088 523.168 460.266 523.497 461.168 524.156C462.086 524.797 462.641 525.881 462.832 527.406H461.246C461.107 526.366 460.708 525.638 460.05 525.222C459.408 524.789 458.594 524.572 457.606 524.572C456.618 524.572 455.864 524.789 455.344 525.222C454.824 525.638 454.564 526.193 454.564 526.886C454.564 527.493 454.772 527.961 455.188 528.29C455.621 528.602 456.158 528.862 456.8 529.07C457.441 529.261 458.134 529.434 458.88 529.59C459.625 529.746 460.318 529.971 460.96 530.266C461.601 530.543 462.13 530.925 462.546 531.41C462.979 531.895 463.196 532.571 463.196 533.438C463.196 534.079 463.057 534.651 462.78 535.154C462.502 535.639 462.121 536.047 461.636 536.376C461.15 536.705 460.57 536.948 459.894 537.104C459.235 537.277 458.507 537.364 457.71 537.364C456.912 537.364 456.202 537.243 455.578 537C454.971 536.775 454.451 536.454 454.018 536.038C453.584 535.622 453.246 535.137 453.004 534.582C452.761 534.027 452.622 533.429 452.588 532.788H454.174ZM466.264 537V518.28H467.824V525.404C468.448 524.745 469.089 524.208 469.748 523.792C470.424 523.376 471.23 523.168 472.166 523.168C472.998 523.168 473.769 523.315 474.48 523.61C475.19 523.887 475.788 524.381 476.274 525.092C476.603 525.577 476.794 526.08 476.846 526.6C476.915 527.103 476.95 527.631 476.95 528.186V537H475.39V528.212C475.39 526.999 475.121 526.089 474.584 525.482C474.046 524.875 473.154 524.572 471.906 524.572C471.42 524.572 470.978 524.65 470.58 524.806C470.181 524.945 469.817 525.135 469.488 525.378C469.176 525.621 468.907 525.898 468.682 526.21C468.456 526.522 468.283 526.851 468.162 527.198C468.006 527.631 467.91 528.047 467.876 528.446C467.841 528.845 467.824 529.278 467.824 529.746V537H466.264ZM489.525 529.928C488.866 530.205 488.199 530.387 487.523 530.474C486.847 530.561 486.171 530.63 485.495 530.682C484.299 530.769 483.363 531.037 482.687 531.488C482.028 531.939 481.699 532.623 481.699 533.542C481.699 533.958 481.777 534.322 481.933 534.634C482.106 534.929 482.323 535.18 482.583 535.388C482.86 535.579 483.172 535.726 483.519 535.83C483.883 535.917 484.247 535.96 484.611 535.96C485.235 535.96 485.842 535.882 486.431 535.726C487.02 535.57 487.54 535.336 487.991 535.024C488.459 534.695 488.832 534.287 489.109 533.802C489.386 533.299 489.525 532.71 489.525 532.034V529.928ZM486.899 529.148C487.194 529.113 487.54 529.061 487.939 528.992C488.355 528.923 488.693 528.827 488.953 528.706C489.213 528.585 489.369 528.385 489.421 528.108C489.49 527.813 489.525 527.545 489.525 527.302C489.525 526.505 489.265 525.855 488.745 525.352C488.242 524.832 487.384 524.572 486.171 524.572C485.634 524.572 485.14 524.624 484.689 524.728C484.238 524.815 483.84 524.979 483.493 525.222C483.164 525.447 482.886 525.759 482.661 526.158C482.453 526.539 482.314 527.025 482.245 527.614H480.659C480.711 526.817 480.893 526.141 481.205 525.586C481.517 525.014 481.916 524.555 482.401 524.208C482.904 523.844 483.476 523.584 484.117 523.428C484.776 523.255 485.469 523.168 486.197 523.168C486.873 523.168 487.506 523.246 488.095 523.402C488.702 523.541 489.222 523.775 489.655 524.104C490.106 524.416 490.452 524.841 490.695 525.378C490.955 525.915 491.085 526.574 491.085 527.354V534.686C491.085 535.293 491.189 535.683 491.397 535.856C491.622 536.012 492.064 535.969 492.723 535.726V536.948C492.602 536.983 492.42 537.035 492.177 537.104C491.952 537.173 491.726 537.208 491.501 537.208C491.258 537.208 491.024 537.182 490.799 537.13C490.539 537.095 490.331 537.017 490.175 536.896C490.019 536.757 489.889 536.601 489.785 536.428C489.698 536.237 489.638 536.038 489.603 535.83C489.568 535.605 489.551 535.371 489.551 535.128C488.892 535.856 488.138 536.411 487.289 536.792C486.44 537.173 485.521 537.364 484.533 537.364C483.944 537.364 483.372 537.286 482.817 537.13C482.28 536.974 481.803 536.731 481.387 536.402C480.971 536.073 480.642 535.674 480.399 535.206C480.156 534.721 480.035 534.149 480.035 533.49C480.035 531.202 481.604 529.85 484.741 529.434L486.899 529.148ZM499.89 537.052C499.699 537.087 499.448 537.147 499.136 537.234C498.824 537.321 498.477 537.364 498.096 537.364C497.316 537.364 496.718 537.173 496.302 536.792C495.903 536.393 495.704 535.691 495.704 534.686V524.832H493.806V523.532H495.704V519.788H497.264V523.532H499.786V524.832H497.264V534.062C497.264 534.391 497.273 534.677 497.29 534.92C497.307 535.163 497.359 535.362 497.446 535.518C497.533 535.674 497.663 535.787 497.836 535.856C498.027 535.925 498.287 535.96 498.616 535.96C498.824 535.96 499.032 535.943 499.24 535.908C499.465 535.873 499.682 535.83 499.89 535.778V537.052ZM507.126 537.052C506.936 537.087 506.684 537.147 506.372 537.234C506.06 537.321 505.714 537.364 505.332 537.364C504.552 537.364 503.954 537.173 503.538 536.792C503.14 536.393 502.94 535.691 502.94 534.686V524.832H501.042V523.532H502.94V519.788H504.5V523.532H507.022V524.832H504.5V534.062C504.5 534.391 504.509 534.677 504.526 534.92C504.544 535.163 504.596 535.362 504.682 535.518C504.769 535.674 504.899 535.787 505.072 535.856C505.263 535.925 505.523 535.96 505.852 535.96C506.06 535.96 506.268 535.943 506.476 535.908C506.702 535.873 506.918 535.83 507.126 535.778V537.052ZM519.381 529.33C519.381 528.671 519.285 528.056 519.095 527.484C518.921 526.895 518.653 526.392 518.289 525.976C517.942 525.543 517.5 525.205 516.963 524.962C516.425 524.702 515.81 524.572 515.117 524.572C514.423 524.572 513.808 524.702 513.271 524.962C512.751 525.222 512.3 525.569 511.919 526.002C511.555 526.435 511.26 526.938 511.035 527.51C510.809 528.082 510.662 528.689 510.593 529.33H519.381ZM510.593 530.63C510.593 531.358 510.688 532.051 510.879 532.71C511.069 533.351 511.347 533.915 511.711 534.4C512.092 534.868 512.569 535.249 513.141 535.544C513.713 535.821 514.371 535.96 515.117 535.96C516.139 535.96 517.015 535.691 517.743 535.154C518.471 534.617 518.956 533.854 519.199 532.866H520.941C520.75 533.507 520.499 534.105 520.187 534.66C519.875 535.197 519.485 535.674 519.017 536.09C518.549 536.489 517.994 536.801 517.353 537.026C516.711 537.251 515.966 537.364 515.117 537.364C514.042 537.364 513.115 537.182 512.335 536.818C511.555 536.454 510.913 535.96 510.411 535.336C509.908 534.695 509.535 533.949 509.293 533.1C509.05 532.233 508.929 531.306 508.929 530.318C508.929 529.33 509.067 528.403 509.345 527.536C509.639 526.669 510.047 525.915 510.567 525.274C511.104 524.615 511.754 524.104 512.517 523.74C513.279 523.359 514.146 523.168 515.117 523.168C516.971 523.168 518.427 523.809 519.485 525.092C520.542 526.357 521.062 528.203 521.045 530.63H510.593ZM525.716 537H524.156V523.532H525.716V526.054H525.768C526.201 524.979 526.756 524.234 527.432 523.818C528.125 523.385 529.035 523.168 530.162 523.168V524.858C529.278 524.841 528.55 524.979 527.978 525.274C527.406 525.569 526.947 525.967 526.6 526.47C526.271 526.973 526.037 527.571 525.898 528.264C525.777 528.94 525.716 529.651 525.716 530.396V537ZM542.029 529.33C542.029 528.671 541.934 528.056 541.743 527.484C541.57 526.895 541.301 526.392 540.937 525.976C540.591 525.543 540.149 525.205 539.611 524.962C539.074 524.702 538.459 524.572 537.765 524.572C537.072 524.572 536.457 524.702 535.919 524.962C535.399 525.222 534.949 525.569 534.567 526.002C534.203 526.435 533.909 526.938 533.683 527.51C533.458 528.082 533.311 528.689 533.241 529.33H542.029ZM533.241 530.63C533.241 531.358 533.337 532.051 533.527 532.71C533.718 533.351 533.995 533.915 534.359 534.4C534.741 534.868 535.217 535.249 535.789 535.544C536.361 535.821 537.02 535.96 537.765 535.96C538.788 535.96 539.663 535.691 540.391 535.154C541.119 534.617 541.605 533.854 541.847 532.866H543.589C543.399 533.507 543.147 534.105 542.835 534.66C542.523 535.197 542.133 535.674 541.665 536.09C541.197 536.489 540.643 536.801 540.001 537.026C539.36 537.251 538.615 537.364 537.765 537.364C536.691 537.364 535.763 537.182 534.983 536.818C534.203 536.454 533.562 535.96 533.059 535.336C532.557 534.695 532.184 533.949 531.941 533.1C531.699 532.233 531.577 531.306 531.577 530.318C531.577 529.33 531.716 528.403 531.993 527.536C532.288 526.669 532.695 525.915 533.215 525.274C533.753 524.615 534.403 524.104 535.165 523.74C535.928 523.359 536.795 523.168 537.765 523.168C539.62 523.168 541.076 523.809 542.133 525.092C543.191 526.357 543.711 528.203 543.693 530.63H533.241ZM557.126 530.214C557.126 529.451 557.022 528.732 556.814 528.056C556.606 527.363 556.303 526.765 555.904 526.262C555.523 525.742 555.046 525.335 554.474 525.04C553.92 524.728 553.287 524.572 552.576 524.572C551.762 524.572 551.06 524.737 550.47 525.066C549.881 525.378 549.396 525.811 549.014 526.366C548.633 526.921 548.356 527.571 548.182 528.316C548.009 529.044 547.94 529.833 547.974 530.682C547.974 531.531 548.087 532.285 548.312 532.944C548.555 533.585 548.884 534.131 549.3 534.582C549.716 535.033 550.202 535.379 550.756 535.622C551.311 535.847 551.918 535.96 552.576 535.96C553.304 535.96 553.954 535.813 554.526 535.518C555.098 535.223 555.575 534.825 555.956 534.322C556.338 533.802 556.624 533.195 556.814 532.502C557.022 531.791 557.126 531.029 557.126 530.214ZM557.126 518.28H558.686V537H557.126V534.634H557.074C556.849 535.085 556.554 535.483 556.19 535.83C555.844 536.159 555.454 536.437 555.02 536.662C554.604 536.887 554.171 537.061 553.72 537.182C553.27 537.303 552.828 537.364 552.394 537.364C551.302 537.364 550.375 537.182 549.612 536.818C548.85 536.454 548.217 535.96 547.714 535.336C547.229 534.695 546.874 533.941 546.648 533.074C546.423 532.207 546.31 531.28 546.31 530.292C546.31 529.356 546.432 528.455 546.674 527.588C546.917 526.721 547.281 525.967 547.766 525.326C548.269 524.667 548.893 524.147 549.638 523.766C550.401 523.367 551.294 523.168 552.316 523.168C553.27 523.168 554.18 523.385 555.046 523.818C555.93 524.234 556.624 524.858 557.126 525.69V518.28ZM571.209 537H569.649V523.532H571.209V525.56H571.261C571.66 524.78 572.232 524.191 572.977 523.792C573.723 523.376 574.537 523.168 575.421 523.168C576.045 523.168 576.574 523.237 577.007 523.376C577.441 523.515 577.805 523.705 578.099 523.948C578.411 524.173 578.663 524.442 578.853 524.754C579.061 525.066 579.235 525.404 579.373 525.768C579.824 524.884 580.422 524.234 581.167 523.818C581.93 523.385 582.797 523.168 583.767 523.168C584.686 523.168 585.414 523.324 585.951 523.636C586.506 523.931 586.931 524.329 587.225 524.832C587.52 525.317 587.711 525.881 587.797 526.522C587.901 527.163 587.953 527.822 587.953 528.498V537H586.393V527.692C586.393 526.721 586.185 525.959 585.769 525.404C585.371 524.849 584.617 524.572 583.507 524.572C582.935 524.572 582.381 524.702 581.843 524.962C581.323 525.205 580.864 525.586 580.465 526.106C580.292 526.331 580.145 526.6 580.023 526.912C579.919 527.207 579.833 527.519 579.763 527.848C579.694 528.177 579.642 528.507 579.607 528.836C579.59 529.165 579.581 529.469 579.581 529.746V537H578.021V527.692C578.021 526.721 577.813 525.959 577.397 525.404C576.999 524.849 576.245 524.572 575.135 524.572C574.563 524.572 574.009 524.702 573.471 524.962C572.951 525.205 572.492 525.586 572.093 526.106C571.92 526.331 571.773 526.6 571.651 526.912C571.547 527.207 571.461 527.519 571.391 527.848C571.322 528.177 571.27 528.507 571.235 528.836C571.218 529.165 571.209 529.469 571.209 529.746V537ZM591.293 537V523.532H592.853V537H591.293ZM591.215 520.594V518.28H592.931V520.594H591.215ZM598.382 537H596.822V523.532H598.382V525.404C599.006 524.745 599.648 524.208 600.306 523.792C600.982 523.376 601.788 523.168 602.724 523.168C603.556 523.168 604.328 523.315 605.038 523.61C605.749 523.887 606.347 524.381 606.832 525.092C607.162 525.577 607.352 526.08 607.404 526.6C607.474 527.103 607.508 527.631 607.508 528.186V537H605.948V528.212C605.948 526.999 605.68 526.089 605.142 525.482C604.605 524.875 603.712 524.572 602.464 524.572C601.979 524.572 601.537 524.65 601.138 524.806C600.74 524.945 600.376 525.135 600.046 525.378C599.734 525.621 599.466 525.898 599.24 526.21C599.015 526.522 598.842 526.851 598.72 527.198C598.564 527.631 598.469 528.047 598.434 528.446C598.4 528.845 598.382 529.278 598.382 529.746V537ZM621.019 529.33C621.019 528.671 620.924 528.056 620.733 527.484C620.56 526.895 620.291 526.392 619.927 525.976C619.581 525.543 619.139 525.205 618.601 524.962C618.064 524.702 617.449 524.572 616.755 524.572C616.062 524.572 615.447 524.702 614.909 524.962C614.389 525.222 613.939 525.569 613.557 526.002C613.193 526.435 612.899 526.938 612.673 527.51C612.448 528.082 612.301 528.689 612.231 529.33H621.019ZM612.231 530.63C612.231 531.358 612.327 532.051 612.517 532.71C612.708 533.351 612.985 533.915 613.349 534.4C613.731 534.868 614.207 535.249 614.779 535.544C615.351 535.821 616.01 535.96 616.755 535.96C617.778 535.96 618.653 535.691 619.381 535.154C620.109 534.617 620.595 533.854 620.837 532.866H622.579C622.389 533.507 622.137 534.105 621.825 534.66C621.513 535.197 621.123 535.674 620.655 536.09C620.187 536.489 619.633 536.801 618.991 537.026C618.35 537.251 617.605 537.364 616.755 537.364C615.681 537.364 614.753 537.182 613.973 536.818C613.193 536.454 612.552 535.96 612.049 535.336C611.547 534.695 611.174 533.949 610.931 533.1C610.689 532.233 610.567 531.306 610.567 530.318C610.567 529.33 610.706 528.403 610.983 527.536C611.278 526.669 611.685 525.915 612.205 525.274C612.743 524.615 613.393 524.104 614.155 523.74C614.918 523.359 615.785 523.168 616.755 523.168C618.61 523.168 620.066 523.809 621.123 525.092C622.181 526.357 622.701 528.203 622.683 530.63H612.231ZM626.497 537V534.712H628.395V537H626.497Z" fill="#CCF3FF"/>
</g>
<defs>
<filter id="filter0_d_513_407" x="73.7578" y="7.19531" width="915.547" height="452.164" filterUnits="userSpaceOnUse" color-interpolation-filters="sRGB">
<feFlood flood-opacity="0" result="BackgroundImageFix"/>
<feColorMatrix in="SourceAlpha" type="matrix" values="0 0 0 0 0 0 0 0 0 0 0 0 0 0 0 0 0 0 127 0" result="hardAlpha"/>
<feOffset dy="4"/>
<feGaussianBlur stdDeviation="20.5"/>
<feComposite in2="hardAlpha" operator="out"/>
<feColorMatrix type="matrix" values="0 0 0 0 0 0 0 0 0 0 0 0 0 0 0 0 0 0 0.34 0"/>
<feBlend mode="normal" in2="BackgroundImageFix" result="effect1_dropShadow_513_407"/>
<feBlend mode="normal" in="SourceGraphic" in2="effect1_dropShadow_513_407" result="shape"/>
</filter>
<filter id="filter1_d_513_407" x="312.422" y="420.785" width="437.516" height="161.578" filterUnits="userSpaceOnUse" color-interpolation-filters="sRGB">
<feFlood flood-opacity="0" result="BackgroundImageFix"/>
<feColorMatrix in="SourceAlpha" type="matrix" values="0 0 0 0 0 0 0 0 0 0 0 0 0 0 0 0 0 0 127 0" result="hardAlpha"/>
<feOffset dy="4"/>
<feGaussianBlur stdDeviation="20.5"/>
<feComposite in2="hardAlpha" operator="out"/>
<feColorMatrix type="matrix" values="0 0 0 0 0 0 0 0 0 0 0 0 0 0 0 0 0 0 0.34 0"/>
<feBlend mode="normal" in2="BackgroundImageFix" result="effect1_dropShadow_513_407"/>
<feBlend mode="normal" in="SourceGraphic" in2="effect1_dropShadow_513_407" result="shape"/>
</filter>
</defs>
</svg>
