<svg width="917" height="453" viewBox="0 0 917 453" fill="none" xmlns="http://www.w3.org/2000/svg">
<g filter="url(#filter0_d_394_953)">
<path d="M191.931 188.706C183.938 188.706 176.09 187.616 168.387 185.436C160.684 183.256 154.362 180.131 149.421 176.062C144.625 171.993 142.227 167.342 142.227 162.11V138.784H146.151C148.622 153.317 153.418 163.854 160.539 170.394C167.66 176.789 177.47 179.986 189.969 179.986C197.817 179.986 204.502 178.024 210.025 174.1C215.693 170.176 218.527 164.726 218.527 157.75C218.527 151.646 216.638 146.341 212.859 141.836C209.08 137.331 202.976 132.607 194.547 127.666L167.733 111.752C158.432 106.229 151.819 100.634 147.895 94.966C144.116 89.298 142.227 82.3947 142.227 74.256C142.227 63.0653 146.078 54.1273 153.781 47.442C161.629 40.6113 171.875 37.196 184.519 37.196C191.931 37.196 199.27 38.286 206.537 40.466C213.804 42.5007 219.762 45.5527 224.413 49.622C229.209 53.546 231.607 58.124 231.607 63.356V86.682H227.683C225.212 72.1487 220.489 61.7573 213.513 55.508C206.682 49.1133 197.018 45.916 184.519 45.916C177.834 45.916 171.948 47.9507 166.861 52.02C161.774 56.0893 159.231 61.394 159.231 67.934C159.231 73.8927 161.048 78.834 164.681 82.758C168.46 86.682 174.709 91.26 183.429 96.492L210.243 112.406C220.126 118.365 227.102 123.887 231.171 128.974C235.24 134.061 237.275 140.528 237.275 148.376C237.275 160.584 233.206 170.394 225.067 177.806C216.928 185.073 205.883 188.706 191.931 188.706ZM269.801 67.28C269.801 59.868 268.784 54.418 266.749 50.93C264.715 47.2967 260.645 45.48 254.541 45.48H250.181V41.12H343.049C355.403 41.12 361.579 46.9333 361.579 58.56V74.91H357.219C357.219 58.1967 348.136 49.84 329.969 49.84H289.421V106.52H348.281V115.24H289.421V176.28H327.571C337.599 176.28 345.447 174.463 351.115 170.83C356.783 167.197 361.289 161.02 364.631 152.3L368.991 153.39L361.361 174.1C358.745 181.367 353.295 185 345.011 185H269.801V67.28ZM392.937 66.626C389.304 58.1967 385.889 52.456 382.691 49.404C379.494 46.2067 374.916 44.3173 368.957 43.736V39.376C369.684 39.376 370.774 39.3033 372.227 39.158C373.535 39.0127 374.916 38.94 376.369 38.94C383.636 38.94 390.612 40.8293 397.297 44.608C403.983 48.2413 409.651 55.5807 414.301 66.626L451.579 154.48L464.441 124.614C470.545 110.517 482.245 82.6853 499.539 41.12H510.003L447.437 187.18H443.513L392.937 66.626ZM537.831 67.28C537.831 59.868 536.813 54.418 534.779 50.93C532.744 47.2967 528.675 45.48 522.571 45.48H518.211V41.12H611.079C623.432 41.12 629.609 46.9333 629.609 58.56V74.91H625.249C625.249 58.1967 616.165 49.84 597.999 49.84H557.451V106.52H616.311V115.24H557.451V176.28H595.601C605.629 176.28 613.477 174.463 619.145 170.83C624.813 167.197 629.318 161.02 632.661 152.3L637.021 153.39L629.391 174.1C626.775 181.367 621.325 185 613.041 185H537.831V67.28ZM676.009 185H667.289V67.28C667.289 60.304 665.763 54.9267 662.711 51.148C659.804 47.3693 654.79 45.48 647.669 45.48H645.489V41.12H659.659C666.344 41.12 672.012 42.21 676.663 44.39C681.313 46.57 685.455 49.84 689.089 54.2L765.389 149.03V41.12H774.109V187.18H769.749L676.009 70.55V185ZM61.3814 285.28C61.3814 277.868 60.3641 272.418 58.3294 268.93C56.2948 265.297 52.2254 263.48 46.1214 263.48H41.7614V259.12H98.4414C112.393 259.12 124.965 262.099 136.155 268.058C147.346 274.017 152.941 285.571 152.941 302.72C152.941 314.056 150.035 322.776 144.221 328.88C138.408 334.984 131.868 339.053 124.601 341.088C117.48 343.123 110.94 344.14 104.981 344.14H81.0014V403H61.3814V285.28ZM97.3514 336.51C102.002 336.51 106.943 335.347 112.175 333.022C117.407 330.551 121.84 326.7 125.473 321.468C129.252 316.236 131.141 309.623 131.141 301.63C131.141 293.637 129.252 287.024 125.473 281.792C121.84 276.56 117.407 272.781 112.175 270.456C106.943 267.985 102.002 266.75 97.3514 266.75C92.2648 266.75 86.8148 267.477 81.0014 268.93V334.33C86.8148 335.783 92.2648 336.51 97.3514 336.51ZM236.165 407.36C222.649 407.36 210.731 404.017 200.413 397.332C190.239 390.647 182.391 381.491 176.869 369.864C171.346 358.237 168.585 345.303 168.585 331.06C168.585 316.817 171.346 303.883 176.869 292.256C182.391 280.629 190.239 271.473 200.413 264.788C210.731 258.103 222.649 254.76 236.165 254.76C249.681 254.76 261.525 258.103 271.699 264.788C282.017 271.473 289.938 280.629 295.461 292.256C300.983 303.883 303.745 316.817 303.745 331.06C303.745 345.303 300.983 358.237 295.461 369.864C289.938 381.491 282.017 390.647 271.699 397.332C261.525 404.017 249.681 407.36 236.165 407.36ZM236.165 398.64C245.611 398.64 253.75 395.879 260.581 390.356C267.557 384.833 272.861 377.058 276.495 367.03C280.128 356.857 281.945 344.867 281.945 331.06C281.945 317.253 280.128 305.336 276.495 295.308C272.861 285.135 267.557 277.287 260.581 271.764C253.75 266.241 245.611 263.48 236.165 263.48C226.718 263.48 218.507 266.241 211.531 271.764C204.7 277.287 199.468 285.135 195.835 295.308C192.201 305.336 190.385 317.253 190.385 331.06C190.385 344.867 192.201 356.857 195.835 367.03C199.468 377.058 204.7 384.833 211.531 390.356C218.507 395.879 226.718 398.64 236.165 398.64ZM390.926 405.18C376.974 405.18 365.929 402.855 357.79 398.204C349.651 393.408 343.838 386.359 340.35 377.058C337.007 367.757 335.336 355.694 335.336 340.87V285.28C335.336 277.868 334.319 272.418 332.284 268.93C330.249 265.297 326.18 263.48 320.076 263.48H315.716V259.12H335.336C340.713 259.12 344.71 259.847 347.326 261.3C350.087 262.608 352.049 265.079 353.212 268.712C354.375 272.345 354.956 277.868 354.956 285.28V347.41C354.956 363.542 357.935 375.75 363.894 384.034C369.853 392.318 379.735 396.46 393.542 396.46C404.587 396.46 413.307 394.498 419.702 390.574C426.242 386.65 430.893 380.691 433.654 372.698C436.415 364.705 437.796 354.095 437.796 340.87V259.12H446.516V340.87C446.516 355.985 444.917 368.193 441.72 377.494C438.523 386.65 432.855 393.553 424.716 398.204C416.723 402.855 405.459 405.18 390.926 405.18ZM496.116 403H487.396V285.28C487.396 278.304 485.87 272.927 482.818 269.148C479.911 265.369 474.897 263.48 467.776 263.48H465.596V259.12H479.766C486.451 259.12 492.119 260.21 496.77 262.39C501.421 264.57 505.563 267.84 509.196 272.2L585.496 367.03V259.12H594.216V405.18H589.856L496.116 288.55V403ZM635.76 285.28C635.76 277.868 634.743 272.418 632.708 268.93C630.674 265.297 626.604 263.48 620.5 263.48H616.14V259.12H673.256C701.451 259.12 722.742 265.369 737.13 277.868C751.664 290.367 758.93 307.807 758.93 330.188C758.93 344.576 755.878 357.293 749.774 368.338C743.67 379.238 734.587 387.74 722.524 393.844C710.607 399.948 696.074 403 678.924 403H635.76V285.28ZM678.27 395.37C689.025 395.37 698.69 392.754 707.264 387.522C715.984 382.145 722.815 374.66 727.756 365.068C732.698 355.331 735.168 343.995 735.168 331.06C735.168 318.416 732.698 307.225 727.756 297.488C722.96 287.751 716.202 280.193 707.482 274.816C698.762 269.439 688.88 266.75 677.834 266.75C670.858 266.75 663.592 267.913 656.034 270.238V392.536C664.173 394.425 671.585 395.37 678.27 395.37ZM829.964 406.706C821.971 406.706 814.123 405.616 806.42 403.436C798.718 401.256 792.396 398.131 787.454 394.062C782.658 389.993 780.26 385.342 780.26 380.11V356.784H784.184C786.655 371.317 791.451 381.854 798.572 388.394C805.694 394.789 815.504 397.986 828.002 397.986C835.85 397.986 842.536 396.024 848.058 392.1C853.726 388.176 856.56 382.726 856.56 375.75C856.56 369.646 854.671 364.341 850.892 359.836C847.114 355.331 841.01 350.607 832.58 345.666L805.766 329.752C796.465 324.229 789.852 318.634 785.928 312.966C782.15 307.298 780.26 300.395 780.26 292.256C780.26 281.065 784.112 272.127 791.814 265.442C799.662 258.611 809.908 255.196 822.552 255.196C829.964 255.196 837.304 256.286 844.57 258.466C851.837 260.501 857.796 263.553 862.446 267.622C867.242 271.546 869.64 276.124 869.64 281.356V304.682H865.716C863.246 290.149 858.522 279.757 851.546 273.508C844.716 267.113 835.051 263.916 822.552 263.916C815.867 263.916 809.981 265.951 804.894 270.02C799.808 274.089 797.264 279.394 797.264 285.934C797.264 291.893 799.081 296.834 802.714 300.758C806.493 304.682 812.742 309.26 821.462 314.492L848.276 330.406C858.159 336.365 865.135 341.887 869.204 346.974C873.274 352.061 875.308 358.528 875.308 366.376C875.308 378.584 871.239 388.394 863.1 395.806C854.962 403.073 843.916 406.706 829.964 406.706Z" fill="#CCF3FF"/>
</g>
<defs>
<filter id="filter0_d_394_953" x="0.757812" y="0.195312" width="915.547" height="452.164" filterUnits="userSpaceOnUse" color-interpolation-filters="sRGB">
<feFlood flood-opacity="0" result="BackgroundImageFix"/>
<feColorMatrix in="SourceAlpha" type="matrix" values="0 0 0 0 0 0 0 0 0 0 0 0 0 0 0 0 0 0 127 0" result="hardAlpha"/>
<feOffset dy="4"/>
<feGaussianBlur stdDeviation="20.5"/>
<feComposite in2="hardAlpha" operator="out"/>
<feColorMatrix type="matrix" values="0 0 0 0 0 0 0 0 0 0 0 0 0 0 0 0 0 0 0.34 0"/>
<feBlend mode="normal" in2="BackgroundImageFix" result="effect1_dropShadow_394_953"/>
<feBlend mode="normal" in="SourceGraphic" in2="effect1_dropShadow_394_953" result="shape"/>
</filter>
</defs>
</svg>
