<svg width="371" height="9714" viewBox="0 0 371 9714" fill="none" xmlns="http://www.w3.org/2000/svg">
<path d="M55.0345 968.312C56.8597 589.399 25.0548 0 25.0548 0H340.341C340.341 0 350.017 285.396 352.833 468.572C359.485 901.394 357.829 1275.84 340.341 1577.14C322.853 1878.44 316.357 1824.42 312.86 2201.56C309.362 2578.7 328.826 2947.57 340.341 3425.46C351.508 3888.89 373.191 4147.96 370.82 4611.95C368.843 4998.98 356.486 5215.44 340.341 5601.04C317.552 6145.33 233.414 6994.29 233.414 6994.29C233.414 6994.29 193.868 7485.46 177.951 7802.6C169.496 7971.07 163.376 8065.53 160.463 8234.81C158.3 8360.51 156.224 8431.42 160.463 8556.89C164.132 8665.48 175.071 8724.56 177.951 8833.25C180.045 8912.25 182.485 8957.29 177.951 9035.85C170.723 9161.08 154.484 9227.54 130.483 9343.38C98.5335 9497.59 31.5504 9728.84 25.0548 9713.25C18.5592 9697.67 60.0311 9343.38 60.0311 9343.38C60.0311 9343.38 83.2202 9205.74 87.5125 9113.77C90.1677 9056.88 89.2579 9022.98 87.8012 8968.72L87.5125 8957.93C84.0744 8828.38 72.746 8757.67 60.0311 8630.65C52.8543 8558.96 46.5952 8519.75 40.0446 8447.8C32.5252 8365.2 30.2445 8318.18 25.0548 8234.81C1.91838 7863.15 1.26689 7647.11 0.161709 7280.61L0.0717354 7250.91C-1.26573 6813.47 16.4357 6569.04 25.0548 6131.95C34.1179 5672.35 42.5385 5414.77 45.0412 4954.81C48.7245 4277.88 58.053 3895.3 25.0548 3221.82C17.5654 3068.96 2.57004 2831.17 2.57004 2831.17V2405.2C2.57004 2298.18 25.0548 1805.72 25.0548 1805.72C25.0548 1805.72 53.4549 1296.23 55.0345 968.312Z" fill="url(#paint0_linear_494_482)"/>
<path d="M55.0345 968.312C56.8597 589.399 25.0548 0 25.0548 0H340.341C340.341 0 350.017 285.396 352.833 468.572C359.485 901.394 357.829 1275.84 340.341 1577.14C322.853 1878.44 316.357 1824.42 312.86 2201.56C309.362 2578.7 328.826 2947.57 340.341 3425.46C351.508 3888.89 373.191 4147.96 370.82 4611.95C368.843 4998.98 356.486 5215.44 340.341 5601.04C317.552 6145.33 233.414 6994.29 233.414 6994.29C233.414 6994.29 193.868 7485.46 177.951 7802.6C169.496 7971.07 163.376 8065.53 160.463 8234.81C158.3 8360.51 156.224 8431.42 160.463 8556.89C164.132 8665.48 175.071 8724.56 177.951 8833.25C180.045 8912.25 182.485 8957.29 177.951 9035.85C170.723 9161.08 154.484 9227.54 130.483 9343.38C98.5335 9497.59 31.5504 9728.84 25.0548 9713.25C18.5592 9697.67 60.0311 9343.38 60.0311 9343.38C60.0311 9343.38 83.2202 9205.74 87.5125 9113.77C90.1677 9056.88 89.2579 9022.98 87.8012 8968.72L87.5125 8957.93C84.0744 8828.38 72.746 8757.67 60.0311 8630.65C52.8543 8558.96 46.5952 8519.75 40.0446 8447.8C32.5252 8365.2 30.2445 8318.18 25.0548 8234.81C1.91838 7863.15 1.26689 7647.11 0.161709 7280.61L0.0717354 7250.91C-1.26573 6813.47 16.4357 6569.04 25.0548 6131.95C34.1179 5672.35 42.5385 5414.77 45.0412 4954.81C48.7245 4277.88 58.053 3895.3 25.0548 3221.82C17.5654 3068.96 2.57004 2831.17 2.57004 2831.17V2405.2C2.57004 2298.18 25.0548 1805.72 25.0548 1805.72C25.0548 1805.72 53.4549 1296.23 55.0345 968.312Z" fill="black" fill-opacity="0.2"/>
<defs>
<linearGradient id="paint0_linear_494_482" x1="185.5" y1="0" x2="185.5" y2="9714" gradientUnits="userSpaceOnUse">
<stop stop-color="#E2F8FF"/>
<stop offset="1" stop-color="#00D1FF"/>
<stop offset="1" stop-color="#16CFF7"/>
</linearGradient>
</defs>
</svg>
